<svg xmlns="http://www.w3.org/2000/svg" class="ijs-icon__svg" width="200" height="200" viewBox="0 0 24 24"><path d="M9.609 16.781h4.781v1.828h-4.781v-1.828zM20.016 18q0.797 0 1.383-0.586t0.586-1.43v-9.984q0-0.844-0.586-1.43t-1.383-0.586h-16.031q-0.797 0-1.383 0.586t-0.586 1.43v9.984q0 0.844 0.586 1.43t1.383 0.586h-3.984v2.016h24v-2.016h-3.984zM3.984 15.984v-9.984h16.031v10.031zM9.094 9.938q0-0.75 0.539-1.289t1.336-0.539q0.75 0 1.313 0.539t0.563 1.289q0 0.797-0.563 1.336t-1.313 0.539q-0.797 0-1.336-0.539t-0.539-1.336zM16.125 14.203l-2.484-2.484q0.516-0.797 0.516-1.781 0-0.891-0.422-1.617t-1.148-1.148-1.617-0.422-1.617 0.422-1.172 1.148-0.445 1.617 0.445 1.617 1.172 1.172 1.617 0.445q0.938 0 1.734-0.516l2.484 2.484zM0 0h24v24h-24v-24z"></path></svg>