<svg xmlns="http://www.w3.org/2000/svg" class="ijs-icon__svg" width="200" height="200" viewBox="0 0 24 24"><path d="M6.375 18.797l0.234 2.203 1.641-1.547 2.766-7.594q-1.031-0.234-1.781-0.984zM14.766 10.875q-0.75 0.75-1.781 0.984l2.766 7.594 1.641 1.547 0.281-2.203zM15 8.016q0-0.984-0.563-1.758t-1.453-1.055v-2.203h-1.969v2.203q-0.891 0.281-1.453 1.055t-0.563 1.758q0 0.797 0.398 1.477t1.078 1.102 1.523 0.422 1.523-0.422 1.078-1.102 0.398-1.477zM12 9q-0.422 0-0.703-0.305t-0.281-0.68q0-0.422 0.281-0.727t0.703-0.305 0.703 0.305 0.281 0.727q0 0.375-0.281 0.68t-0.703 0.305z"></path></svg>