<svg xmlns="http://www.w3.org/2000/svg" class="ijs-icon__svg" width="200" height="200" viewBox="0 0 24 24"><path d="M2.859 7.875l1.547 1.547q-0.422 1.266-0.422 2.578 0 1.641 0.633 3.094t1.734 2.555 2.555 1.734 3.094 0.633 3.094-0.633 2.555-1.734 1.734-2.555 0.633-3.094-0.633-3.094-1.734-2.555-2.555-1.734-3.094-0.633q-1.359 0-2.672 0.469l-1.5-1.547q0.938-0.422 1.992-0.656t2.18-0.234q2.063 0 3.867 0.773t3.188 2.156 2.156 3.188 0.773 3.867-0.773 3.867-2.156 3.188-3.188 2.156-3.867 0.773-3.867-0.773-3.188-2.156-2.156-3.188-0.773-3.867q0-1.125 0.211-2.156t0.633-1.969zM6 12q0-1.641 0.82-3t2.18-2.18 3-0.82 3 0.82 2.18 2.18 0.82 3-0.82 3-2.18 2.18-3 0.82-3-0.82-2.18-2.18-0.82-3zM6.984 5.484q0 0.656-0.422 1.078t-1.078 0.422q-0.609 0-1.055-0.422t-0.445-1.078q0-0.609 0.445-1.055t1.055-0.445q0.656 0 1.078 0.445t0.422 1.055z"></path></svg>