<svg xmlns="http://www.w3.org/2000/svg" class="ijs-icon__svg" width="200" height="200" viewBox="0 0 24 24"><path d="M15.516 11.484q0 0.75-0.375 1.43t-0.891 1.289-0.891 1.172-0.375 1.125h-1.969q0-0.563-0.375-1.125t-0.891-1.172-0.891-1.289-0.375-1.43q0-0.938 0.492-1.734t1.266-1.266 1.758-0.469 1.758 0.469 1.266 1.266 0.492 1.734zM12.984 17.484h-1.969v1.5h1.969v-1.5zM21.984 12q0-2.063-0.773-3.891t-2.133-3.188l-1.078 1.078q1.172 1.125 1.828 2.695t0.656 3.305-0.656 3.305-1.828 2.695l1.078 1.078q1.359-1.359 2.133-3.188t0.773-3.891zM3.516 12q0-1.734 0.656-3.305t1.828-2.695l-1.078-1.078q-1.359 1.359-2.133 3.188t-0.773 3.891 0.773 3.891 2.133 3.188l1.078-1.078q-1.172-1.125-1.828-2.695t-0.656-3.305zM17.484 12q0 1.125-0.422 2.133t-1.172 1.758l1.078 1.078q0.938-0.984 1.477-2.25t0.539-2.719-0.539-2.719-1.477-2.25l-1.078 1.078q0.75 0.75 1.172 1.758t0.422 2.133zM7.031 16.969l1.078-1.078q-0.75-0.75-1.172-1.758t-0.422-2.133 0.422-2.133 1.172-1.758l-1.078-1.078q-0.938 0.984-1.477 2.25t-0.539 2.719 0.539 2.719 1.477 2.25z"></path></svg>