<svg xmlns="http://www.w3.org/2000/svg" class="ijs-icon__svg" width="200" height="200" viewBox="0 0 24 24"><path d="M6 6q0.844 0 1.43-0.586t0.586-1.43q0-0.797-0.586-1.383t-1.43-0.586-1.43 0.586-0.586 1.383q0 0.844 0.586 1.43t1.43 0.586zM9.984 9.422q0-0.609-0.328-1.102t-0.891-0.727q-0.609-0.281-1.313-0.445t-1.453-0.164-1.453 0.164-1.313 0.445q-0.563 0.234-0.891 0.727t-0.328 1.102v0.563h7.969v-0.563zM18 6q0.844 0 1.43-0.586t0.586-1.43q0-0.797-0.586-1.383t-1.43-0.586-1.43 0.586-0.586 1.383q0 0.844 0.586 1.43t1.43 0.586zM21.984 9.422q0-0.609-0.328-1.102t-0.891-0.727q-0.609-0.281-1.313-0.445t-1.453-0.164-1.453 0.164-1.313 0.445q-0.563 0.234-0.891 0.727t-0.328 1.102v0.563h7.969v-0.563zM18.984 17.016v-2.016h-13.969v2.016l-3-3 3-3v2.016l13.969-0.047v-1.969l3 3zM9.984 18.984v-0.984h-2.484q-0.188 0-0.352 0.141t-0.164 0.375v3q0 0.188 0.164 0.328t0.352 0.141h2.016q0.188 0 0.328-0.141t0.141-0.328v-1.5q0-0.234-0.141-0.375t-0.328-0.141h-1.5v-0.516h1.969zM9 20.484v0.516h-0.984v-0.516h0.984zM17.484 18.984h-0.984v3h-0.984v-3h-1.031v-0.984h3v0.984zM12.516 18.984v0.516h0.984v0.984h-0.984v1.5h-1.031v-3.984h2.531v0.984h-1.5z"></path></svg>