<svg xmlns="http://www.w3.org/2000/svg" class="ijs-icon__svg" width="200" height="200" viewBox="0 0 24 24"><path d="M21.797 12.75l-0.797-0.656v-0.188l0.797-0.656q0.281-0.188 0.094-0.516l-0.844-1.453q-0.094-0.234-0.375-0.234-0.047 0-0.141 0.047l-0.938 0.375q-0.141-0.047-0.188-0.094l-0.141-1.031q-0.047-0.328-0.422-0.328h-1.688q-0.375 0-0.422 0.328l-0.141 0.984q0 0.047-0.047 0.047t-0.047 0.047l-0.094 0.047-0.938-0.375q-0.094-0.047-0.141-0.047-0.234 0-0.375 0.188l-0.844 1.5q-0.188 0.281 0.094 0.516l0.797 0.609v0.234l-0.797 0.656q-0.281 0.188-0.094 0.469l0.844 1.5q0.094 0.188 0.375 0.188h0.141l0.938-0.375 0.188 0.094 0.188 1.031q0.047 0.328 0.375 0.328h1.734q0.328 0 0.375-0.328l0.141-1.031q0.047 0 0.070-0.023l0.023-0.023 0.094-0.047 0.984 0.375q0.047 0.047 0.141 0.047 0.234 0 0.328-0.234l0.844-1.453q0.188-0.328-0.094-0.516v0zM18 13.5q-0.609 0-1.055-0.445t-0.445-1.055 0.445-1.055 1.055-0.445 1.055 0.445 0.445 1.055-0.445 1.055-1.055 0.445zM17.016 17.016h1.969v3.984q0 0.844-0.586 1.43t-1.383 0.586h-10.031q-0.797 0-1.383-0.586t-0.586-1.43v-18q0-0.844 0.586-1.43t1.383-0.586h10.031q0.797 0 1.383 0.586t0.586 1.43v3.984h-1.969v-0.984h-10.031v12h10.031v-0.984z"></path></svg>