<svg xmlns="http://www.w3.org/2000/svg" class="ijs-icon__svg" width="200" height="200" viewBox="0 0 24 24"><path d="M12 2.016q1.641 0 3 0.797t2.18 2.156 0.82 3.047q0 1.641-0.82 3t-2.18 2.18-3 0.82-3-0.82-2.18-2.18-0.82-3q0-1.688 0.82-3.047t2.18-2.156 3-0.797zM12 3.984q-1.125 0-2.016 0.539t-1.43 1.453-0.539 2.039q0 1.078 0.539 1.992t1.43 1.453 2.016 0.539 2.016-0.539 1.43-1.453 0.539-1.992q0-1.125-0.539-2.039t-1.43-1.453-2.016-0.539zM12.984 11.016h-1.969v-2.016h-2.016v-2.016h2.016v-1.969h1.969v1.969h2.016v2.016h-2.016v2.016zM24 20.016h-2.016v1.969h-1.5v-1.969h-1.969v-1.5h1.969v-2.016h1.5v2.016h2.016v1.5zM18 18.516q0 0.422-0.258 0.797t-0.633 0.609l0.891 2.063h-1.5l-0.891-1.969h-1.125v1.969h-1.5v-6h3.516q0.609 0 1.055 0.469t0.445 1.031v1.031zM16.5 18.516v-1.031h-2.016v1.031h2.016zM3.516 18v-2.016h1.5v6h-1.5v-2.484h-2.016v2.484h-1.5v-6h1.5v2.016h2.016zM9.984 15.984q0.609 0 1.055 0.469t0.445 1.031v3q0 0.609-0.445 1.055t-1.055 0.445h-3.469v-6h3.469zM9.984 20.484v-3h-1.969v3h1.969z"></path></svg>