<svg xmlns="http://www.w3.org/2000/svg" class="ijs-icon__svg" width="200" height="200" viewBox="0 0 24 24"><path d="M19.266 4.922l-2.109-2.109q-0.563-0.609-1.406-0.609t-1.406 0.609l-2.859 2.813 2.156 2.156 2.109-2.156 3.516 3.563q0.609-0.609 0.797-1.383t0-1.523-0.797-1.359zM5.484 13.781q0.469 0.422 1.078 0.422t1.031-0.422l2.484-2.484-2.109-2.109-2.484 2.438q-0.422 0.469-0.422 1.078t0.422 1.078v0zM15.047 7.781l-1.406 1.406-3.188-3.188q-0.469-0.469-1.078-0.469t-1.078 0.469q-0.422 0.422-0.422 1.055t0.422 1.055l3.188 3.188-0.703 0.703-6.328 6.375q-0.609 0.563-0.609 1.406t0.609 1.406q0.563 0.609 1.383 0.609t1.43-0.609l9.188-9.188q0.281 0.281 0.703 0.281t0.703-0.281 0.281-0.703-0.281-0.703z"></path></svg>