<svg xmlns="http://www.w3.org/2000/svg" class="ijs-icon__svg" width="200" height="200" viewBox="0 0 24 24"><path d="M11.016 8.156l-4.547-4.5q1.219-0.797 2.602-1.219t2.93-0.422q2.063 0 3.867 0.773t3.188 2.156 2.156 3.188 0.773 3.867q0 1.547-0.422 2.93t-1.219 2.602l-1.453-1.5q0.516-0.844 0.82-1.875t0.305-2.156q0-1.688-0.656-3.141t-1.781-2.555-2.578-1.711v0.422q0 0.797-0.586 1.383t-1.43 0.586h-1.969v1.172zM21.188 21.188l-1.406 1.406-2.25-2.25q-1.219 0.797-2.602 1.219t-2.93 0.422q-2.063 0-3.867-0.773t-3.188-2.156-2.156-3.188-0.773-3.867q0-1.547 0.422-2.93t1.219-2.602l-2.25-2.25 1.406-1.406zM11.016 18q-0.844 0-1.43-0.586t-0.586-1.43v-0.984l-4.781-4.781q-0.094 0.422-0.164 0.867t-0.070 0.914q0 2.063 0.938 3.75t2.531 2.813 3.563 1.359v-1.922z"></path></svg>