<svg xmlns="http://www.w3.org/2000/svg" class="ijs-icon__svg" width="200" height="200" viewBox="0 0 24 24"><path d="M6.984 18.984h10.031v1.031q0 0.797-0.586 1.383t-1.43 0.586h-6q-0.844 0-1.43-0.586t-0.586-1.383v-1.031zM6.984 18h10.031v-5.016h-10.031v5.016zM17.016 3v6l-3.188-0.656q1.172 0.469 1.992 1.43t1.102 2.227h-9.844q0.281-1.266 1.102-2.227t1.992-1.43q-0.516-0.375-0.797-0.938l-4.359-0.891v-1.031l4.359-0.891q0.375-0.703 1.078-1.148t1.547-0.445q0.516 0 0.984 0.188t0.844 0.469zM12.984 6q0-0.422-0.281-0.703t-0.703-0.281-0.703 0.281-0.281 0.703 0.281 0.703 0.703 0.281 0.703-0.281 0.281-0.703z"></path></svg>