<svg xmlns="http://www.w3.org/2000/svg" class="ijs-icon__svg" width="200" height="200" viewBox="0 0 24 24"><path d="M1.406 4.219l7.875 7.922q0.328 0.328 0 0.656-0.141 0.188-0.328 0.188-0.234 0-0.375-0.188l-1.688-1.688q-0.188 0.609-0.469 1.125l1.406 1.406q0.141 0.141 0.141 0.352t-0.141 0.352-0.375 0.141q-0.188 0-0.328-0.141l-1.266-1.266q-0.375 0.422-0.797 0.797l1.313 1.266q0.141 0.141 0.141 0.352t-0.141 0.352q-0.188 0.141-0.375 0.141-0.234 0-0.328-0.141l-1.406-1.359q-0.516 0.328-1.031 0.586t-0.938 0.398q-0.563 0.234-0.938 0.75t-0.375 1.172v2.625h9.516l3.328-3.328 5.953 5.906 1.406-1.406-18.375-18.375zM18.516 15.703l-1.406-1.453 4.453-4.453 1.453 1.406zM20.859 9.094l-4.453 4.453-7.125-7.078 4.5-4.453z"></path></svg>