<svg xmlns="http://www.w3.org/2000/svg" class="ijs-icon__svg" width="200" height="200" viewBox="0 0 24 24"><path d="M14.016 2.016h-8.016q-0.844 0-1.43 0.586t-0.586 1.383v16.031q0 0.797 0.586 1.383t1.43 0.586h12q0.844 0 1.43-0.586t0.586-1.383v-12zM15.047 19.453l-1.875-1.875q-1.031 0.516-2.156 0.375t-1.969-0.984q-0.703-0.656-0.938-1.57t0-1.805 0.938-1.547q0.656-0.703 1.547-0.938t1.805 0 1.57 0.938q0.844 0.844 0.984 1.969t-0.375 2.156l1.875 1.875zM12.984 9v-5.484l5.531 5.484h-5.531zM9.984 14.484q0-0.609 0.445-1.055t1.055-0.445q0.656 0 1.078 0.445t0.422 1.055q0 0.656-0.422 1.078t-1.078 0.422q-0.609 0-1.055-0.422t-0.445-1.078z"></path></svg>