<svg xmlns="http://www.w3.org/2000/svg" class="ijs-icon__svg" width="200" height="200" viewBox="0 0 24 24"><path d="M12 15.984q0.75 0 1.43-0.258t1.195-0.727h-5.25q0.516 0.469 1.195 0.727t1.43 0.258zM8.578 14.016h6.891q0.375-0.703 0.469-1.5h-7.875q0.094 0.797 0.516 1.5zM12 8.016q-0.75 0-1.43 0.258t-1.195 0.727h5.25q-0.516-0.469-1.195-0.727t-1.43-0.258zM8.578 9.984q-0.422 0.703-0.516 1.5h7.875q-0.094-0.797-0.516-1.5h-6.844zM18.984 3h-13.969q-0.844 0-1.43 0.586t-0.586 1.43v13.969q0 0.844 0.586 1.43t1.43 0.586h13.969q0.844 0 1.43-0.586t0.586-1.43v-13.969q0-0.844-0.586-1.43t-1.43-0.586zM12 18q-1.641 0-3-0.82t-2.18-2.18-0.82-3 0.82-3 2.18-2.18 3-0.82 3 0.82 2.18 2.18 0.82 3-0.82 3-2.18 2.18-3 0.82z"></path></svg>