<svg xmlns="http://www.w3.org/2000/svg" class="ijs-icon__svg" width="200" height="200" viewBox="0 0 24 24"><path d="M7.828 15.984h7.172v-0.984q0-1.125 0.539-2.016t1.453-1.43 1.992-0.539h0.75l-1.875-8.438q-0.188-0.703-0.727-1.148t-1.242-0.445h-3.891v2.016h3.891l1.406 6.234q-1.641 0.516-2.789 1.781t-1.43 3h-5.25q-0.375-1.031-1.313-1.617t-2.109-0.352q-0.891 0.188-1.547 0.844t-0.797 1.547q-0.188 0.938 0.188 1.758t1.102 1.313 1.664 0.492 1.711-0.563 1.102-1.453zM5.016 15.984q-0.422 0-0.727-0.281t-0.305-0.703 0.305-0.703 0.727-0.281q0.375 0 0.68 0.281t0.305 0.703-0.305 0.703-0.68 0.281zM18.984 12q-0.797 0-1.477 0.398t-1.102 1.078-0.422 1.523 0.422 1.523 1.102 1.078 1.477 0.398q0.844 0 1.523-0.398t1.078-1.078 0.398-1.523-0.398-1.523-1.078-1.078-1.523-0.398zM18.984 15.984q-0.375 0-0.68-0.281t-0.305-0.703 0.305-0.703 0.68-0.281q0.422 0 0.727 0.281t0.305 0.703-0.305 0.703-0.727 0.281zM11.016 20.016h-4.031l6 3v-2.016h4.031l-6-3v2.016z"></path></svg>