<svg xmlns="http://www.w3.org/2000/svg" class="ijs-icon__svg" width="200" height="200" viewBox="0 0 24 24"><path d="M9.984 8.016v6l4.734 2.906 0.797-1.219-4.031-2.391v-5.297h-1.5zM17.906 12q0.094 0.516 0.094 0.984 0 1.5-0.539 2.766t-1.5 2.227-2.227 1.5-2.719 0.539q-1.5 0-2.766-0.539t-2.227-1.5-1.5-2.227-0.539-2.766q0-1.453 0.539-2.719t1.5-2.227 2.227-1.5 2.766-0.539q1.031 0 1.969 0.281v-2.063q-0.984-0.234-1.969-0.234-1.875 0-3.516 0.703t-2.883 1.945-1.922 2.859-0.68 3.492 0.68 3.516 1.922 2.883 2.883 1.922 3.516 0.68 3.492-0.68 2.859-1.922 1.945-2.883 0.703-3.516q0-0.469-0.094-0.984h-2.016zM20.016 5.016v-3h-2.016v3h-3v1.969h3v3h2.016v-3h3v-1.969h-3z"></path></svg>