<svg xmlns="http://www.w3.org/2000/svg" class="ijs-icon__svg" width="200" height="200" viewBox="0 0 24 24"><path d="M9.797 11.156l-1.453 1.406q-0.516-0.516-0.984-1.219t-0.797-1.688l1.969-0.516q0.234 0.656 0.563 1.148t0.703 0.867zM11.016 6l-4.031-3.984-3.984 3.984h3q0.047 1.266 0.188 2.156l1.969-0.469q-0.047-0.375-0.094-0.797t-0.047-0.891h3zM21 6l-3.984-3.984-4.031 3.984h3q-0.047 1.828-0.422 2.906t-0.938 1.734-1.172 1.219q-0.375 0.328-0.75 0.703t-0.703 0.891q-0.234-0.375-0.539-0.68l-0.586-0.586-1.406 1.406q0.469 0.422 0.82 0.844t0.539 1.031 0.188 1.547v0 0 0 4.969h1.969v-4.969q0-1.031 0.234-1.641t0.633-1.055 0.961-0.961q0.516-0.469 1.055-1.031t1.008-1.383 0.773-2.016 0.352-2.93h3z"></path></svg>