<svg xmlns="http://www.w3.org/2000/svg" class="ijs-icon__svg" width="200" height="200" viewBox="0 0 24 24"><path d="M12 20.016h-9.984v-2.016h5.719q-0.516-2.109-2.063-3.656t-3.656-2.063q0.469-0.141 0.961-0.211t1.008-0.070q1.688 0 3.141 0.633t2.531 1.711 1.711 2.531 0.633 3.141zM21.984 12.281q-0.469-0.141-0.961-0.211t-1.008-0.070q-2.203 0-4.031 1.078t-2.859 2.859q0.234 0.469 0.398 0.984t0.258 1.078q0.188 0.984 0.188 2.016h8.016v-2.016h-5.766q0.563-2.109 2.109-3.656t3.656-2.063zM15.656 11.016q0.563-1.547 1.617-2.836t2.461-2.18q-1.594 0.094-3 0.727t-2.461 1.711-1.664 2.508-0.609 3.070v0 0q1.453-1.922 3.656-3zM11.438 8.859q-0.656-1.641-1.875-2.906t-2.859-1.969q1.078 1.406 1.688 3.117t0.609 3.586q0 0.188-0.023 0.328t-0.023 0.281q0.328 0.188 0.633 0.398t0.586 0.445q0.188-0.891 0.492-1.711t0.773-1.57z"></path></svg>