<svg xmlns="http://www.w3.org/2000/svg" class="ijs-icon__svg" width="200" height="200" viewBox="0 0 24 24"><path d="M9.984 14.016h0.75l-1.922-8.438q-0.141-0.703-0.703-1.148t-1.219-0.445h-3.891v2.016h3.891l1.406 6.234q-1.641 0.516-2.789 1.781t-1.43 3h-4.078v1.969h6v-0.984q0-1.125 0.539-2.016t1.453-1.43 1.992-0.539zM18.984 8.016h-0.797l-1.359-3.703q-0.188-0.609-0.703-0.961t-1.172-0.352h-3.938v2.016h3.938l1.125 3h-5.672l0.469 1.969h4.125q-0.328 0.469-0.563 0.961t-0.328 1.055h-2.813l0.469 2.016h2.344q0.188 1.078 0.867 1.969t1.641 1.43 2.133 0.586q1.406 0.047 2.602-0.609t1.922-1.828 0.727-2.578-0.656-2.531-1.805-1.781-2.555-0.656zM18.984 15.984q-0.844 0-1.523-0.398t-1.078-1.078-0.398-1.523q0-0.703 0.281-1.289t0.797-0.961l0.938 2.625 1.875-0.656-0.938-2.672 0.023-0.023t0.070-0.023q0.797 0 1.477 0.398t1.102 1.078 0.422 1.523-0.422 1.523-1.102 1.078-1.523 0.398zM9.984 15q-0.797 0-1.477 0.398t-1.102 1.078-0.422 1.523 0.422 1.523 1.102 1.078 1.477 0.398q0.844 0 1.523-0.398t1.078-1.078 0.398-1.523-0.398-1.523-1.078-1.078-1.523-0.398zM9.984 18.984q-0.375 0-0.68-0.281t-0.305-0.703 0.305-0.703 0.68-0.281q0.422 0 0.727 0.281t0.305 0.703-0.305 0.703-0.727 0.281z"></path></svg>