<svg xmlns="http://www.w3.org/2000/svg" class="ijs-icon__svg" width="200" height="200" viewBox="0 0 24 24"><path d="M21.047 17.578l-17.953 0.938-0.094-1.5 18-0.938zM21 19.5h-18v1.5h18v-1.5zM21.984 5.016v6.984q0 0.844-0.586 1.43t-1.383 0.586h-16.031q-0.797 0-1.383-0.586t-0.586-1.43v-6.984q0-0.844 0.586-1.43t1.383-0.586h16.031q0.797 0 1.383 0.586t0.586 1.43zM20.016 6q-1.266 0-2.18 0.656t-1.055 1.594q-0.234-0.281-0.75-0.75t-1.313-0.914-1.922-0.773-2.531-0.328q-1.781 0-3.047 0.469t-2.086 1.055-1.219 1.031l-0.398 0.445 0.398 0.469t1.219 1.055 2.086 1.031 3.047 0.445q1.406 0 2.531-0.305t1.922-0.773 1.313-0.914 0.75-0.727q0.141 0.938 1.055 1.594t2.18 0.656v-5.016z"></path></svg>