<svg xmlns="http://www.w3.org/2000/svg" class="ijs-icon__svg" width="200" height="200" viewBox="0 0 24 24"><path d="M17.672 9.516l-7.078 7.078-4.266-4.219 1.453-1.406 2.813 2.813 5.672-5.672zM3.984 12q0-1.734 0.727-3.258t1.898-2.602l2.391 2.344v-6h-6l2.203 2.203q-1.453 1.359-2.32 3.258t-0.867 4.055q0 1.969 0.68 3.68t1.898 3.047 2.859 2.18 3.563 1.031v-2.016q-1.5-0.188-2.766-0.867t-2.227-1.758-1.5-2.414-0.539-2.883zM21.984 12q0-1.969-0.68-3.68t-1.898-3.047-2.859-2.18-3.563-1.031v2.016q1.5 0.188 2.766 0.867t2.227 1.758 1.5 2.414 0.539 2.883q0 1.734-0.727 3.258t-1.898 2.602l-2.391-2.344v6h6l-2.203-2.203q1.453-1.359 2.32-3.258t0.867-4.055z"></path></svg>