<svg xmlns="http://www.w3.org/2000/svg" class="ijs-icon__svg" width="200" height="200" viewBox="0 0 24 24"><path d="M18.516 8.016q1.031 0 1.758-0.75t0.727-1.781q0-0.609-0.375-1.383t-0.867-1.477-0.867-1.172l-0.375-0.469-0.375 0.469t-0.891 1.172-0.891 1.477-0.375 1.383q0 1.031 0.75 1.781t1.781 0.75zM13.5 9q0.609 0 1.055-0.445t0.445-1.055q0-0.328-0.234-0.75t-0.516-0.82-0.516-0.656l-0.234-0.258-0.234 0.258t-0.516 0.656-0.516 0.82-0.234 0.75q0 0.609 0.445 1.055t1.055 0.445zM9.141 5.016l-7.219 6.797q-0.938 0.844-0.938 2.156v6.047q0 0.797 0.422 1.477t1.102 1.102 1.477 0.422h13.781q0.516 0 0.867-0.375t0.352-0.891-0.352-0.891-0.867-0.375h-5.766v-0.984h7.734q0.516 0 0.891-0.375t0.375-0.891-0.375-0.867-0.891-0.352h-7.734v-1.031h8.766q0.516 0 0.867-0.352t0.352-0.867-0.352-0.891-0.867-0.375h-8.766v-0.984h6.75q0.516 0 0.891-0.375t0.375-0.891-0.375-0.891-0.891-0.375h-9.891q0.328-0.563 0.68-1.148t0.586-1.008l0.234-0.422q0.141-0.281 0.141-0.563 0-0.375-0.281-0.703l-0.164-0.164t-0.375-0.398-0.375-0.398l-0.164-0.164z"></path></svg>