<svg xmlns="http://www.w3.org/2000/svg" class="ijs-icon__svg" width="200" height="200" viewBox="0 0 24 24"><path d="M15.094 19.359l0.984 1.734q-1.453 0.703-3.094 0.844v-2.016q1.125-0.141 2.109-0.563zM4.078 12.984h-2.016q0.141 1.641 0.844 3.094l1.734-0.984q-0.422-0.984-0.563-2.109zM15.094 4.641l0.984-1.734q-1.453-0.703-3.094-0.844v2.016q1.125 0.141 2.109 0.563zM19.922 11.016h2.016q-0.141-1.641-0.844-3.094l-1.734 0.984q0.422 0.984 0.563 2.109zM8.906 19.359l-0.984 1.734q1.453 0.703 3.094 0.844v-2.016q-1.125-0.141-2.109-0.563zM11.016 4.078v-2.016q-1.641 0.141-3.094 0.844l0.984 1.734q0.984-0.422 2.109-0.563zM18.375 7.172l1.734-1.031q-0.984-1.313-2.297-2.25l-0.984 1.734q0.891 0.656 1.547 1.547zM4.641 8.906l-1.734-0.984q-0.703 1.453-0.844 3.094h2.016q0.141-1.125 0.563-2.109zM19.922 12.984q-0.141 1.125-0.563 2.109l1.734 0.984q0.703-1.453 0.844-3.094h-2.016zM16.828 18.375l1.031 1.734q1.313-0.984 2.25-2.297l-1.734-0.984q-0.656 0.891-1.547 1.547zM7.172 5.625l-0.984-1.734q-1.359 0.984-2.297 2.297l1.734 0.984q0.656-0.844 1.547-1.547zM5.625 16.828l-1.734 0.984q0.984 1.313 2.297 2.297l0.984-1.734q-0.844-0.656-1.547-1.547zM12.984 6.984h-1.969v5.438l4.266 4.266 1.406-1.406-3.703-3.703v-4.594z"></path></svg>