<svg xmlns="http://www.w3.org/2000/svg" class="ijs-icon__svg" width="200" height="200" viewBox="0 0 24 24"><path d="M15 2.016h-3.516l-0.984-1.031h-5.016l-0.984 1.031h-3.516v1.969h14.016v-1.969zM15.984 9q-1.031 0-1.969 0.281v-4.266h-12v12q0 0.797 0.586 1.383t1.383 0.586h5.719q0.797 1.781 2.508 2.906t3.773 1.125q1.453 0 2.719-0.563t2.227-1.523 1.523-2.227 0.563-2.719-0.563-2.719-1.523-2.227-2.227-1.5-2.719-0.539zM15.984 21q-1.359 0-2.508-0.68t-1.805-1.805-0.656-2.531q0-1.359 0.656-2.508t1.805-1.805 2.508-0.656q1.406 0 2.531 0.656t1.805 1.805 0.68 2.508q0 1.406-0.68 2.531t-1.805 1.805-2.531 0.68zM16.5 12h-1.5v5.016l3.609 2.063 0.797-1.172-2.906-1.688v-4.219z"></path></svg>