<svg xmlns="http://www.w3.org/2000/svg" class="ijs-icon__svg" width="200" height="200" viewBox="0 0 24 24"><path d="M15.656 4.875l-0.094-0.094q-0.891-0.984-0.656-2.203l0.094-0.563h-1.875l-0.094 0.422q-0.281 2.109 1.313 3.703l0.094 0.047q0.891 0.984 0.656 2.203l-0.094 0.609h1.875l0.094-0.422q0.141-1.031-0.211-1.992t-1.102-1.711zM19.641 4.875l-0.047-0.094q-0.938-0.984-0.703-2.203l0.094-0.563h-1.875l-0.047 0.422q-0.328 2.109 1.266 3.703l0.094 0.047q0.891 0.984 0.656 2.203l-0.094 0.609h1.922l0.047-0.422q0.141-1.031-0.188-1.992t-1.125-1.711zM9.141 5.016l-7.219 6.797q-0.938 0.844-0.938 2.156v6.047q0 0.797 0.422 1.477t1.102 1.102 1.477 0.422h13.781q0.516 0 0.867-0.375t0.352-0.891-0.352-0.891-0.867-0.375h-5.766v-0.984h7.734q0.516 0 0.891-0.375t0.375-0.891-0.375-0.867-0.891-0.352h-7.734v-1.031h8.766q0.516 0 0.867-0.352t0.352-0.867-0.352-0.891-0.867-0.375h-8.766v-0.984h6.75q0.516 0 0.891-0.375t0.375-0.891-0.375-0.891-0.891-0.375h-9.891q0.328-0.563 0.68-1.148t0.586-1.008l0.234-0.422q0.141-0.281 0.141-0.563 0-0.375-0.281-0.703l-0.164-0.164t-0.375-0.398-0.375-0.398l-0.164-0.164z"></path></svg>