<svg xmlns="http://www.w3.org/2000/svg" class="ijs-icon__svg" width="200" height="200" viewBox="0 0 24 24"><path d="M15.516 13.5q0 0.75-0.375 1.406t-0.891 1.266-0.891 1.195-0.375 1.148h-1.969q0-0.563-0.375-1.148t-0.891-1.195-0.891-1.266-0.375-1.406q0-0.984 0.492-1.758t1.266-1.266 1.758-0.492v0q0.984 0 1.758 0.492t1.266 1.266 0.492 1.758zM12.984 19.5h-1.969v1.5h1.969v-1.5zM18.984 12.984q0 1.266-0.422 2.391t-1.125 2.063l1.406 1.406q0.984-1.172 1.57-2.672t0.586-3.188q0-2.063-0.867-3.82t-2.273-3.023l-1.453 1.453q1.172 0.938 1.875 2.344t0.703 3.047zM15.984 5.016l-3.984-4.031v3q-1.875 0-3.492 0.703t-2.859 1.945-1.945 2.883-0.703 3.469q0 1.688 0.586 3.188t1.57 2.672l1.406-1.406q-0.703-0.938-1.125-2.063t-0.422-2.391q0-1.453 0.539-2.719t1.5-2.227 2.227-1.5 2.719-0.539v0 0 3z"></path></svg>