<svg xmlns="http://www.w3.org/2000/svg" class="ijs-icon__svg" width="200" height="200" viewBox="0 0 24 24"><path d="M15.984 11.016v-6h4.031q0.797 0 1.383 0.586t0.586 1.383v4.031h-6zM20.016 18.984q0.797 0 1.383-0.586t0.586-1.383v-4.031h-6v6h4.031zM14.016 5.016v13.969h-10.031q-0.797 0-1.383-0.586t-0.586-1.383v-10.031q0-0.797 0.586-1.383t1.383-0.586h10.031zM9.516 12q0-0.609-0.445-1.055t-1.055-0.445q-0.656 0-1.078 0.445t-0.422 1.055 0.422 1.055 1.078 0.445q0.609 0 1.055-0.445t0.445-1.055z"></path></svg>