<svg xmlns="http://www.w3.org/2000/svg" class="ijs-icon__svg" width="200" height="200" viewBox="0 0 24 24"><path d="M9.141 5.016l-7.219 6.797q-0.938 0.844-0.938 2.156v6.047q0 0.797 0.422 1.477t1.102 1.102 1.477 0.422h13.781q0.516 0 0.867-0.375t0.352-0.891-0.352-0.891-0.867-0.375h-5.766v-0.984h7.734q0.516 0 0.891-0.375t0.375-0.891-0.375-0.867-0.891-0.352h-7.734v-1.031h8.766q0.516 0 0.867-0.352t0.352-0.867-0.352-0.891-0.867-0.375h-8.766v-0.984h6.75q0.516 0 0.891-0.375t0.375-0.891-0.375-0.891-0.891-0.375h-9.891q0.328-0.563 0.68-1.148t0.586-1.008l0.234-0.422q0.141-0.281 0.141-0.563 0-0.375-0.281-0.703l-0.164-0.164t-0.375-0.398-0.375-0.398l-0.164-0.164zM14.016 6.234q0.281 0 0.516 0.234t0.234 0.516q0 0.328-0.234 0.539t-0.516 0.211q-0.328 0-0.539-0.211t-0.211-0.539q0-0.281 0.211-0.516t0.539-0.234zM14.016 4.734q-0.938 0-1.594 0.656t-0.656 1.594 0.656 1.594 1.594 0.656 1.594-0.656 0.656-1.594-0.656-1.594-1.594-0.656v0zM19.734 5.484q0.234 0 0.375 0.164t0.141 0.352-0.141 0.352-0.375 0.164q-0.188 0-0.328-0.164t-0.141-0.352 0.141-0.352 0.328-0.164zM19.734 3.984q-0.797 0-1.383 0.586t-0.586 1.43 0.586 1.43 1.383 0.586q0.844 0 1.43-0.586t0.586-1.43-0.586-1.43-1.43-0.586v0zM16.5 0.984q-0.609 0-1.055 0.445t-0.445 1.055q0 0.656 0.445 1.078t1.055 0.422 1.055-0.422 0.445-1.078q0-0.609-0.445-1.055t-1.055-0.445z"></path></svg>