<svg xmlns="http://www.w3.org/2000/svg" class="ijs-icon__svg" width="200" height="200" viewBox="0 0 24 24"><path d="M18.984 3h-13.969q-0.844 0-1.43 0.586t-0.586 1.43v13.969q0 0.844 0.586 1.43t1.43 0.586h13.969q0.844 0 1.43-0.586t0.586-1.43v-13.969q0-0.844-0.586-1.43t-1.43-0.586zM13.031 7.078l1.078-1.078 1.406 1.406 1.406-1.406 1.031 1.078-1.406 1.406 1.406 1.406-1.031 1.031-1.406-1.359-1.406 1.406-1.078-1.078 1.406-1.406zM6.234 7.734h5.016v1.5h-5.016v-1.5zM11.484 15.984h-1.969v2.016h-1.5v-2.016h-2.016v-1.5h2.016v-1.969h1.5v1.969h1.969v1.5zM18 17.25h-5.016v-1.5h5.016v1.5zM18 14.766h-5.016v-1.5h5.016v1.5z"></path></svg>