<svg xmlns="http://www.w3.org/2000/svg" class="ijs-icon__svg" width="200" height="200" viewBox="0 0 24 24"><path d="M15.984 14.016v-8.016q0-0.656 0.398-1.359t1.078-1.313 1.594-0.961 1.945-0.352v16.172l-2.016-2.016v-2.156h-3zM20.484 23.297l-10.453-10.453q-0.281 0.094-0.516 0.117t-0.516 0.023v9h-2.016v-9q-1.078 0-1.992-0.539t-1.453-1.43-0.539-2.016v-3.188l-2.297-2.297 1.406-1.406 19.781 19.781zM6.188 9l-1.172-1.172v1.172h1.172zM9 2.016h-2.016v2.156l2.016 2.016v-4.172zM12.984 9v-6.984h-1.969v6.141l1.828 1.875q0.094-0.281 0.117-0.516t0.023-0.516z"></path></svg>