<svg xmlns="http://www.w3.org/2000/svg" class="ijs-icon__svg" width="200" height="200" viewBox="0 0 24 24"><path d="M6.797 10.594l-1.406-1.406q0.234-0.281 0.867-0.727t1.477-0.445q0.609 0 1.055 0.211t0.773 0.445q0.469 0.328 0.703 0.328 0.281 0 0.563-0.234t0.375-0.375l1.406 1.406q-0.281 0.328-0.891 0.773t-1.453 0.445q-0.609 0-1.055-0.234t-0.773-0.422q-0.234-0.188-0.398-0.281t-0.305-0.094q-0.281 0-0.563 0.234t-0.375 0.375zM7.734 15q0.141 0 0.305 0.094t0.398 0.234q0.328 0.234 0.773 0.445t1.055 0.211q0.844 0 1.453-0.445t0.891-0.727l-1.406-1.406q-0.094 0.141-0.398 0.375t-0.539 0.234-0.703-0.328q-0.328-0.234-0.773-0.469t-1.055-0.234q-0.844 0-1.477 0.445t-0.867 0.773l1.406 1.406q0.094-0.141 0.375-0.375t0.563-0.234zM21.984 6v12q0 0.844-0.586 1.43t-1.383 0.586h-16.031q-0.797 0-1.383-0.586t-0.586-1.43v-12q0-0.844 0.586-1.43t1.383-0.586h16.031q0.797 0 1.383 0.586t0.586 1.43zM14.016 6h-10.031v12h10.031v-12zM18.984 15.984q0-0.375-0.281-0.68t-0.703-0.305-0.703 0.305-0.281 0.68q0 0.422 0.281 0.727t0.703 0.305 0.703-0.305 0.281-0.727zM18.984 12q0-0.422-0.281-0.703t-0.703-0.281-0.703 0.281-0.281 0.703 0.281 0.703 0.703 0.281 0.703-0.281 0.281-0.703zM18.984 6.984h-1.969v2.016h1.969v-2.016z"></path></svg>