<svg xmlns="http://www.w3.org/2000/svg" class="ijs-icon__svg" width="200" height="200" viewBox="0 0 24 24"><path d="M21.984 4.969q-0.047-0.094-0.469-0.398t-1.148-0.656-1.711-0.633-2.156-0.281-2.156 0.281-1.711 0.633-1.148 0.656-0.469 0.398l5.484 7.031zM20.016 15.516q-1.875 0-3.563-0.563-0.609-0.234-1.031 0.234l-2.203 2.203q-2.109-1.078-3.82-2.789t-2.789-3.82l2.203-2.203q0.422-0.422 0.234-1.031-0.563-1.688-0.563-3.563 0-0.375-0.281-0.68t-0.703-0.305h-3.516q-0.375 0-0.68 0.305t-0.305 0.68q0 2.813 0.867 5.367t2.414 4.688 3.68 3.68 4.688 2.414 5.367 0.867q0.375 0 0.68-0.305t0.305-0.68v-3.516q0-0.422-0.305-0.703t-0.68-0.281z"></path></svg>