<svg xmlns="http://www.w3.org/2000/svg" class="ijs-icon__svg" width="200" height="200" viewBox="0 0 24 24"><path d="M14.484 6.938l-1.5-1.172v-2.344q0-0.234 0.164-0.375t0.352-0.141 0.352 0.141 0.164 0.375v0.563h1.969v-0.563q0-1.031-0.727-1.734t-1.758-0.703-1.758 0.703-0.727 1.734v2.344l-1.5 1.172-3.516-0.891 5.063 15.281q0.094 0.328 0.375 0.492t0.563 0.164 0.563-0.164 0.375-0.492l5.063-15.281zM13.266 8.484l0.797 0.609 0.891-0.234-1.969 5.953v-6.516zM9.938 9.094l0.797-0.563 0.281-0.234v6.516l-1.969-5.953z"></path></svg>