<svg xmlns="http://www.w3.org/2000/svg" class="ijs-icon__svg" width="200" height="200" viewBox="0 0 24 24"><path d="M9.984 6q0-0.844 0.586-1.43t1.43-0.586 1.43 0.586 0.586 1.43-0.586 1.43-1.43 0.586-1.43-0.586-0.586-1.43zM21 15.984v-1.969q-1.688 0-3.094-0.703t-2.484-2.016l-1.359-1.594q-0.609-0.703-1.547-0.703h-1.031q-0.938 0-1.547 0.703l-1.313 1.594q-1.125 1.313-2.531 2.016t-3.094 0.703v1.969q2.063 0 3.844-0.844t3.141-2.391v2.25l-3.844 1.547q-0.516 0.188-0.82 0.656t-0.305 0.984q0 0.75 0.516 1.289t1.266 0.539h2.203v-0.516q0-1.031 0.727-1.758t1.758-0.727h3q0.234 0 0.375 0.141t0.141 0.328q0 0.234-0.141 0.375t-0.375 0.141h-3q-0.609 0-1.055 0.445t-0.445 1.055v0.516h7.219q0.75 0 1.266-0.539t0.516-1.289q0-0.516-0.305-0.984t-0.82-0.656l-3.844-1.547v-2.25q1.359 1.547 3.141 2.391t3.844 0.844z"></path></svg>