<svg xmlns="http://www.w3.org/2000/svg" class="ijs-icon__svg" width="200" height="200" viewBox="0 0 24 24"><path d="M11.813 9h0.938v0.938l1.734 1.734v-2.672h1.5v4.172l3 3v-8.156q0-0.844-0.586-1.43t-1.383-0.586h-2.016v-3q0-0.422-0.305-0.703t-0.68-0.281h-4.031q-0.375 0-0.68 0.281t-0.305 0.703v3h-0.188zM11.016 3.984h1.969v2.016h-1.969v-2.016zM21.188 21.188l-18.375-18.375-1.406 1.406 3.609 3.609v11.156q0 0.844 0.586 1.43t1.383 0.586q0 0.422 0.305 0.703t0.727 0.281q0.375 0 0.68-0.281t0.305-0.703h6q0 0.422 0.305 0.703t0.68 0.281q0.422 0 0.727-0.281t0.305-0.703q0.469 0 0.938-0.234l1.828 1.828zM8.016 18v-7.172l1.5 1.5v5.672h-1.5zM11.25 18v-3.938l1.5 1.5v2.438h-1.5zM14.484 18v-0.656l0.703 0.656h-0.703z"></path></svg>