<svg xmlns="http://www.w3.org/2000/svg" class="ijs-icon__svg" width="200" height="200" viewBox="0 0 24 24"><path d="M17.016 15l1.547 1.547q-0.516 0.844-1.383 1.547t-1.969 1.172-2.227 0.656v-8.906h3v-2.016h-3v-1.172q0.891-0.328 1.453-1.102t0.563-1.711q0-0.844-0.398-1.523t-1.078-1.078-1.523-0.398-1.523 0.398-1.078 1.078-0.398 1.523q0 0.938 0.563 1.711t1.453 1.102v1.172h-3v2.016h3v8.906q-1.125-0.188-2.227-0.656t-1.969-1.172-1.383-1.547l1.547-1.547-3.984-3v3q0 1.453 0.82 2.719t2.156 2.227 2.906 1.5 3.117 0.539 3.117-0.539 2.906-1.5 2.156-2.227 0.82-2.719v-3zM12 3.984q0.422 0 0.703 0.305t0.281 0.727q0 0.375-0.281 0.68t-0.703 0.305-0.703-0.305-0.281-0.68q0-0.422 0.281-0.727t0.703-0.305z"></path></svg>