<svg xmlns="http://www.w3.org/2000/svg" class="ijs-icon__svg" width="200" height="200" viewBox="0 0 24 24"><path d="M12 2.016q-2.063 0-3.867 0.773t-3.188 2.156-2.156 3.188-0.773 3.867 0.773 3.867 2.156 3.188 3.188 2.156 3.867 0.773 3.867-0.773 3.188-2.156 2.156-3.188 0.773-3.867-0.773-3.867-2.156-3.188-3.188-2.156-3.867-0.773zM16.922 15.469l-1.406 1.406q-0.188 0.188-0.375 0.188t-0.328-0.188l-3.422-3.375q-0.938 0.281-1.922 0.094t-1.688-0.938q-0.844-0.797-0.984-1.945t0.375-2.133l2.344 2.344 1.406-1.406-2.344-2.344q0.984-0.516 2.133-0.375t1.992 0.984q0.703 0.703 0.914 1.688t-0.117 1.922l3.422 3.422q0.141 0.141 0.141 0.328t-0.141 0.328z"></path></svg>