<svg xmlns="http://www.w3.org/2000/svg" class="ijs-icon__svg" width="200" height="200" viewBox="0 0 24 24"><path d="M9.422 6.563l2.578-2.578 8.016 8.016-2.578 2.578 1.406 1.406 2.578-2.578q0.563-0.563 0.563-1.406t-0.563-1.406l-8.016-8.016q-0.563-0.563-1.406-0.563t-1.406 0.563l-2.578 2.578zM2.813 2.813l-1.406 1.406 3.75 3.797-2.578 2.578q-0.563 0.563-0.563 1.406t0.563 1.406l8.016 8.016q0.563 0.563 1.406 0.563t1.406-0.563l2.578-2.578 3.797 3.75 1.406-1.406zM12 20.016l-8.016-8.016 2.578-2.578 1.594 1.594h-1.172v1.969h3.188l1.5 1.5-1.078 1.125 1.406 1.406 1.078-1.125 1.5 1.5zM10.922 8.109l1.078-1.125 5.016 5.016-1.078 1.078z"></path></svg>