<svg xmlns="http://www.w3.org/2000/svg" class="ijs-icon__svg" width="200" height="200" viewBox="0 0 24 24"><path d="M18 3.984h-2.016v7.922l2.016-2.016v-5.906zM3.984 3.984h2.016v16.031h-2.016v-16.031zM9.984 3.984h2.016v4.031h-2.016v-4.031zM9.984 9.984h2.016v4.031h-2.016v-4.031zM9.984 15.984h2.016v4.031h-2.016v-4.031zM22.547 12.609l-1.125-1.172q-0.469-0.422-1.078-0.422t-1.031 0.422l-5.297 5.297v3.281h3.234l5.297-5.297q0.469-0.469 0.469-1.078t-0.469-1.031zM16.594 18.469h-1.031v-1.031l3.422-3.469 1.031 1.031z"></path></svg>