<svg xmlns="http://www.w3.org/2000/svg" class="ijs-icon__svg" width="200" height="200" viewBox="0 0 24 24"><path d="M17.016 12q-1.406 0-2.531 0.68t-1.805 1.805-0.68 2.531q0 1.359 0.68 2.508t1.805 1.805 2.531 0.656q1.359 0 2.508-0.656t1.805-1.805 0.656-2.508q0-1.406-0.656-2.531t-1.805-1.805-2.508-0.68zM18.656 19.359l-2.156-2.156v-3.188h0.984v2.766l1.875 1.875zM18 3h-3.188q-0.328-0.891-1.078-1.453t-1.734-0.563-1.734 0.563-1.078 1.453h-3.188q-0.844 0-1.43 0.586t-0.586 1.43v15q0 0.797 0.586 1.383t1.43 0.586h6.094q-0.891-0.844-1.406-1.969h-4.688v-15h2.016v3h7.969v-3h2.016v5.063q1.031 0.141 2.016 0.609v-5.672q0-0.844-0.586-1.43t-1.43-0.586zM12 5.016q-0.422 0-0.703-0.305t-0.281-0.727q0-0.375 0.281-0.68t0.703-0.305 0.703 0.305 0.281 0.68q0 0.422-0.281 0.727t-0.703 0.305z"></path></svg>