<svg xmlns="http://www.w3.org/2000/svg" class="ijs-icon__svg" width="200" height="200" viewBox="0 0 24 24"><path d="M14.016 8.016v1.969h-3l-2.719-1.172-1.313 3.938v9.234h-3.984v-9.984l1.594-4.641q0.281-0.844 1.078-1.195t1.641 0.023l4.125 1.828h2.578zM8.016 0.984q-0.844 0-1.43 0.586t-0.586 1.43 0.586 1.43 1.43 0.586q0.797 0 1.383-0.586t0.586-1.43-0.586-1.43-1.383-0.586zM9 18.984h12v-1.969h-12v1.969zM19.5 15.984q0.609 0 1.055-0.422t0.445-1.078q0-0.609-0.445-1.055t-1.055-0.445-1.055 0.445-0.445 1.055q0 0.656 0.445 1.078t1.055 0.422zM12.984 12q0-0.422-0.281-0.703t-0.703-0.281h-3v1.969h2.016v1.031q0 0.797 0.586 1.383t1.383 0.586h2.016q0.844 0 1.43-0.586t0.586-1.383v-3h-2.016v1.969h-2.016v-0.984z"></path></svg>