<svg xmlns="http://www.w3.org/2000/svg" class="ijs-icon__svg" width="200" height="200" viewBox="0 0 24 24"><path d="M17.016 3.984l3.984 4.031-3.984 3.984v-3h-4.031v-2.016h4.031v-3zM9.984 6.984q-0.375 0-0.68 0.305t-0.305 0.727q0 0.375 0.305 0.68t0.68 0.305q0.422 0 0.727-0.305t0.305-0.68q0-0.422-0.305-0.727t-0.727-0.305zM6 6.984q-0.422 0-0.703 0.305t-0.281 0.727q0 0.375 0.281 0.68t0.703 0.305 0.703-0.305 0.281-0.68q0-0.422-0.281-0.727t-0.703-0.305zM6.984 17.016h4.031v-2.016h-4.031v-3l-3.984 3.984 3.984 4.031v-3zM14.016 17.016q0.375 0 0.68-0.305t0.305-0.727q0-0.375-0.305-0.68t-0.68-0.305q-0.422 0-0.727 0.305t-0.305 0.68q0 0.422 0.305 0.727t0.727 0.305zM18 17.016q0.422 0 0.703-0.305t0.281-0.727q0-0.375-0.281-0.68t-0.703-0.305-0.703 0.305-0.281 0.68q0 0.422 0.281 0.727t0.703 0.305z"></path></svg>