<svg xmlns="http://www.w3.org/2000/svg" class="ijs-icon__svg" width="200" height="200" viewBox="0 0 24 24"><path d="M11.016 14.016h-2.016q0-1.875 0.703-3.516t1.945-2.859 2.859-1.922 3.492-0.703v1.969q-1.453 0-2.719 0.563t-2.227 1.523-1.5 2.227-0.539 2.719zM18 11.016v-2.016q-1.359 0-2.508 0.68t-1.828 1.805-0.68 2.531h2.016q0-0.844 0.398-1.523t1.078-1.078 1.523-0.398zM6.984 3.984q0-0.797-0.586-1.383t-1.383-0.586q-0.844 0-1.43 0.586t-0.586 1.383q0 0.844 0.586 1.43t1.43 0.586q0.797 0 1.383-0.586t0.586-1.43zM11.438 4.5h-1.969q-0.188 1.078-1.008 1.781t-1.945 0.703h-3q-0.656 0-1.078 0.445t-0.422 1.055v2.531h6v-2.297q1.359-0.422 2.32-1.57t1.102-2.648zM18.984 17.016q0.844 0 1.43-0.586t0.586-1.43-0.586-1.43-1.43-0.586q-0.797 0-1.383 0.586t-0.586 1.43 0.586 1.43 1.383 0.586zM20.484 18h-3q-1.125 0-1.945-0.727t-1.008-1.758h-1.969q0.141 1.5 1.102 2.648t2.32 1.57v2.25h6v-2.484q0-0.609-0.422-1.055t-1.078-0.445z"></path></svg>