<svg xmlns="http://www.w3.org/2000/svg" class="ijs-icon__svg" width="200" height="200" viewBox="0 0 24 24"><path d="M6 18q0.844 0 1.43 0.586t0.586 1.43q0 0.797-0.586 1.383t-1.43 0.586-1.43-0.586-0.586-1.383q0-0.844 0.586-1.43t1.43-0.586zM18.656 3q-0.844 0-1.43 0.352t-1.008 0.82-0.75 0.844l-3.516 4.125 5.063 5.016v-7.875q0.422-0.516 0.773-0.891t0.867-0.375q0.563 0 0.961 0.422t0.398 1.031v0.516h1.969v-0.516q0-0.938-0.445-1.734t-1.195-1.266-1.688-0.469zM10.688 10.688l-7.875-7.875-1.406 1.406 7.969 7.969-2.672 3.141q-0.281 0.328-0.234 0.703t0.305 0.656 0.68 0.281h6.656l1.172 1.172q-0.563 0.188-0.914 0.703t-0.352 1.172q0 0.797 0.586 1.383t1.383 0.586q0.656 0 1.172-0.352t0.703-0.914l1.922 1.875 1.406-1.406-4.781-4.781zM13.453 5.016q0.234-0.234 0.469-0.516t0.516-0.563q-1.828-0.891-3.891-0.914t-3.891 0.773l4.219 4.266z"></path></svg>