<svg xmlns="http://www.w3.org/2000/svg" class="ijs-icon__svg" width="200" height="200" viewBox="0 0 24 24"><path d="M21 9q-0.844 0-1.43-0.586t-0.586-1.43q0-0.375 0.305-1.055t0.703-1.336 0.703-1.125l0.305-0.469 0.305 0.469t0.703 1.125 0.703 1.336 0.305 1.055q0 0.844-0.586 1.43t-1.43 0.586zM17.484 6.984q0-0.516 0.281-1.219t0.656-1.406q-1.313-1.125-2.953-1.734t-3.469-0.609q-2.063 0-3.891 0.773t-3.188 2.156-2.133 3.188-0.773 3.867 0.773 3.867 2.133 3.188 3.188 2.156 3.891 0.773 3.867-0.773 3.188-2.156 2.156-3.188 0.773-3.867q0-0.422-0.023-0.82t-0.117-0.82q-0.188 0.094-0.398 0.117t-0.445 0.023q-0.984 0-1.758-0.469t-1.266-1.266-0.492-1.781zM15.609 7.359l1.078 1.078-1.078 1.078 1.078 1.031-1.078 1.078-2.109-2.109zM7.313 8.438l1.078-1.078 2.109 2.156-2.109 2.109-1.078-1.078 1.078-1.031zM15.422 17.016q-0.516-0.891-1.406-1.453t-2.016-0.563-2.016 0.563-1.406 1.453h-1.688q0.422-1.125 1.313-2.016l-2.953-1.688q-0.75 0.422-1.5 0-0.563-0.328-0.703-0.914t0.141-1.148q0.328-0.563 0.914-0.703t1.148 0.141q0.375 0.234 0.563 0.586t0.188 0.727l3.563 2.063q1.125-0.563 2.438-0.563 1.734 0 3.117 0.984t1.992 2.531h-1.688z"></path></svg>