<svg xmlns="http://www.w3.org/2000/svg" class="ijs-icon__svg" width="200" height="200" viewBox="0 0 24 24"><path d="M15.516 14.016h-0.797l-0.281-0.281q0.75-0.844 1.148-1.945t0.398-2.273q0-1.359-0.492-2.531t-1.383-2.063-2.086-1.406-2.508-0.516q-1.734 0-3.164 0.797t-2.32 2.156-0.984 3.047h2.016q0.094-1.125 0.727-2.039t1.594-1.43 2.133-0.516q1.219 0 2.25 0.609t1.641 1.617 0.609 2.273q0 1.219-0.609 2.25t-1.641 1.641-2.25 0.609q-0.141 0-0.258-0.023t-0.258-0.023v2.016h0.516q1.172 0 2.273-0.398t1.945-1.148l0.281 0.281v0.797l4.969 4.969 1.5-1.5zM6.469 10.828l-2.484 2.484-2.438-2.484-0.75 0.703 2.484 2.484-2.484 2.438 0.75 0.75 2.438-2.484 2.484 2.484 0.703-0.75-2.484-2.438 2.484-2.484z"></path></svg>