<svg xmlns="http://www.w3.org/2000/svg" class="ijs-icon__svg" width="200" height="200" viewBox="0 0 24 24"><path d="M18.984 6.984h-9.984q-0.844 0-1.43 0.586t-0.586 1.43v9.984q0 0.844 0.586 1.43t1.43 0.586h9.984q0.844 0 1.43-0.586t0.586-1.43v-9.984q0-0.844-0.586-1.43t-1.43-0.586zM18.984 9v2.016h-9.984v-2.016h9.984zM12.984 15v-2.016h2.016v2.016h-2.016zM15 17.016v1.969h-2.016v-1.969h2.016zM11.016 15h-2.016v-2.016h2.016v2.016zM17.016 12.984h1.969v2.016h-1.969v-2.016zM9 17.016h2.016v1.969h-2.016v-1.969zM17.016 18.984v-1.969h1.969v1.969h-1.969zM6 17.016h-0.984q-0.844 0-1.43-0.586t-0.586-1.43v-9.984q0-0.844 0.586-1.43t1.43-0.586h9.984q0.844 0 1.43 0.586t0.586 1.43v0.984h-2.016v-0.984h-9.984v9.984h0.984v2.016z"></path></svg>