<svg xmlns="http://www.w3.org/2000/svg" class="ijs-icon__svg" width="200" height="200" viewBox="0 0 24 24"><path d="M15 2.016q-2.016 0-3.68 1.031t-2.555 2.719q-1.969 1.078-3 3-1.688 0.891-2.719 2.555t-1.031 3.68q0 1.453 0.539 2.719t1.5 2.227 2.227 1.5 2.719 0.539q2.016 0 3.68-1.031t2.555-2.719q1.969-1.078 3-3 1.688-0.891 2.719-2.555t1.031-3.68q0-1.453-0.539-2.719t-1.5-2.227-2.227-1.5-2.719-0.539zM9 20.016q-1.359 0-2.508-0.68t-1.828-1.828-0.68-2.508q0-0.844 0.281-1.617t0.75-1.383q0 1.453 0.539 2.719t1.5 2.227 2.227 1.5 2.719 0.539q-0.609 0.469-1.383 0.75t-1.617 0.281zM12 17.016q-1.359 0-2.508-0.68t-1.828-1.828-0.68-2.508q0-0.844 0.281-1.617t0.75-1.383q0 1.453 0.539 2.719t1.5 2.227 2.227 1.5 2.719 0.539q-0.609 0.469-1.383 0.75t-1.617 0.281zM16.688 13.688q-0.844 0.328-1.688 0.328-1.359 0-2.508-0.68t-1.828-1.828-0.68-2.508q0-0.844 0.328-1.688 0.844-0.328 1.688-0.328 1.359 0 2.508 0.68t1.828 1.828 0.68 2.508q0 0.844-0.328 1.688zM18.984 12q0-1.453-0.539-2.719t-1.5-2.227-2.227-1.5-2.719-0.539q0.609-0.469 1.383-0.75t1.617-0.281q1.359 0 2.508 0.68t1.828 1.828 0.68 2.508q0 0.844-0.281 1.617t-0.75 1.383z"></path></svg>