<svg xmlns="http://www.w3.org/2000/svg" class="ijs-icon__svg" width="200" height="200" viewBox="0 0 24 24"><path d="M19.5 12q0.703 0 1.336 0.211t1.148 0.539v-4.734q0-0.844-0.586-1.43t-1.383-0.586h-6.328l-1.031-1.078 1.406-1.406-0.703-0.703-3.563 3.516 0.75 0.75 1.406-1.406 1.031 1.031v2.297q0 0.844-0.586 1.43t-1.383 0.586h-0.563q0.703 0.797 1.125 1.805t0.422 2.18q0 0.234-0.023 0.492t-0.070 0.492h3.141q0.141-1.125 0.75-2.016t1.57-1.43 2.133-0.539zM19.5 12.984q-0.984 0-1.758 0.492t-1.266 1.266-0.492 1.758 0.492 1.758 1.266 1.266 1.758 0.492 1.758-0.492 1.266-1.266 0.492-1.758-0.492-1.758-1.266-1.266-1.758-0.492zM19.5 18q-0.609 0-1.055-0.445t-0.445-1.055 0.445-1.055 1.055-0.445 1.055 0.445 0.445 1.055-0.445 1.055-1.055 0.445zM3.984 9h5.016q0-0.844-0.586-1.43t-1.43-0.586h-3q-0.375 0-0.68 0.305t-0.305 0.727q0 0.375 0.305 0.68t0.68 0.305zM9.844 13.828l-0.188-0.469 0.938-0.375q-0.703-1.594-2.344-2.438l-0.375 0.891-0.469-0.188 0.422-0.891q-0.891-0.375-1.828-0.375-0.375 0-0.773 0.070t-0.727 0.211l0.328 0.891-0.469 0.188-0.375-0.938q-1.594 0.703-2.438 2.344l0.891 0.375-0.188 0.469-0.891-0.422q-0.375 0.891-0.375 1.828 0 0.375 0.070 0.773t0.211 0.727l0.891-0.328 0.188 0.469-0.938 0.375q0.703 1.594 2.344 2.438l0.375-0.891 0.469 0.188-0.422 0.891q0.891 0.375 1.828 0.375 0.375 0 0.773-0.070t0.727-0.211l-0.328-0.891 0.469-0.188 0.375 0.938q1.594-0.703 2.438-2.344l-0.891-0.375 0.188-0.469 0.891 0.422q0.375-0.891 0.375-1.828 0-0.375-0.070-0.773t-0.211-0.727zM7.172 17.766q-0.797 0.328-1.57 0.211t-1.406-0.586-0.961-1.219q-0.328-0.797-0.211-1.57t0.586-1.406 1.219-0.961q0.797-0.328 1.57-0.211t1.406 0.586 0.961 1.219q0.328 0.797 0.211 1.57t-0.586 1.406-1.219 0.961z"></path></svg>