<svg xmlns="http://www.w3.org/2000/svg" class="ijs-icon__svg" width="200" height="200" viewBox="0 0 24 24"><path d="M14.016 9.984v-6.703q-1.031-0.281-2.016-0.281-1.594 0-3.023 0.586t-2.555 1.664-1.781 2.578-0.656 3.375q0 4.969 8.016 11.813 8.016-6.844 8.016-11.813 0-0.328-0.023-0.609t-0.070-0.609h-5.906zM12 12.984q-0.844 0-1.43-0.586t-0.586-1.383q0-0.844 0.586-1.43t1.43-0.586 1.43 0.586 0.586 1.43q0 0.797-0.586 1.383t-1.43 0.586zM22.547 2.859l-1.406-1.406-2.156 2.156-2.109-2.156-1.406 1.406 2.109 2.156-2.109 2.109 1.406 1.406 2.109-2.109 2.156 2.109 1.406-1.406-2.156-2.109z"></path></svg>