<svg xmlns="http://www.w3.org/2000/svg" class="ijs-icon__svg" width="200" height="200" viewBox="0 0 24 24"><path d="M18.984 9h-1.547q0.281-0.422 0.422-0.938t0.141-1.078q0-1.078-0.539-1.992t-1.453-1.453-1.992-0.539q-0.469 0-0.984 0.141-0.609-0.516-1.383-0.82t-1.664-0.305q-1.406 0-2.555 0.75t-1.711 1.969q-1.172 0.375-1.945 1.406t-0.773 2.344q0 1.406 0.844 2.461t2.156 1.43v8.625h11.016v-2.016h1.969q0.844 0 1.43-0.586t0.586-1.383v-6q0-0.844-0.586-1.43t-1.43-0.586zM6.984 10.5q-0.797 0-1.383-0.586t-0.586-1.43q0-0.609 0.375-1.125t0.984-0.75l0.797-0.281 0.375-0.75q0.328-0.703 0.984-1.125t1.453-0.422q0.609 0 1.055 0.211t0.68 0.445l0.797 0.609 0.422-0.141t1.031-0.141q0.844 0 1.43 0.586t0.586 1.383h-3q-0.984 0-1.688 0.352t-1.242 0.891-0.984 1.055-0.938 0.867-1.148 0.352zM18.984 17.016h-1.969v-6h1.969v6z"></path></svg>