<svg xmlns="http://www.w3.org/2000/svg" class="ijs-icon__svg" width="200" height="200" viewBox="0 0 24 24"><path d="M18.984 0.984l-4.969 5.016v11.016l4.969-4.5v-11.531zM0.984 6v14.672q0 0.188 0.164 0.328t0.352 0.141q0.094 0 0.141-0.023t0.094-0.023q1.031-0.469 2.344-0.773t2.438-0.305q1.453 0 2.93 0.328t2.555 1.172v-15.516q-1.078-0.844-2.555-1.172t-2.93-0.328q-1.5 0-2.953 0.328t-2.578 1.172zM23.016 19.5v-13.5q-0.469-0.328-0.961-0.563t-1.055-0.422v13.5q-0.844-0.281-1.711-0.398t-1.805-0.117q-0.844 0-1.852 0.188t-1.992 0.539-1.641 0.773v2.016q0.656-0.422 1.641-0.773t1.992-0.539 1.852-0.188q1.266 0 2.484 0.234t2.297 0.797q0.094 0.047 0.234 0.047 0.188 0 0.352-0.164t0.164-0.352v-1.078z"></path></svg>