<svg xmlns="http://www.w3.org/2000/svg" class="ijs-icon__svg" width="200" height="200" viewBox="0 0 24 24"><path d="M21 14.016q0-0.422-0.305-0.727t-0.68-0.305h-2.016v2.016h2.016q0.375 0 0.68-0.305t0.305-0.68zM20.016 17.016h-2.016v1.969h2.016q0.375 0 0.68-0.281t0.305-0.703-0.305-0.703-0.68-0.281zM12 14.016h-2.016v3.984h2.016q0 0.844 0.586 1.43t1.43 0.586h3v-8.016h-3q-0.844 0-1.43 0.586t-0.586 1.43zM5.016 12.984q0-0.797 0.586-1.383t1.383-0.586h1.5q0.984 0 1.781-0.492t1.266-1.266 0.469-1.758-0.469-1.758-1.266-1.266-1.781-0.492h-3.469q-0.422 0-0.727 0.305t-0.305 0.727q0 0.375 0.305 0.68t0.727 0.305h3.469q0.656 0 1.078 0.445t0.422 1.055-0.422 1.055-1.078 0.445h-1.5q-1.078 0-1.992 0.539t-1.453 1.453-0.539 1.992q0 1.125 0.539 2.039t1.453 1.453 1.992 0.539h2.016v-2.016h-2.016q-0.797 0-1.383-0.586t-0.586-1.43z"></path></svg>