<svg xmlns="http://www.w3.org/2000/svg" class="ijs-icon__svg" width="200" height="200" viewBox="0 0 24 24"><path d="M19.5 6q-0.984 0-1.688 0.656t-0.797 1.641q-0.938-0.234-1.664-0.68t-1.5-0.773-1.852-0.328-1.852 0.328-1.5 0.773-1.664 0.68q-0.094-0.938-0.797-1.617t-1.688-0.68q-1.031 0-1.758 0.727t-0.727 1.758v0.516q0 2.25 0.586 3.75t1.57 2.414 2.109 1.336 2.25 0.469q0.75 0.469 1.641 0.75t1.828 0.281 1.828-0.281 1.641-0.75q1.125-0.047 2.25-0.469t2.109-1.336 1.57-2.414 0.586-3.75v-0.516q0-1.031-0.727-1.758t-1.758-0.727zM3.516 9v-0.516q0-0.375 0.281-0.68t0.703-0.305 0.703 0.305 0.281 0.68v3q0 0.984 0.281 1.852t0.75 1.664q-0.75-0.375-1.453-1.078t-1.125-1.898-0.422-3.023zM20.484 9q0 1.828-0.422 3.023t-1.125 1.898-1.453 1.078q0.469-0.797 0.75-1.664t0.281-1.852v-3q0-0.375 0.281-0.68t0.703-0.305 0.703 0.305 0.281 0.68v0.516zM10.688 10.5q-0.328 0.188-0.727 0.398t-0.961 0.352v-1.031q0.375-0.141 0.656-0.305t0.516-0.305q0.422-0.234 0.844-0.422t0.984-0.188 0.984 0.188 0.797 0.422q0.281 0.141 0.563 0.305t0.656 0.305v1.031q-0.563-0.141-0.961-0.352t-0.727-0.445l-0.656-0.328t-0.656-0.141-0.656 0.141-0.656 0.375z"></path></svg>