<svg xmlns="http://www.w3.org/2000/svg" class="ijs-icon__svg" width="200" height="200" viewBox="0 0 24 24"><path d="M18.984 3h-13.969q-0.844 0-1.43 0.586t-0.586 1.43v13.969q0 0.844 0.586 1.43t1.43 0.586h13.969q0.844 0 1.43-0.586t0.586-1.43v-13.969q0-0.844-0.586-1.43t-1.43-0.586zM12 18q-0.516 0-0.891-0.375t-0.375-0.891 0.375-0.891 0.891-0.375q0.563 0 0.914 0.375t0.352 0.891-0.352 0.891-0.914 0.375zM15 10.594q-0.563 0.844-1.055 1.242t-0.773 0.914q-0.141 0.234-0.188 0.492t-0.047 0.961h-1.828v-0.938t0.328-1.078q0.328-0.656 0.938-1.102t0.984-1.055q0.328-0.375 0.281-0.938t-0.445-0.984-1.195-0.422-1.219 0.492-0.563 1.008l-1.641-0.703q0.328-0.984 1.195-1.734t2.227-0.75q1.078 0 1.852 0.445t1.148 1.055q0.328 0.563 0.422 1.453t-0.422 1.641z"></path></svg>