<svg xmlns="http://www.w3.org/2000/svg" class="ijs-icon__svg" width="200" height="200" viewBox="0 0 24 24"><path d="M18.984 6.984q0-0.797-0.586-1.383t-1.383-0.586h-3v1.969h3v2.672l-3.516 4.359h-3.516v-5.016h-3.984q-1.125 0-2.016 0.539t-1.43 1.453-0.539 1.992v3h1.969q0 0.844 0.422 1.523t1.102 1.078 1.477 0.398q0.844 0 1.523-0.398t1.078-1.078 0.398-1.523h4.5l4.5-5.625v-3.375zM6.984 17.016q-0.375 0-0.68-0.305t-0.305-0.727h2.016q0 0.422-0.305 0.727t-0.727 0.305zM5.016 6h4.969v2.016h-4.969v-2.016zM18.984 12.984q-0.797 0-1.477 0.422t-1.102 1.102-0.422 1.477q0 0.844 0.422 1.523t1.102 1.078 1.477 0.398q0.844 0 1.523-0.398t1.078-1.078 0.398-1.523q0-0.797-0.398-1.477t-1.078-1.102-1.523-0.422zM18.984 17.016q-0.375 0-0.68-0.305t-0.305-0.727q0-0.375 0.305-0.68t0.68-0.305q0.422 0 0.727 0.305t0.305 0.68q0 0.422-0.305 0.727t-0.727 0.305z"></path></svg>