<svg xmlns="http://www.w3.org/2000/svg" class="ijs-icon__svg" width="200" height="200" viewBox="0 0 24 24"><path d="M18 8.016q-1.125 0-2.016 0.539t-1.43 1.43-0.539 2.016 0.539 2.016 1.43 1.43 2.016 0.539 2.016-0.539 1.43-1.43 0.539-2.016-0.539-2.016-1.43-1.43-2.016-0.539zM15.516 12q0-1.031 0.727-1.758t1.758-0.727q0.609 0 1.172 0.281l-3.375 3.375q-0.281-0.563-0.281-1.172v0zM18 14.484q-0.609 0-1.172-0.281l3.375-3.375q0.281 0.563 0.281 1.172 0 1.031-0.727 1.758t-1.758 0.727v0zM17.016 18h-10.031v-12h10.031v0.984h1.969v-3.984q0-0.844-0.586-1.43t-1.383-0.586h-10.031q-0.797 0-1.383 0.586t-0.586 1.43v18q0 0.844 0.586 1.43t1.383 0.586h10.031q0.797 0 1.383-0.586t0.586-1.43v-3.984h-1.969v0.984z"></path></svg>