<svg xmlns="http://www.w3.org/2000/svg" class="ijs-icon__svg" width="200" height="200" viewBox="0 0 24 24"><path d="M12.938 18.984h7.078v-12h-16.031v12h7.266l0.188-1.406t-0.375-1.031q-0.234-0.141-0.469 0t-0.445 0.445-0.469 0.586-0.609 0.422-0.773-0.094q-0.422-0.328-0.445-0.563t0.164-0.469 0.422-0.539 0.375-0.703-0.047-0.961q-0.047-0.328-0.422-0.352t-0.797 0-0.773-0.141-0.398-0.773q-0.047-0.375 0.188-0.563t0.539-0.281 0.539-0.234 0.234-0.422q0.047-0.281-0.094-0.492l-0.281-0.422t-0.141-0.445 0.281-0.516q0.188-0.188 0.469-0.234t0.422 0q0.328 0.141 0.609 0.422t0.586 0.539 0.633 0.375 0.703-0.117q0.328-0.188 0.234-0.492t-0.328-0.656-0.422-0.68-0.117-0.609 0.633-0.422q0.609-0.188 0.914 0.117t0.516 0.797 0.469 0.938 0.727 0.586q0.516 0.141 0.914-0.141t0.727-0.727 0.656-0.938 0.656-0.797 0.68-0.305 0.82 0.563q0.422 0.609 0.375 1.008t-0.422 0.703-0.914 0.539-1.031 0.469-0.75 0.539-0.117 0.773q0.094 0.281 0.352 0.281t0.586-0.164 0.68-0.258 0.656 0.023 0.492 0.633q0.188 0.563-0.070 0.82t-0.75 0.328-1.008 0.094-0.891 0.094-0.328 0.305q0 0.328 0.352 0.492t0.773 0.328 0.609 0.445-0.094 0.891q-0.375 0.563-0.773 0.633t-0.844-0.117-0.844-0.422-0.75-0.305-0.633 0.305q-0.281 0.422-0.141 1.055t0.281 1.242v0zM20.016 5.016q0.797 0 1.383 0.586t0.586 1.383v12q0 0.844-0.586 1.43t-1.383 0.586h-16.031q-0.797 0-1.383-0.586t-0.586-1.43v-12q0-0.797 0.586-1.383t1.383-0.586h3.188l1.828-2.016h6l1.828 2.016h3.188zM18.141 18q-0.375 0-0.609-0.234t-0.234-0.609 0.234-0.609 0.609-0.234 0.609 0.234 0.234 0.609-0.234 0.609-0.609 0.234z"></path></svg>