<svg xmlns="http://www.w3.org/2000/svg" class="ijs-icon__svg" width="200" height="200" viewBox="0 0 24 24"><path d="M17.016 11.016q0.234 0 0.492 0.023t0.492 0.070v-4.828l-7.5-3.281-7.5 3.281v4.922q0 1.688 0.563 3.281t1.57 2.93 2.391 2.273 2.977 1.313q0.422-0.094 0.82-0.234t0.773-0.328q-0.516-0.703-0.797-1.594t-0.281-1.828q0-1.688 0.797-3.047t2.156-2.156 3.047-0.797zM17.016 12.984q-1.125 0-2.039 0.539t-1.453 1.453-0.539 2.039q0 1.078 0.539 1.992t1.453 1.453 2.039 0.539q1.078 0 1.992-0.539t1.453-1.453 0.539-1.992q0-1.125-0.539-2.039t-1.453-1.453-1.992-0.539zM17.016 14.391q0.469 0 0.797 0.328t0.328 0.797q0 0.422-0.352 0.773t-0.773 0.352q-0.469 0-0.797-0.352t-0.328-0.773q0-0.469 0.328-0.797t0.797-0.328zM17.016 19.734q-0.703 0-1.289-0.305t-0.961-0.867q0-0.328 0.422-0.586t0.938-0.375 0.891-0.117q0.328 0 0.867 0.117t0.938 0.375 0.398 0.586q-0.375 0.563-0.938 0.867t-1.266 0.305z"></path></svg>