<svg xmlns="http://www.w3.org/2000/svg" class="ijs-icon__svg" width="200" height="200" viewBox="0 0 24 24"><path d="M8.672 5.859l-1.453-1.453q1.031-0.656 2.25-1.031t2.531-0.375q2.063 0 3.844 0.867t3 2.273l2.156-2.156v6h-6l2.391-2.391q-0.938-1.172-2.344-1.875t-3.047-0.703q-0.891 0-1.734 0.211t-1.594 0.633zM12.984 6.984h-1.969v1.172l1.969 2.016v-3.188zM19.781 22.594l-3-3q-1.031 0.656-2.25 1.031t-2.531 0.375q-1.875 0-3.492-0.703t-2.859-1.945-1.945-2.859-0.703-3.492q0-1.313 0.375-2.531t1.031-2.25l-3-3 1.406-1.406 18.375 18.375zM15.328 18.141l-9.469-9.469q-0.422 0.75-0.633 1.594t-0.211 1.734q0 1.453 0.539 2.719t1.5 2.227 2.227 1.5 2.719 0.539q0.891 0 1.734-0.211t1.594-0.633zM20.953 12.984h-2.016q-0.188 1.219-0.797 2.344l1.5 1.453q0.516-0.844 0.844-1.805t0.469-1.992z"></path></svg>