<svg xmlns="http://www.w3.org/2000/svg" class="ijs-icon__svg" width="200" height="200" viewBox="0 0 24 24"><path d="M12 2.016q-2.063 0-3.867 0.773t-3.188 2.156-2.156 3.188-0.773 3.867 0.773 3.867 2.156 3.188 3.188 2.156 3.867 0.773 3.867-0.773 3.188-2.156 2.156-3.188 0.773-3.867-0.773-3.867-2.156-3.188-3.188-2.156-3.867-0.773zM19.453 9.141l-2.766 1.125q-0.375-1.031-1.148-1.805t-1.805-1.148l1.125-2.766q1.594 0.609 2.789 1.805t1.805 2.789zM12 15q-0.844 0-1.523-0.398t-1.078-1.078-0.398-1.523 0.398-1.523 1.078-1.078 1.523-0.398 1.523 0.398 1.078 1.078 0.398 1.523-0.398 1.523-1.078 1.078-1.523 0.398zM9.141 4.547l1.172 2.766q-1.031 0.375-1.828 1.148t-1.172 1.852l-2.766-1.172q0.609-1.594 1.805-2.789t2.789-1.805zM4.547 14.859l2.766-1.125q0.375 1.031 1.148 1.805t1.852 1.148l-1.172 2.766q-1.594-0.609-2.789-1.805t-1.805-2.789zM14.859 19.453l-1.125-2.766q1.031-0.375 1.805-1.148t1.148-1.852l2.766 1.172q-0.609 1.594-1.805 2.789t-2.789 1.805z"></path></svg>