<svg xmlns="http://www.w3.org/2000/svg" class="ijs-icon__svg" width="200" height="200" viewBox="0 0 24 24"><path d="M21 11.203v-1.5q0-0.703-0.469-1.266l-3.938-4.734q-0.609-0.703-1.547-0.703h-12.047q-0.844 0-1.43 0.586t-0.586 1.43v7.969q0 0.844 0.586 1.43t1.43 0.586h0.188q0.328 0.891 1.078 1.453t1.734 0.563 1.734-0.563 1.078-1.453h8.391q0.281 0.891 1.055 1.453t1.758 0.563q0.844 0 1.523-0.422t1.078-1.102 0.398-1.477q0-0.984-0.563-1.758t-1.453-1.055zM18.422 9h-2.438v-2.859zM3 5.016h3.984v3.984h-3.984v-3.984zM6 15q-0.422 0-0.703-0.305t-0.281-0.68q0-0.422 0.281-0.727t0.703-0.305 0.703 0.305 0.281 0.727q0 0.375-0.281 0.68t-0.703 0.305zM9 12.984v-1.969h3v-2.016h-3v-3.984h5.016v7.969h-5.016zM20.016 15q-0.422 0-0.727-0.305t-0.305-0.68q0-0.422 0.305-0.727t0.727-0.305q0.375 0 0.68 0.305t0.305 0.727q0 0.375-0.305 0.68t-0.68 0.305zM6.984 20.016h4.031v-2.016l6 3h-4.031v2.016z"></path></svg>