<svg xmlns="http://www.w3.org/2000/svg" class="ijs-icon__svg" width="200" height="200" viewBox="0 0 24 24"><path d="M14.016 2.016h-8.016q-0.844 0-1.43 0.586t-0.586 1.383v16.031q0 0.797 0.586 1.383t1.43 0.586h12q0.844 0 1.43-0.586t0.586-1.383v-12zM12 9.984q0.844 0 1.43 0.586t0.586 1.43-0.586 1.43-1.43 0.586-1.43-0.586-0.586-1.43 0.586-1.43 1.43-0.586zM15.984 18h-7.969v-0.563q0-0.609 0.328-1.125t0.891-0.75q0.609-0.281 1.313-0.422t1.453-0.141 1.453 0.141 1.313 0.422q0.563 0.234 0.891 0.75t0.328 1.125v0.563z"></path></svg>