<svg xmlns="http://www.w3.org/2000/svg" class="ijs-icon__svg" width="200" height="200" viewBox="0 0 24 24"><path d="M23.016 8.016q0-1.641-0.703-3.070t-1.945-2.414-2.836-1.359q-1.594-0.328-3.141 0.023t-2.766 1.336-1.922 2.484h-2.719v1.969h-2.484q-0.469 0-0.867 0.281t-0.539 0.75l-2.109 6v7.969q0 0.422 0.305 0.727t0.727 0.305h0.984q0.422 0 0.703-0.305t0.281-0.727v-0.984h12v0.984q0 0.422 0.305 0.727t0.727 0.305h0.984q0.422 0 0.703-0.305t0.281-0.727v-7.688q1.828-0.844 2.93-2.555t1.102-3.727zM4.5 8.484h4.547q0.141 2.672 2.063 4.5h-8.109zM4.5 18q-0.609 0-1.055-0.445t-0.445-1.055 0.445-1.055 1.055-0.445 1.055 0.445 0.445 1.055-0.445 1.055-1.055 0.445zM15.516 18q-0.656 0-1.078-0.445t-0.422-1.055 0.422-1.055 1.078-0.445q0.609 0 1.055 0.445t0.445 1.055-0.445 1.055-1.055 0.445zM18.422 12.375l-0.375 0.188q-0.234 0.094-0.422 0.188l-0.469 0.094-0.188 0.047q-2.156 0.469-3.938-0.891-1.781-1.313-2.016-3.516v-0.938l0.047-0.188v-0.281l0.047-0.188 0.047-0.234 0.094-0.234 0.047-0.141q0.422-1.125 1.266-1.922t1.969-1.148 2.344-0.164q1.172 0.234 2.109 0.938t1.477 1.758 0.539 2.227q0 1.406-0.68 2.578t-1.898 1.828v0zM15 3.984h2.016v5.016h-2.016v-5.016zM15 9.984h2.016v2.016h-2.016v-2.016z"></path></svg>