<svg xmlns="http://www.w3.org/2000/svg" class="ijs-icon__svg" width="200" height="200" viewBox="0 0 24 24"><path d="M21.188 21.188l-18.375-18.375-1.406 1.406 2.578 2.625v9.141q0 0.656 0.281 1.242t0.75 1.008v1.781q0 0.375 0.281 0.68t0.703 0.305h0.984q0.422 0 0.727-0.305t0.305-0.68v-1.031h7.969v1.031q0 0.375 0.305 0.68t0.727 0.305h1.055t0.070-0.047l1.641 1.641zM7.5 17.016q-0.609 0-1.055-0.445t-0.445-1.055q0-0.656 0.445-1.078t1.055-0.422 1.055 0.422 0.445 1.078q0 0.609-0.445 1.055t-1.055 0.445zM6 11.016v-2.203l2.156 2.203h-2.156zM8.813 6l-3.047-3.047q1.125-0.609 2.742-0.773t3.492-0.164q1.641 0 3.094 0.141t2.555 0.539 1.734 1.195 0.633 2.109v9.984q0 0.281-0.070 0.516t-0.117 0.469l-6-5.953h4.172v-5.016h-9.188z"></path></svg>