<svg xmlns="http://www.w3.org/2000/svg" class="ijs-icon__svg" width="200" height="200" viewBox="0 0 24 24"><path d="M18.984 14.016v-8.016q0-0.844-0.586-1.43t-1.383-0.586h-14.016q-0.844 0-1.43 0.586t-0.586 1.43v8.016q0 0.797 0.586 1.383t1.43 0.586h14.016q0.797 0 1.383-0.586t0.586-1.383zM9.984 12.984q-0.797 0-1.477-0.398t-1.102-1.078-0.422-1.523q0-0.797 0.422-1.477t1.102-1.102 1.477-0.422q0.844 0 1.523 0.422t1.078 1.102 0.398 1.477q0 0.844-0.398 1.523t-1.078 1.078-1.523 0.398zM23.016 6.984v11.016q0 0.844-0.586 1.43t-1.43 0.586h-17.016v-2.016h17.016v-11.016h2.016z"></path></svg>