<svg xmlns="http://www.w3.org/2000/svg" class="ijs-icon__svg" width="200" height="200" viewBox="0 0 24 24"><path d="M9.984 3.984h4.031v4.031h-4.031v-4.031zM3.984 15.984h4.031v4.031h-4.031v-4.031zM3.984 9.984h4.031v4.031h-4.031v-4.031zM3.984 3.984h4.031v4.031h-4.031v-4.031zM14.016 12.422v-2.438h-4.031v4.031h2.438zM20.859 11.297l-1.172-1.172q-0.094-0.141-0.258-0.141t-0.305 0.141l-0.891 0.891 1.781 1.734 0.844-0.891q0.141-0.094 0.141-0.281t-0.141-0.281zM11.016 18.234v1.781h1.734l6.656-6.703-1.734-1.734zM15.984 3.984h4.031v4.031h-4.031v-4.031z"></path></svg>