<svg xmlns="http://www.w3.org/2000/svg" class="ijs-icon__svg" width="200" height="200" viewBox="0 0 24 24"><path d="M12 2.016q-2.063 0-3.867 0.773t-3.188 2.156-2.156 3.188-0.773 3.867 0.773 3.867 2.156 3.188 3.188 2.156 3.867 0.773 3.867-0.773 3.188-2.156 2.156-3.188 0.773-3.867-0.773-3.867-2.156-3.188-3.188-2.156-3.867-0.773zM13.5 6q0.422 0 0.703 0.305t0.281 0.68q0 0.422-0.281 0.727t-0.703 0.305-0.703-0.305-0.281-0.727q0-0.375 0.281-0.68t0.703-0.305zM15.984 12q-0.516 0-1.359-0.422t-1.547-1.359l-0.375 2.391 1.313 1.406v3.984h-1.031v-3.563l-1.078-1.219-0.516 2.625-3.797-0.75 0.188-0.984 2.813 0.563 0.938-4.875-1.547 0.563v1.641h-0.984v-2.344l3.281-1.219q0.375-0.141 0.727 0.023t0.539 0.492q0.422 0.844 0.914 1.289t0.914 0.609 0.609 0.164v0.984z"></path></svg>