<svg xmlns="http://www.w3.org/2000/svg" class="ijs-icon__svg" width="200" height="200" viewBox="0 0 24 24"><path d="M21.984 12q0-2.063-0.773-3.867t-2.156-3.188-3.188-2.156-3.867-0.773-3.867 0.773-3.188 2.156-2.156 3.188-0.773 3.867 0.773 3.867 2.156 3.188 3.188 2.156 3.867 0.773 3.867-0.773 3.188-2.156 2.156-3.188 0.773-3.867zM5.719 7.078l11.203 11.203q-2.016 1.734-4.922 1.734-1.641 0-3.094-0.633t-2.555-1.734-1.734-2.555-0.633-3.094q0-2.906 1.734-4.922zM20.016 12q0 2.906-1.734 4.922l-11.203-11.203q2.016-1.734 4.922-1.734 1.641 0 3.094 0.633t2.555 1.734 1.734 2.555 0.633 3.094z"></path></svg>