<svg xmlns="http://www.w3.org/2000/svg" class="ijs-icon__svg" width="200" height="200" viewBox="0 0 24 24"><path d="M21.984 9.984v-9h-7.969v9q0 1.406 0.844 2.461t2.156 1.43v7.125h-2.016v2.016h6v-2.016h-2.016v-7.125q1.313-0.375 2.156-1.43t0.844-2.461zM20.016 3v3h-4.031v-3h4.031zM12.516 11.484q0 1.031-0.75 1.781t-1.781 0.75h-1.969v9h-2.016v-9h-2.016q-1.031 0-1.758-0.75t-0.727-1.781 0.727-1.758 1.758-0.727h2.016v-0.984h-2.016q-1.031 0-1.758-0.75t-0.727-1.781 0.727-1.758 1.758-0.727h2.016v-2.016h2.016v2.016h1.969q1.031 0 1.781 0.727t0.75 1.758-0.75 1.781-1.781 0.75h-1.969v0.984h1.969q1.031 0 1.781 0.727t0.75 1.758z"></path></svg>