<svg xmlns="http://www.w3.org/2000/svg" class="ijs-icon__svg" width="200" height="200" viewBox="0 0 24 24"><path d="M20.016 6h-8.016l-2.016-2.016h-6q-0.797 0-1.383 0.586t-0.586 1.43v12q0 0.844 0.586 1.43t1.383 0.586h16.031q0.797 0 1.383-0.586t0.586-1.43v-9.984q0-0.844-0.586-1.43t-1.383-0.586zM7.828 15.984l-2.813-2.813 1.406-1.406 1.406 1.406 3.516-3.563 1.406 1.453zM17.391 12.984l1.594 1.594-1.406 1.406-1.594-1.594-1.594 1.594-1.406-1.406 1.594-1.594-1.594-1.594 1.406-1.406 1.594 1.594 1.594-1.594 1.406 1.406z"></path></svg>