<svg xmlns="http://www.w3.org/2000/svg" class="ijs-icon__svg" width="200" height="200" viewBox="0 0 24 24"><path d="M21.188 21.188l-18.375-18.375-1.406 1.406 3.75 3.797h-1.172l1.031 9.984h0.984q0 1.125 0.539 2.016t1.453 1.43 1.992 0.539q1.125 0 2.039-0.539t1.453-1.43 0.539-2.016v-1.172l5.766 5.766 1.406-1.406zM12 18q0 0.844-0.586 1.43t-1.43 0.586q-0.797 0-1.383-0.586t-0.586-1.43h0.984l0.563-5.625 2.438 2.438v3.188zM14.016 6v5.156l-2.016-1.969v-3.188q0-1.125 0.539-2.016t1.453-1.43 1.992-0.539q1.125 0 2.039 0.539t1.453 1.43 0.539 2.016v11.156l-2.016-1.969v-9.188q0-0.844-0.586-1.43t-1.43-0.586q-0.797 0-1.383 0.586t-0.586 1.43zM9.984 5.016q0 0.469-0.141 0.867t-0.375 0.773l-4.125-4.125q0.75-0.516 1.641-0.516 0.844 0 1.523 0.398t1.078 1.078 0.398 1.523z"></path></svg>