<svg xmlns="http://www.w3.org/2000/svg" class="ijs-icon__svg" width="200" height="200" viewBox="0 0 24 24"><path d="M15.984 3.984q0-0.797 0.586-1.383t1.43-0.586 1.43 0.586 0.586 1.383q0 0.844-0.586 1.43t-1.43 0.586-1.43-0.586-0.586-1.43zM20.766 7.594q-0.609-0.281-1.313-0.445t-1.453-0.164q-0.984 0-1.922 0.281 0.938 0.891 0.938 2.156v0.563h4.969v-0.563q0-0.609-0.328-1.102t-0.891-0.727zM6 6q0.844 0 1.43-0.586t0.586-1.43q0-0.797-0.586-1.383t-1.43-0.586-1.43 0.586-0.586 1.383q0 0.844 0.586 1.43t1.43 0.586zM7.922 7.266q-0.938-0.281-1.922-0.281-0.75 0-1.453 0.164t-1.313 0.445q-0.563 0.234-0.891 0.727t-0.328 1.102v0.563h4.969v-0.563q0-1.266 0.938-2.156zM9.984 3.984q0-0.797 0.586-1.383t1.43-0.586 1.43 0.586 0.586 1.383q0 0.844-0.586 1.43t-1.43 0.586-1.43-0.586-0.586-1.43zM15.984 9.984h-7.969v-0.563q0-0.609 0.328-1.102t0.891-0.727q0.609-0.281 1.313-0.445t1.453-0.164 1.453 0.164 1.313 0.445q0.563 0.234 0.891 0.727t0.328 1.102v0.563zM15 15.984q0-0.797 0.586-1.383t1.43-0.586q0.797 0 1.383 0.586t0.586 1.383q0 0.844-0.586 1.43t-1.383 0.586q-0.844 0-1.43-0.586t-0.586-1.43zM21 21.984h-8.016v-0.563q0-0.609 0.352-1.102t0.867-0.727q0.656-0.281 1.359-0.445t1.453-0.164 1.43 0.164 1.336 0.445q0.563 0.234 0.891 0.727t0.328 1.102v0.563zM5.016 15.984q0-0.797 0.586-1.383t1.383-0.586q0.844 0 1.43 0.586t0.586 1.383q0 0.844-0.586 1.43t-1.43 0.586q-0.797 0-1.383-0.586t-0.586-1.43zM11.016 21.984h-8.016v-0.563q0-0.609 0.328-1.102t0.891-0.727q0.656-0.281 1.336-0.445t1.43-0.164 1.453 0.164 1.359 0.445q0.516 0.234 0.867 0.727t0.352 1.102v0.563zM12.75 12.984v-1.969h-1.5v1.969h-2.25l3 3 3-3h-2.25z"></path></svg>