<svg xmlns="http://www.w3.org/2000/svg" class="ijs-icon__svg" width="200" height="200" viewBox="0 0 24 24"><path d="M18.938 2.016q-0.188-0.469-0.563-0.75t-0.891-0.281h-10.969q-0.516 0-0.891 0.281t-0.563 0.75l-2.063 6v7.969q0 0.422 0.305 0.727t0.68 0.305h1.031q0.375 0 0.68-0.305t0.305-0.727v-0.984h12v0.984q0 0.422 0.305 0.727t0.68 0.305h1.031q0.375 0 0.68-0.305t0.305-0.727v-7.969zM6.516 12q-0.656 0-1.078-0.445t-0.422-1.055 0.422-1.055 1.078-0.445q0.609 0 1.055 0.445t0.445 1.055-0.445 1.055-1.055 0.445zM17.484 12q-0.609 0-1.055-0.445t-0.445-1.055 0.445-1.055 1.055-0.445q0.656 0 1.078 0.445t0.422 1.055-0.422 1.055-1.078 0.445zM5.016 6.984l1.5-4.5h10.969l1.5 4.5h-13.969zM6.984 20.016h4.031v-2.016l6 3h-4.031v2.016z"></path></svg>