<svg xmlns="http://www.w3.org/2000/svg" class="ijs-icon__svg" width="200" height="200" viewBox="0 0 24 24"><path d="M14.484 14.203l2.906 1.688-0.797 1.313-3.609-2.203v-5.016h1.5v4.219zM21.984 14.016q0 1.641-0.609 3.094t-1.711 2.555-2.555 1.711-3.094 0.609q-1.547 0-2.883-0.516t-2.414-1.453h-4.734q-0.844 0-1.406-0.586t-0.563-1.43v-9q0-0.844 0.586-1.406t1.383-0.609v-0.469q0-1.266 0.609-2.273t1.641-1.617 2.25-0.609q1.172 0 2.156 0.539t1.594 1.453 0.703 2.086q0.563-0.094 1.078-0.094 1.641 0 3.094 0.633t2.555 1.734 1.711 2.531 0.609 3.117zM6 6.984h5.016v-0.703q-0.094-0.984-0.82-1.641t-1.711-0.656q-1.031 0-1.758 0.75t-0.727 1.781v0.469zM20.016 14.016q0-1.688-0.82-3.047t-2.18-2.156-3-0.797q-1.688 0-3.047 0.797t-2.156 2.156-0.797 3.047q0 1.641 0.797 3t2.156 2.18 3.047 0.82q1.641 0 3-0.82t2.18-2.18 0.82-3z"></path></svg>