<svg xmlns="http://www.w3.org/2000/svg" class="ijs-icon__svg" width="200" height="200" viewBox="0 0 24 24"><path d="M6.047 3.188q0.844-0.563 1.828-0.867t2.109-0.305q1.5 0 2.766 0.539t2.227 1.477 1.5 2.227 0.539 2.742q0 1.969-1.078 3.891 0 0.047-0.023 0.070l-0.070 0.070-1.453-1.5q0.609-1.313 0.609-2.531 0-1.406-0.656-2.531t-1.805-1.805-2.555-0.68q-0.656 0-1.289 0.188t-1.195 0.516zM17.203 14.391l1.453 1.406q1.078-1.406 1.711-3.141t0.633-3.656q0-2.297-0.867-4.289t-2.367-3.492l-1.406 1.406q1.219 1.219 1.922 2.859t0.703 3.516q0 1.5-0.469 2.883t-1.313 2.508zM9.984 6.516q-0.281 0-0.563 0.047l3 3.047q0.094-0.328 0.094-0.609 0-1.031-0.75-1.758t-1.781-0.727zM21.188 21.188l-18.375-18.375-1.406 1.406 2.109 2.109q-0.234 0.609-0.375 1.289t-0.141 1.383h2.016q0-0.281 0.023-0.539t0.070-0.492l6.609 6.609q-0.656 0.469-1.266 1.125t-0.984 1.734q-0.375 1.125-0.773 1.617t-0.961 0.773q-0.281 0.188-0.75 0.188-0.797 0-1.383-0.586t-0.586-1.43h-2.016q0 1.125 0.539 2.016t1.453 1.43 1.992 0.539q0.891 0 1.641-0.328 1.031-0.516 1.664-1.359t1.102-2.203q0.234-0.75 0.656-1.172t1.031-0.891q0.047 0 0.047-0.023t0.047-0.023l6.609 6.609z"></path></svg>