<svg xmlns="http://www.w3.org/2000/svg" class="ijs-icon__svg" width="200" height="200" viewBox="0 0 24 24"><path d="M12.984 10.172l-2.484-2.484v-5.438q0-0.516 0.375-0.891t0.891-0.375 0.867 0.375 0.352 0.891v7.922zM20.016 12.75v-7.5q0-0.516-0.375-0.891t-0.891-0.375-0.891 0.375-0.375 0.891v5.766h-0.984v-7.781q0-0.516-0.375-0.867t-0.891-0.352-0.867 0.352-0.352 0.867v7.922l6 6v-4.406zM9.516 4.266q0-0.516-0.375-0.891t-0.891-0.375-0.867 0.352-0.352 0.82l2.484 2.484v-2.391zM12.984 10.172l-2.484-2.484v-5.438q0-0.516 0.375-0.891t0.891-0.375 0.867 0.375 0.352 0.891v7.922zM20.016 12.75v-7.5q0-0.516-0.375-0.891t-0.891-0.375-0.891 0.375-0.375 0.891v5.766h-0.984v-7.781q0-0.516-0.375-0.867t-0.891-0.352-0.867 0.352-0.352 0.867v7.922l6 6v-4.406zM9.516 4.266q0-0.516-0.375-0.891t-0.891-0.375-0.867 0.352-0.352 0.82l2.484 2.484v-2.391zM21.188 21.188l-18.375-18.375-1.406 1.406 5.625 5.625h-0.047v4.266q-0.563-0.281-1.148-0.633t-1.008-0.586l-0.422-0.234q-0.281-0.141-0.563-0.141-0.375 0-0.703 0.234 0 0.047-0.164 0.211t-0.398 0.375-0.398 0.375l-0.164 0.164 6.797 7.172q0.891 0.938 2.156 0.938h6.047q0.891 0 1.641-0.516h-0.047l1.172 1.125z"></path></svg>