<svg xmlns="http://www.w3.org/2000/svg" class="ijs-icon__svg" width="200" height="200" viewBox="0 0 24 24"><path d="M21 15v-2.016h-3.047q-0.094-0.609-0.234-1.125l2.578-1.5-0.984-1.734-2.391 1.359-0.469-0.656t-0.516-0.609q0-0.188 0.023-0.352t0.023-0.352q0-1.219-0.656-2.203l1.688-1.641-1.406-1.406-1.734 1.734q-0.844-0.469-1.57-0.492t-1.289 0.141-0.891 0.352l-1.734-1.734-1.406 1.406 1.688 1.641q-0.656 0.984-0.656 2.203 0 0.188 0.023 0.352t0.023 0.352q-0.563 0.609-0.984 1.266l-2.391-1.359-0.984 1.734 2.578 1.5q-0.141 0.516-0.234 1.125h-3.047v2.016h3.047q0.094 0.609 0.234 1.125l-2.578 1.5 0.984 1.734 2.391-1.359q0.797 1.359 2.086 2.18t2.836 0.82 2.836-0.82 2.086-2.18l2.391 1.359 0.984-1.734-2.578-1.453q0.141-0.563 0.234-1.172h3.047zM12.984 17.016h-1.969v-6h1.969v6z"></path></svg>