<svg xmlns="http://www.w3.org/2000/svg" class="ijs-icon__svg" width="200" height="200" viewBox="0 0 24 24"><path d="M18.984 5.016q0-0.844-0.586-1.43t-1.383-0.586h-3v2.016h3v2.625l-3.516 4.359h-3.516v-5.016h-3.984q-1.125 0-2.016 0.539t-1.43 1.453-0.539 2.039v3h1.969q0 0.797 0.422 1.477t1.102 1.102 1.477 0.422q0.844 0 1.523-0.422t1.078-1.102 0.398-1.477h4.5l4.5-5.672v-3.328zM6.984 15q-0.375 0-0.68-0.305t-0.305-0.68h2.016q0 0.375-0.305 0.68t-0.727 0.305zM5.016 3.984h4.969v2.016h-4.969v-2.016zM18.984 11.016q-0.797 0-1.477 0.398t-1.102 1.078-0.422 1.523q0 0.797 0.422 1.477t1.102 1.102 1.477 0.422q0.844 0 1.523-0.422t1.078-1.102 0.398-1.477q0-0.844-0.398-1.523t-1.078-1.078-1.523-0.398zM18.984 15q-0.375 0-0.68-0.305t-0.305-0.68q0-0.422 0.305-0.727t0.68-0.305q0.422 0 0.727 0.305t0.305 0.727q0 0.375-0.305 0.68t-0.727 0.305zM6.984 20.016h4.031v-2.016l6 3h-4.031v2.016z"></path></svg>