<svg xmlns="http://www.w3.org/2000/svg" class="ijs-icon__svg" width="200" height="200" viewBox="0 0 24 24"><path d="M4.5 3.984q0-0.797 0.586-1.383t1.43-0.586q0.797 0 1.383 0.586t0.586 1.383q0 0.844-0.586 1.43t-1.383 0.586q-0.844 0-1.43-0.586t-0.586-1.43zM9.984 10.969v-1.969q0-0.844-0.586-1.43t-1.383-0.586h-3q-0.844 0-1.43 0.586t-0.586 1.43v6h2.016v6.984h3.469v-0.094q-0.938-0.938-1.453-2.203t-0.516-2.672q0-1.969 0.961-3.563t2.508-2.484zM16.5 17.016q0 0.797-0.398 1.477t-1.078 1.102-1.523 0.422-1.523-0.422-1.078-1.102-0.398-1.477q0-0.844 0.422-1.523t1.078-1.055v-2.156q-1.5 0.469-2.508 1.758t-1.008 2.977q0 1.359 0.68 2.508t1.828 1.805 2.508 0.656 2.508-0.656 1.828-1.805 0.68-2.508h-2.016zM19.547 14.016h-4.547v-6h-2.016v7.969h5.484l2.484 3.703 1.641-1.078z"></path></svg>