<svg xmlns="http://www.w3.org/2000/svg" class="ijs-icon__svg" width="200" height="200" viewBox="0 0 24 24"><path d="M18.984 17.016v-2.016h2.016v2.016h-2.016zM18.984 21v-2.016h2.016v2.016h-2.016zM12.984 3v8.016h8.016v1.969h-8.016v8.016h-1.969v-8.016h-8.016v-1.969h8.016v-8.016h1.969zM15 21v-2.016h2.016v2.016h-2.016zM18.984 3h2.016v2.016h-2.016v-2.016zM18.984 9v-2.016h2.016v2.016h-2.016zM17.016 3v2.016h-2.016v-2.016h2.016zM5.016 3v2.016h-2.016v-2.016h2.016zM9 3v2.016h-2.016v-2.016h2.016zM3 17.016v-2.016h2.016v2.016h-2.016zM5.016 6.984v2.016h-2.016v-2.016h2.016zM6.984 21v-2.016h2.016v2.016h-2.016zM3 21v-2.016h2.016v2.016h-2.016z"></path></svg>