<svg xmlns="http://www.w3.org/2000/svg" class="ijs-icon__svg" width="200" height="200" viewBox="0 0 24 24"><path d="M21.984 6.984v9q0 0.844-0.586 1.43t-1.383 0.586h-14.016l-3.984 3.984v-18q0-0.797 0.586-1.383t1.383-0.586h10.125q-0.047 0.234-0.070 0.492t-0.023 0.492q0 1.359 0.656 2.508t1.805 1.828 2.508 0.68q0.844 0 1.617-0.281t1.383-0.75zM15.984 3q0 0.844 0.422 1.523t1.102 1.078 1.477 0.398q0.844 0 1.523-0.398t1.078-1.078 0.398-1.523-0.398-1.523-1.078-1.078-1.523-0.398q-0.797 0-1.477 0.398t-1.102 1.078-0.422 1.523z"></path></svg>