<svg xmlns="http://www.w3.org/2000/svg" class="ijs-icon__svg" width="200" height="200" viewBox="0 0 24 24"><path d="M21.656 18.188l-5.297-5.297h-0.984l-2.531 2.531v0.984l5.297 5.297q0.281 0.281 0.703 0.281t0.703-0.281l2.109-2.109q0.328-0.281 0.328-0.703t-0.328-0.703zM17.344 10.172l1.406-1.406 2.109 2.156q0.609-0.609 0.797-1.383t0-1.523-0.797-1.359l-3.516-3.516-1.406 1.406v-2.859l-0.703-0.703-3.563 3.563 0.703 0.703h2.859l-1.406 1.406 1.031 1.078-2.859 2.859-4.172-4.125v-1.406l-3-3-2.813 2.813 3 3.047h1.406l4.125 4.125-0.844 0.844h-2.109l-5.297 5.297q-0.281 0.281-0.281 0.703t0.281 0.703l2.109 2.109q0.328 0.281 0.727 0.281t0.68-0.281l5.297-5.297v-2.109l5.156-5.156z"></path></svg>