<svg xmlns="http://www.w3.org/2000/svg" class="ijs-icon__svg" width="200" height="200" viewBox="0 0 24 24"><path d="M9 12q0-1.219 0.891-2.109t2.109-0.891 2.109 0.891 0.891 2.109-0.891 2.109-2.109 0.891-2.109-0.891-0.891-2.109zM5.531 8.438l1.781 1.781-1.781 1.781 1.781 1.781-1.781 1.781-3.516-3.563zM8.438 18.469l1.781-1.781 1.781 1.781 1.781-1.781 1.781 1.781-3.563 3.516zM18.469 15.563l-1.781-1.781 1.781-1.781-1.781-1.781 1.781-1.781 3.516 3.563zM15.563 5.531l-1.781 1.781-1.781-1.781-1.781 1.781-1.781-1.781 3.563-3.516z"></path></svg>