<svg xmlns="http://www.w3.org/2000/svg" class="ijs-icon__svg" width="200" height="200" viewBox="0 0 24 24"><path d="M21.984 12l-3.984 3.984-1.406-1.406 1.594-1.594h-5.25q-0.234 2.344-1.57 4.195t-3.352 2.883q-0.047 0.797-0.445 1.477t-1.078 1.078-1.477 0.398q-0.844 0-1.523-0.422t-1.078-1.102-0.398-1.477q0-0.844 0.398-1.523t1.078-1.078 1.523-0.398q0.703 0 1.313 0.305t0.984 0.82q1.453-0.75 2.414-2.109t1.195-3.047h-3.094q-0.328 0.891-1.102 1.453t-1.711 0.563q-0.844 0-1.523-0.398t-1.078-1.078-0.398-1.523 0.398-1.523 1.078-1.078 1.523-0.398q0.938 0 1.711 0.563t1.102 1.453h3.094q-0.234-1.688-1.195-3.023t-2.414-2.133q-0.375 0.516-0.984 0.82t-1.313 0.305q-0.844 0-1.523-0.398t-1.078-1.078-0.398-1.523q0-0.797 0.398-1.477t1.078-1.102 1.523-0.422q0.797 0 1.477 0.398t1.078 1.078 0.398 1.477q2.016 1.031 3.352 2.883t1.617 4.195h5.203l-1.547-1.594 1.406-1.406z"></path></svg>