<svg xmlns="http://www.w3.org/2000/svg" class="ijs-icon__svg" width="200" height="200" viewBox="0 0 24 24"><path d="M6.984 18.984q-0.797 0-1.383 0.586t-0.586 1.43h13.969q0-0.844-0.586-1.43t-1.383-0.586h-4.031v-1.969h3q0.844 0 1.43-0.586t0.586-1.43h-8.016q-0.797 0-1.477-0.398t-1.102-1.078-0.422-1.523q0-0.797 0.422-1.477t1.031-1.102q-0.422-0.609-0.422-1.406 0-0.188 0.023-0.328t0.070-0.328q-1.359 0.563-2.227 1.828t-0.867 2.813q0 1.359 0.656 2.508t1.805 1.828 2.508 0.68v1.969h-3zM10.547 5.531q1.031 0 1.734 0.727t0.703 1.758q0 0.563-0.211 1.031t-0.633 0.844l0.609 1.594 0.938-0.328 0.328 0.938 1.875-0.703-0.328-0.938 0.938-0.328-2.719-7.547-0.984 0.375-0.328-0.938-1.875 0.656 0.328 0.938-0.938 0.375zM9 8.016q0-0.656 0.445-1.078t1.055-0.422 1.055 0.422 0.445 1.078q0 0.609-0.445 1.055t-1.055 0.445-1.055-0.445-0.445-1.055z"></path></svg>