<svg xmlns="http://www.w3.org/2000/svg" class="ijs-icon__svg" width="200" height="200" viewBox="0 0 24 24"><path d="M16.969 5.016l0.656 1.359 1.359 0.609-1.359 0.656-0.656 1.359-0.609-1.359-1.359-0.656 1.359-0.609zM11.016 6.141v-2.156h1.969q0.844 0 1.547 0.469l1.453-1.453q-0.609-0.469-1.383-0.727t-1.617-0.258h-5.484v1.969h1.5v2.156q-1.313 0.281-2.32 1.172t-1.43 2.203h3.984l5.766 2.156v-0.656q0-1.219-0.516-2.227t-1.43-1.711-2.039-0.938zM0.984 21.984h4.031v-10.969h-4.031v10.969zM20.016 17.016h-7.031l-2.063-0.75 0.328-0.938 1.734 0.656h2.813q0.516 0 0.867-0.328t0.352-0.844v0q0-0.797-0.797-1.125l-7.266-2.672h-1.969v9l7.031 1.969 7.969-3q0-0.797-0.586-1.383t-1.383-0.586zM20.016 14.016q0.797 0 1.383-0.586t0.586-1.43q0-0.422-0.305-1.078t-0.68-1.336-0.68-1.125l-0.305-0.445-0.305 0.445t-0.703 1.125-0.703 1.336-0.305 1.078q0 0.844 0.586 1.43t1.43 0.586z"></path></svg>