<svg xmlns="http://www.w3.org/2000/svg" class="ijs-icon__svg" width="200" height="200" viewBox="0 0 24 24"><path d="M10.922 8.109l-3.422-3.469 1.5-1.641h6l1.828 2.016h3.188q0.797 0 1.383 0.586t0.586 1.383v12.188l-5.109-5.109q0.141-0.516 0.141-1.078 0-1.359-0.68-2.508t-1.828-1.805-2.508-0.656q-0.516 0-1.078 0.094zM20.484 23.297l-2.297-2.297h-14.203q-0.797 0-1.383-0.586t-0.586-1.43v-12q0-0.422 0.188-0.82t0.469-0.633l-1.969-2.016 1.406-1.406 19.781 19.781zM14.484 17.297l-1.5-1.5q-0.234 0.094-0.469 0.141t-0.516 0.047q-0.844 0-1.523-0.398t-1.078-1.078-0.398-1.523q0-0.234 0.047-0.492t0.141-0.492l-1.5-1.5q-0.703 1.172-0.703 2.484 0 1.406 0.68 2.531t1.828 1.805 2.508 0.68q0.703 0 1.313-0.188t1.172-0.516z"></path></svg>