<svg xmlns="http://www.w3.org/2000/svg" class="ijs-icon__svg" width="200" height="200" viewBox="0 0 24 24"><path d="M21 12v-2.016h-2.016v-3l-3-3-1.969 2.016-2.016-2.016-2.016 2.016-1.969-2.016-3 3v3h-2.016v2.016h2.016v2.016h-2.016v1.969h2.016v4.031h13.969v-4.031h2.016v-1.969h-2.016v-2.016h2.016zM15.984 6.844l1.031 0.984v2.156h-2.016v-2.156l0.422-0.422zM12 6.844l0.609 0.563 0.375 0.422v2.156h-1.969v-2.156l0.375-0.422zM11.016 14.016v-2.016h1.969v2.016h-1.969zM12.984 15.984v2.016h-1.969v-2.016h1.969zM6.984 7.828l1.031-0.984 0.984 0.984v2.156h-2.016v-2.156zM6.984 12h2.016v2.016h-2.016v-2.016zM6.984 15.984h2.016v2.016h-2.016v-2.016zM17.016 18h-2.016v-2.016h2.016v2.016zM17.016 14.016h-2.016v-2.016h2.016v2.016z"></path></svg>