<svg xmlns="http://www.w3.org/2000/svg" class="ijs-icon__svg" width="200" height="200" viewBox="0 0 24 24"><path d="M13.5 5.484q0.844 0 1.43-0.586t0.586-1.383q0-0.844-0.586-1.43t-1.43-0.586-1.43 0.586-0.586 1.43q0 0.797 0.586 1.383t1.43 0.586zM20.016 12.516v10.5h-1.031v-10.5q0-0.234-0.141-0.375t-0.328-0.141q-0.234 0-0.375 0.141t-0.141 0.375v0.984h-0.984v-0.703q-1.125-0.281-2.016-0.938t-1.5-1.547q-0.234 0.609-0.375 1.289t-0.141 1.383q0 0.188 0.023 0.352t0.023 0.352l1.969 2.813v6.516h-2.016v-5.016l-1.781-2.531-0.188 3.516-3 4.031-1.594-1.219 2.578-3.469v-5.344q0-0.844 0.141-1.688t0.375-1.688l-1.5 0.844v3.563h-2.016v-4.734l5.391-3.047q0.469-0.234 0.984-0.234t0.984 0.281q0.516 0.281 0.797 0.844v0l0.797 1.688q0.469 0.938 1.43 1.57t2.133 0.633q0.609 0 1.055 0.422t0.445 1.078z"></path></svg>