<svg xmlns="http://www.w3.org/2000/svg" class="ijs-icon__svg" width="200" height="200" viewBox="0 0 24 24"><path d="M12 2.016q-2.063 0-3.867 0.773t-3.188 2.156-2.156 3.188-0.773 3.867 0.773 3.867 2.156 3.188 3.188 2.156 3.867 0.773 3.867-0.773 3.188-2.156 2.156-3.188 0.773-3.867-0.773-3.867-2.156-3.188-3.188-2.156-3.867-0.773zM9 12q-0.422 0-0.703-0.305t-0.281-0.68v-3q0-0.422 0.281-0.727t0.703-0.305 0.703 0.305 0.281 0.727v3q0 0.375-0.281 0.68t-0.703 0.305zM14.016 18h-4.031v-2.016q0-0.797 0.586-1.383t1.43-0.586 1.43 0.586 0.586 1.383v2.016zM15.984 11.016q0 0.375-0.281 0.68t-0.703 0.305-0.703-0.305-0.281-0.68v-3q0-0.422 0.281-0.727t0.703-0.305 0.703 0.305 0.281 0.727v3z"></path></svg>