<svg xmlns="http://www.w3.org/2000/svg" class="ijs-icon__svg" width="200" height="200" viewBox="0 0 24 24"><path d="M20.859 20.859l-17.719-17.719-1.266 1.313 1.922 1.875q-0.844 1.219-1.313 2.648t-0.469 3.023q0 2.063 0.773 3.867t2.156 3.188 3.188 2.156 3.867 0.773q1.594 0 3.023-0.469t2.648-1.266l1.875 1.875zM12 20.016q-1.641 0-3.094-0.633t-2.555-1.734-1.734-2.555-0.633-3.094q0-1.172 0.328-2.25t0.891-1.969l1.5 1.453q-0.328 0.609-0.516 1.313t-0.188 1.453q0 1.641 0.82 3t2.18 2.18 3 0.82q0.75 0 1.453-0.188t1.313-0.516l1.453 1.5q-0.891 0.563-1.969 0.891t-2.25 0.328zM6.328 3.75q1.219-0.797 2.648-1.266t3.023-0.469q2.063 0 3.867 0.773t3.188 2.156 2.156 3.188 0.773 3.867q0 1.594-0.469 3.023t-1.266 2.648l-1.453-1.453q0.563-0.891 0.891-1.969t0.328-2.25q0-1.641-0.633-3.094t-1.734-2.555-2.555-1.734-3.094-0.633q-1.172 0-2.25 0.328t-1.969 0.891zM18 12q0 0.75-0.188 1.453t-0.516 1.313l-8.063-8.063q0.609-0.328 1.313-0.516t1.453-0.188q1.641 0 3 0.82t2.18 2.18 0.82 3z"></path></svg>