<svg xmlns="http://www.w3.org/2000/svg" class="ijs-icon__svg" width="200" height="200" viewBox="0 0 24 24"><path d="M17.016 5.016h-2.016v-2.016h2.016v2.016zM15 21h2.016v-2.578l2.578 2.578 1.406-1.406-2.578-2.578h2.578v-2.016h-6v6zM18.984 9h2.016v-2.016h-2.016v2.016zM18.984 12.984h2.016v-1.969h-2.016v1.969zM11.016 21h1.969v-2.016h-1.969v2.016zM6.984 5.016h2.016v-2.016h-2.016v2.016zM3 17.016h2.016v-2.016h-2.016v2.016zM5.016 21v-2.016h-2.016q0 0.844 0.586 1.43t1.43 0.586zM18.984 3v2.016h2.016q0-0.844-0.586-1.43t-1.43-0.586zM11.016 5.016h1.969v-2.016h-1.969v2.016zM3 9h2.016v-2.016h-2.016v2.016zM6.984 21h2.016v-2.016h-2.016v2.016zM3 12.984h2.016v-1.969h-2.016v1.969zM3 5.016h2.016v-2.016q-0.844 0-1.43 0.586t-0.586 1.43z"></path></svg>