<svg xmlns="http://www.w3.org/2000/svg" class="ijs-icon__svg" width="200" height="200" viewBox="0 0 24 24"><path d="M21.984 9v6q0 0.844-0.586 1.43t-1.383 0.586h-1.031v-2.016h1.031v-6h-16.031v6h6v2.016h-6q-0.797 0-1.383-0.586t-0.586-1.43v-6q0-0.844 0.586-1.43t1.383-0.586h16.031q0.797 0 1.383 0.586t0.586 1.43zM14.484 18.984l1.125-2.391 2.391-1.078-2.391-1.125-1.125-2.391-1.078 2.391-2.391 1.125 2.391 1.078zM17.016 14.016l0.609-1.406 1.359-0.609-1.359-0.609-0.609-1.406-0.656 1.406-1.359 0.609 1.359 0.609zM14.484 18.984l1.125-2.391 2.391-1.078-2.391-1.125-1.125-2.391-1.078 2.391-2.391 1.125 2.391 1.078zM17.016 14.016l0.609-1.406 1.359-0.609-1.359-0.609-0.609-1.406-0.656 1.406-1.359 0.609 1.359 0.609z"></path></svg>