<svg xmlns="http://www.w3.org/2000/svg" class="ijs-icon__svg" width="200" height="200" viewBox="0 0 24 24"><path d="M15.516 6.516q0-0.328 0.211-0.75t0.516-0.82 0.539-0.68l0.234-0.281 0.211 0.281t0.516 0.68 0.539 0.82 0.234 0.75q0 0.609-0.445 1.055t-1.055 0.445q-0.656 0-1.078-0.445t-0.422-1.055zM19.5 15q1.031 0 1.758-0.727t0.727-1.758q0-0.656-0.375-1.43t-0.867-1.477-0.867-1.148l-0.375-0.445-0.375 0.445t-0.867 1.148-0.867 1.477-0.375 1.43q0 1.031 0.727 1.758t1.758 0.727zM12.984 14.016h-1.969v-2.016h-2.016v2.016h-2.016v1.969h2.016v2.016h2.016v-2.016h1.969v-1.969zM15.984 12v9.984h-12v-9.984q0-1.5 0.656-2.742t1.805-2.086 2.555-1.078v-2.109h-2.016v-1.969h6q0.844 0 1.617 0.258t1.383 0.727l-1.406 1.453q-0.375-0.234-0.773-0.352t-0.82-0.117h-1.969v2.109q1.406 0.234 2.531 1.078t1.781 2.086 0.656 2.742z"></path></svg>