<svg xmlns="http://www.w3.org/2000/svg" class="ijs-icon__svg" width="200" height="200" viewBox="0 0 24 24"><path d="M12 2.016q-2.063 0-3.867 0.773t-3.188 2.156-2.156 3.188-0.773 3.867 0.773 3.867 2.156 3.188 3.188 2.156 3.867 0.773 3.867-0.773 3.188-2.156 2.156-3.188 0.773-3.867-0.773-3.867-2.156-3.188-3.188-2.156-3.867-0.773zM18 13.969h-5.016l2.297-2.25q-0.703-0.797-1.688-1.266t-2.109-0.469q-1.172 0-2.18 0.492t-1.711 1.383-0.938 1.969l-0.984-0.281q0.328-1.313 1.172-2.344t2.039-1.641 2.602-0.609q1.359 0 2.508 0.563t1.992 1.5l2.016-2.063v5.016z"></path></svg>