<svg xmlns="http://www.w3.org/2000/svg" class="ijs-icon__svg" width="200" height="200" viewBox="0 0 24 24"><path d="M21.609 18.188l-8.625-6.422v-0.938q0.844-0.234 1.453-0.844t0.891-1.43 0.094-1.758q-0.188-0.984-0.914-1.734t-1.711-0.984q-1.125-0.234-2.109 0.164t-1.594 1.289-0.609 1.969h2.016q0-0.609 0.445-1.055t1.055-0.445 1.055 0.445 0.445 1.055-0.445 1.055-1.102 0.445q-0.375 0-0.656 0.281t-0.281 0.703v1.781l-8.625 6.422q-0.375 0.281-0.398 0.727t0.258 0.773 0.75 0.328h18q0.469 0 0.75-0.328t0.258-0.773-0.398-0.727zM6 18l6-4.5 6 4.5h-12z"></path></svg>