<svg xmlns="http://www.w3.org/2000/svg" class="ijs-icon__svg" width="200" height="200" viewBox="0 0 24 24"><path d="M12.75 9v0.938l1.734 1.734v-2.672h1.5v4.172l3 3v-8.156q0-0.844-0.586-1.43t-1.383-0.586h-2.016v-3q0-0.422-0.305-0.703t-0.68-0.281h-4.031q-0.375 0-0.68 0.281t-0.305 0.703v3h-0.188l3 3h0.938zM10.5 3.516h3v2.484h-3v-2.484zM21.188 21.188l-18.375-18.375-1.406 1.406 3.609 3.609v11.156q0 0.844 0.586 1.43t1.383 0.586q0 0.422 0.305 0.703t0.727 0.281q0.375 0 0.68-0.281t0.305-0.703h6q0 0.422 0.305 0.703t0.68 0.281q0.422 0 0.727-0.281t0.305-0.703q0.469 0 0.938-0.234l1.828 1.828zM8.016 18v-7.172l1.5 1.5v5.672h-1.5zM12.75 18h-1.5v-3.938l1.5 1.5v2.438z"></path></svg>