<svg xmlns="http://www.w3.org/2000/svg" class="ijs-icon__svg" width="200" height="200" viewBox="0 0 24 24"><path d="M21.984 12v0q0-2.063-0.773-3.867t-2.156-3.188-3.188-2.156-3.867-0.773-3.867 0.773-3.188 2.156-2.156 3.188-0.773 3.867q0 1.828 0.75 3.445t2.109 2.859 3.141 1.945v1.734h7.969v-1.734q1.781-0.703 3.141-1.945t2.109-2.859 0.75-3.445zM20.016 12h-4.031v-6.938q1.828 1.078 2.93 2.906t1.102 4.031zM14.016 4.266v7.734h-4.031v-7.734q0.516-0.141 1.008-0.211t1.008-0.070 1.008 0.070 1.008 0.211zM3.984 12q0-2.203 1.102-4.031t2.93-2.906v6.938h-4.031z"></path></svg>