<svg xmlns="http://www.w3.org/2000/svg" class="ijs-icon__svg" width="200" height="200" viewBox="0 0 24 24"><path d="M21.328 17.391l-2.391-2.156q0.234-1.172-0.211-2.133t-1.313-1.523-1.898-0.563q-0.469 0-1.055 0.164t-1.148 0.586-0.938 1.102-0.375 1.617q0 0.75 0.281 1.383t0.75 1.102l-0.703 0.703q-0.609-0.609-0.961-1.43t-0.352-1.758q0-1.266 0.656-2.297t1.688-1.641q-1.125-0.563-2.297-0.563t-2.203 0.516-1.734 1.383-0.984 1.992q-0.938-0.281-1.547-1.078t-0.609-1.781q0-0.844 0.422-1.523t1.102-1.078 1.477-0.398h2.531q1.031 0 1.758-0.75t0.727-1.781-0.727-1.758-1.758-0.727h-1.5q-0.422 0-0.727 0.305t-0.305 0.68q0 0.422 0.305 0.727t0.727 0.305h1.5q0.188 0 0.328 0.141t0.141 0.328q0 0.234-0.141 0.375t-0.328 0.141h-2.531q-1.359 0-2.508 0.68t-1.805 1.805-0.656 2.531q0 1.172 0.516 2.203t1.43 1.734 2.039 0.938v0.047q0 1.406 0.68 2.555t1.828 1.828 2.555 0.68h8.859q0.703 0 1.195-0.375t0.727-0.961 0.117-1.195-0.633-1.078zM18 18.984q-0.422 0-0.703-0.281t-0.281-0.703 0.281-0.703 0.703-0.281 0.703 0.281 0.281 0.703-0.281 0.703-0.703 0.281z"></path></svg>