<svg xmlns="http://www.w3.org/2000/svg" class="ijs-icon__svg" width="200" height="200" viewBox="0 0 24 24"><path d="M12 20.016q-1.641 0-3.094-0.633t-2.555-1.734-1.734-2.555-0.633-3.094 0.633-3.094 1.734-2.555 2.555-1.734 3.094-0.633 3.094 0.633 2.555 1.734 1.734 2.555 0.633 3.094-0.633 3.094-1.734 2.555-2.555 1.734-3.094 0.633zM12 21.984q2.063 0 3.867-0.773t3.188-2.156 2.156-3.188 0.773-3.867-0.773-3.867-2.156-3.188-3.188-2.156-3.867-0.773-3.867 0.773-3.188 2.156-2.156 3.188-0.773 3.867 0.773 3.867 2.156 3.188 3.188 2.156 3.867 0.773v0zM11.016 12v3.984h1.969v-3.984h3l-3.984-3.984-3.984 3.984h3z"></path></svg>