<svg xmlns="http://www.w3.org/2000/svg" class="ijs-icon__svg" width="200" height="200" viewBox="0 0 24 24"><path d="M21.984 12q0 2.063-0.773 3.867t-2.156 3.188-3.188 2.156-3.867 0.773-3.867-0.773-3.188-2.156-2.156-3.188-0.773-3.867q0-0.891 0.141-1.734t0.422-1.641l1.922 0.656q-0.516 1.313-0.516 2.719 0 1.641 0.633 3.094t1.734 2.555 2.555 1.734 3.094 0.633 3.094-0.633 2.555-1.734 1.734-2.555 0.633-3.094-0.633-3.094-1.734-2.555-2.555-1.734-3.094-0.633q-1.406 0-2.672 0.516l-0.703-1.922q0.797-0.281 1.641-0.422t1.734-0.141q2.063 0 3.867 0.773t3.188 2.156 2.156 3.188 0.773 3.867zM5.484 3.984q-0.609 0-1.055 0.445t-0.445 1.055q0 0.656 0.445 1.078t1.055 0.422q0.656 0 1.078-0.422t0.422-1.078q0-0.609-0.422-1.055t-1.078-0.445zM18 12q0 1.641-0.82 3t-2.18 2.18-3 0.82-3-0.82-2.18-2.18-0.82-3 0.82-3 2.18-2.18 3-0.82 3 0.82 2.18 2.18 0.82 3zM11.016 9h-2.016v6h2.016v-6zM15 9h-2.016v6h2.016v-6z"></path></svg>