<svg xmlns="http://www.w3.org/2000/svg" class="ijs-icon__svg" width="200" height="200" viewBox="0 0 24 24"><path d="M14.016 11.063l-3.422-3.422q0.516-0.563 1.219-0.609 0.375-0.047 0.656 0.023t0.563 0.211l0.281 0.188t0.328 0.281l1.313 1.453q0.703 0.797 1.805 1.313t2.227 0.516v1.969q-1.313 0-2.672-0.563t-2.297-1.359zM12 6q0.844 0 1.43-0.586t0.586-1.43q0-0.797-0.586-1.383t-1.43-0.586-1.43 0.586-0.586 1.383q0 0.844 0.586 1.43t1.43 0.586zM2.813 2.813l-1.406 1.406 8.578 8.625v2.156q0 0.844 0.586 1.43t1.43 0.586h2.156l5.625 5.578 1.406-1.406zM9.984 20.016q-0.797 0-1.477-0.422t-1.102-1.102-0.422-1.477q0-0.984 0.563-1.758t1.453-1.102v-2.063q-1.125 0.234-2.039 0.938t-1.43 1.734-0.516 2.25q0 1.359 0.656 2.508t1.805 1.805 2.508 0.656q1.219 0 2.25-0.516t1.734-1.43 0.938-2.039h-2.063q-0.328 0.891-1.102 1.453t-1.758 0.563z"></path></svg>