<svg xmlns="http://www.w3.org/2000/svg" class="ijs-icon__svg" width="200" height="200" viewBox="0 0 24 24"><path d="M21.188 21.188l-18.375-18.375-1.406 1.406 2.25 2.25q-0.797 1.219-1.219 2.602t-0.422 2.93q0 2.063 0.773 3.867t2.156 3.188 3.188 2.156 3.867 0.773q1.547 0 2.93-0.422t2.602-1.219l2.25 2.25zM10.594 16.594l-4.266-4.219 1.453-1.406 2.813 2.813 0.188-0.188 1.406 1.406zM13.594 10.781l-7.125-7.125q1.219-0.797 2.602-1.219t2.93-0.422q2.063 0 3.867 0.773t3.188 2.156 2.156 3.188 0.773 3.867q0 1.547-0.422 2.93t-1.219 2.602l-5.344-5.344 2.672-2.672-1.453-1.406z"></path></svg>