<svg xmlns="http://www.w3.org/2000/svg" class="ijs-icon__svg" width="200" height="200" viewBox="0 0 24 24"><path d="M14.016 20.016q0-0.844 0.586-1.43t1.383-0.586q0.844 0 1.43 0.586t0.586 1.43q0 0.797-0.586 1.383t-1.43 0.586q-0.797 0-1.383-0.586t-0.586-1.383zM3.984 20.016q0-0.844 0.586-1.43t1.43-0.586 1.43 0.586 0.586 1.43q0 0.797-0.586 1.383t-1.43 0.586-1.43-0.586-0.586-1.383zM21.984 6.984v-0.516q0-0.938-0.445-1.734t-1.195-1.266-1.688-0.469q-0.844 0-1.43 0.352t-1.008 0.82-0.75 0.844l-8.813 10.313q-0.281 0.328-0.234 0.727t0.305 0.68 0.727 0.281h7.547q0.844 0 1.43-0.586t0.586-1.43v-8.719q0.422-0.516 0.773-0.891t0.867-0.375q0.563 0 0.961 0.422t0.398 1.031v0.516h1.969zM14.297 4.078q-0.938-0.516-2.039-0.797t-2.273-0.281q-1.453 0-2.789 0.445t-2.461 1.289l4.875 4.875z"></path></svg>