<svg xmlns="http://www.w3.org/2000/svg" class="ijs-icon__svg" width="200" height="200" viewBox="0 0 24 24"><path d="M7.734 12.984q0-0.516 0.375-0.867t0.891-0.352 0.891 0.352 0.375 0.867-0.375 0.891-0.891 0.375-0.891-0.375-0.375-0.891v0zM20.766 8.578l-0.938 2.016q0.094 0.328 0.141 0.68t0.047 0.727q0 1.641-0.633 3.094t-1.734 2.555-2.555 1.734-3.094 0.633-3.094-0.633-2.555-1.734-1.734-2.555-0.633-3.094v-0.141q1.969-0.75 3.469-2.18t2.297-3.352q1.359 1.688 3.375 2.672t4.359 0.984q0.375 0 0.703-0.023t0.656-0.070l-0.609-1.313-0.891-1.922-1.922-0.891-2.813-1.266 2.813-1.266 0.703-0.328q-0.938-0.422-1.969-0.656t-2.156-0.234q-2.063 0-3.867 0.773t-3.188 2.156-2.156 3.188-0.773 3.867 0.773 3.867 2.156 3.188 3.188 2.156 3.867 0.773 3.867-0.773 3.188-2.156 2.156-3.188 0.773-3.867q0-1.125-0.234-2.156t-0.656-1.969l-0.328 0.703zM13.734 12.984q0-0.516 0.375-0.867t0.891-0.352 0.891 0.352 0.375 0.867-0.375 0.891-0.891 0.375-0.891-0.375-0.375-0.891zM20.578 5.578l-1.078 2.438-1.078-2.438-2.438-1.078 2.438-1.078 1.078-2.438 1.078 2.438 2.438 1.078z"></path></svg>