<svg xmlns="http://www.w3.org/2000/svg" class="ijs-icon__svg" width="200" height="200" viewBox="0 0 24 24"><path d="M13.922 13.922l-11.484-11.484-1.406 1.453 5.297 5.297-0.188 0.234h-2.531q-0.656 0-1.125 0.469t-0.469 1.125v9.375q0 0.656 0.469 1.125t1.125 0.469h12.797q0.563 0 0.984-0.328t0.563-0.891l2.156 2.203 1.453-1.406-3.563-3.563zM9.984 20.016q-1.078 0-1.992-0.539t-1.453-1.453-0.539-2.039q0-0.938 0.422-1.781t1.172-1.406 1.641-0.703l1.594 1.547q-0.422-0.141-0.844-0.141-1.031 0-1.758 0.727t-0.727 1.758 0.727 1.781 1.758 0.75 1.781-0.75 0.75-1.781q0-0.375-0.188-0.797l1.594 1.547q-0.188 0.938-0.75 1.664t-1.383 1.172-1.805 0.445zM18 15.188l-7.172-7.172h1.734l1.313 1.406h2.531q0.656 0 1.125 0.469t0.469 1.125v4.172zM20.391 5.578h1.594l-3 5.438v-4.031h-0.984v-4.969h3.984z"></path></svg>