<svg xmlns="http://www.w3.org/2000/svg" class="ijs-icon__svg" width="200" height="200" viewBox="0 0 24 24"><path d="M14.016 2.016h-8.016q-0.844 0-1.43 0.586t-0.586 1.383v16.031q0 0.797 0.586 1.383t1.43 0.586h12q0.844 0 1.43-0.586t0.586-1.383v-12zM15 11.016h-3.984v0.984h3q0.375 0 0.68 0.305t0.305 0.68v3q0 0.422-0.305 0.727t-0.68 0.305h-1.031v0.984h-1.969v-0.984h-2.016v-2.016h3.984v-0.984h-3q-0.375 0-0.68-0.305t-0.305-0.727v-3q0-0.375 0.305-0.68t0.68-0.305h1.031v-0.984h1.969v0.984h2.016v2.016z"></path></svg>