<svg xmlns="http://www.w3.org/2000/svg" class="ijs-icon__svg" width="200" height="200" viewBox="0 0 24 24"><path d="M17.016 8.016h-10.031q-0.797 0-1.383 0.586t-0.586 1.383v10.031q0 0.797 0.586 1.383t1.383 0.586h10.031q0.797 0 1.383-0.586t0.586-1.383v-10.031q0-0.797-0.586-1.383t-1.383-0.586zM12.984 20.484h-1.969v-1.5h1.969v1.5zM12.984 18h-1.969q0-0.563-0.375-1.125t-0.891-1.172-0.891-1.289-0.375-1.43q0-0.938 0.492-1.734t1.266-1.266 1.758-0.469 1.758 0.469 1.266 1.266 0.492 1.734q0 0.75-0.375 1.43t-0.891 1.289-0.891 1.172-0.375 1.125zM18 6.516h-12q0-0.656 0.445-1.078t1.055-0.422h9q0.609 0 1.055 0.422t0.445 1.078v0zM17.016 3.516h-10.031q0-0.656 0.445-1.078t1.055-0.422h7.031q0.609 0 1.055 0.422t0.445 1.078v0z"></path></svg>