<svg xmlns="http://www.w3.org/2000/svg" class="ijs-icon__svg" width="200" height="200" viewBox="0 0 24 24"><path d="M18.984 6.984h-0.797l-1.688-4.688q-0.234-0.563-0.75-0.938t-1.172-0.375h-2.578v2.016h2.578l1.5 3.984h-4.828l-0.375-0.984h1.125v-2.016h-5.016v2.016h1.781l1.781 5.016h-0.656q-0.188-1.125-0.867-2.016t-1.641-1.406-2.133-0.563q-1.406-0.094-2.602 0.586t-1.922 1.828-0.727 2.555 0.656 2.531 1.805 1.805 2.555 0.68q1.219 0 2.25-0.516t1.711-1.43 0.914-2.086h4.219q0.188 1.125 0.867 2.016t1.641 1.406 2.133 0.563q1.406 0.094 2.602-0.586t1.922-1.828 0.727-2.555-0.656-2.531-1.805-1.805-2.555-0.68zM7.828 12.984q-0.328 0.891-1.078 1.453t-1.734 0.563q-0.844 0-1.523-0.398t-1.078-1.078-0.398-1.523 0.398-1.523 1.078-1.078 1.523-0.398q0.984 0 1.734 0.563t1.078 1.453h-2.813v1.969h2.813zM14.109 11.016h-1.406l-0.75-2.016h3.047q-0.328 0.422-0.563 0.938t-0.328 1.078zM18.984 15q-0.844 0-1.523-0.398t-1.078-1.078-0.398-1.523q0-0.703 0.281-1.289t0.797-1.008l0.938 2.672 1.875-0.703-0.938-2.672h0.047q0.844 0 1.523 0.398t1.078 1.078 0.398 1.523-0.398 1.523-1.078 1.078-1.523 0.398zM11.016 20.016h-4.031l6 3v-2.016h4.031l-6-3v2.016z"></path></svg>