<svg xmlns="http://www.w3.org/2000/svg" class="ijs-icon__svg" width="200" height="200" viewBox="0 0 24 24"><path d="M23.016 0.984l-2.531 1.406-2.484-1.406 1.406 2.531-1.406 2.484 2.484-1.406 2.531 1.406-1.406-2.484zM14.672 7.219l2.109 2.109-2.438 2.438 0.797 0.844 2.578-2.578q0.281-0.281 0.281-0.703t-0.281-0.703l-2.344-2.344q-0.328-0.281-0.727-0.281t-0.68 0.281l-2.578 2.578 0.797 0.797 2.484-2.438zM13.875 13.875l-10.594-10.594-1.266 1.266 6.844 6.844-6.563 6.563q-0.281 0.281-0.281 0.703t0.281 0.703l2.344 2.344q0.281 0.281 0.703 0.281t0.703-0.281l6.563-6.563 6.844 6.844 1.266-1.266-6.844-6.844z"></path></svg>