<svg xmlns="http://www.w3.org/2000/svg" class="ijs-icon__svg" width="200" height="200" viewBox="0 0 24 24"><path d="M14.016 11.25v-5.25h3v3.984h1.969v-6h-4.969v-0.984h-9v15.984h-2.016v2.016h9.281q-0.609-0.844-0.938-1.852t-0.328-2.133q0-1.781 0.82-3.281t2.18-2.484zM9.984 11.016h2.016v1.969h-2.016v-1.969zM21.703 16.359l1.125-0.984-0.984-1.734-1.453 0.469q-0.469-0.375-1.078-0.609l-0.328-1.5h-1.969l-0.328 1.5q-0.609 0.234-1.078 0.609l-1.453-0.469-0.984 1.734 1.125 0.984q-0.094 0.609 0 1.266l-1.125 0.984 0.984 1.734 1.453-0.469q0.469 0.375 1.078 0.609l0.328 1.5h1.969l0.328-1.453q0.609-0.234 1.078-0.656l1.453 0.516 0.984-1.734-1.125-1.031q0.047-0.375 0.047-0.633t-0.047-0.633zM18 18.984q-0.844 0-1.43-0.586t-0.586-1.383q0-0.844 0.586-1.43t1.43-0.586 1.43 0.586 0.586 1.43q0 0.797-0.586 1.383t-1.43 0.586z"></path></svg>