<svg xmlns="http://www.w3.org/2000/svg" class="ijs-icon__svg" width="200" height="200" viewBox="0 0 24 24"><path d="M9.516 6.516v3h-3v-3h3zM11.016 5.016h-6v6h6v-6zM9.516 14.484v3h-3v-3h3zM11.016 12.984h-6v6h6v-6zM17.484 6.516v3h-3v-3h3zM18.984 5.016h-6v6h6v-6zM12.984 12.984h1.5v1.5h-1.5v-1.5zM14.484 14.484h1.5v1.5h-1.5v-1.5zM15.984 12.984h1.5v1.5h-1.5v-1.5zM12.984 15.984h1.5v1.5h-1.5v-1.5zM14.484 17.484h1.5v1.5h-1.5v-1.5zM15.984 15.984h1.5v1.5h-1.5v-1.5zM17.484 14.484h1.5v1.5h-1.5v-1.5zM17.484 17.484h1.5v1.5h-1.5v-1.5zM21.984 6.984h-1.969v-3h-3v-1.969h4.969v4.969zM21.984 21.984v-4.969h-1.969v3h-3v1.969h4.969zM2.016 21.984h4.969v-1.969h-3v-3h-1.969v4.969zM2.016 2.016v4.969h1.969v-3h3v-1.969h-4.969z"></path></svg>