<svg xmlns="http://www.w3.org/2000/svg" class="ijs-icon__svg" width="200" height="200" viewBox="0 0 20 20"><path d="M13 18h-6v1c0 0.552-0.448 1-1 1v0h-1c-0.552 0-1-0.448-1-1v0-1c-1.105 0-2-0.895-2-2v0-14c0-1.1 0.9-2 2-2h12c1.105 0 2 0.895 2 2v0 14c0 1.105-0.895 2-2 2v0 1c0 0.552-0.448 1-1 1v0h-1c-0.552 0-1-0.448-1-1v0-1zM4 5v6h5v-6h-5zM11 5v6h5v-6h-5zM5 2v1h10v-1h-10zM5.5 16c0.828 0 1.5-0.672 1.5-1.5s-0.672-1.5-1.5-1.5v0c-0.828 0-1.5 0.672-1.5 1.5s0.672 1.5 1.5 1.5v0zM14.5 16c0.828 0 1.5-0.672 1.5-1.5s-0.672-1.5-1.5-1.5v0c-0.828 0-1.5 0.672-1.5 1.5s0.672 1.5 1.5 1.5v0z"></path></svg>