<svg xmlns="http://www.w3.org/2000/svg" class="ijs-icon__svg" width="200" height="200" viewBox="0 0 24 28"><path d="M17 14c0 0.328-0.156 0.625-0.422 0.812l-7 5c-0.297 0.219-0.703 0.25-1.031 0.078-0.344-0.172-0.547-0.516-0.547-0.891v-10c0-0.375 0.203-0.719 0.547-0.891 0.328-0.172 0.734-0.141 1.031 0.078l7 5c0.266 0.187 0.422 0.484 0.422 0.812zM20 21.5v-15c0-0.281-0.219-0.5-0.5-0.5h-15c-0.281 0-0.5 0.219-0.5 0.5v15c0 0.281 0.219 0.5 0.5 0.5h15c0.281 0 0.5-0.219 0.5-0.5zM24 6.5v15c0 2.484-2.016 4.5-4.5 4.5h-15c-2.484 0-4.5-2.016-4.5-4.5v-15c0-2.484 2.016-4.5 4.5-4.5h15c2.484 0 4.5 2.016 4.5 4.5z"></path></svg>