<svg xmlns="http://www.w3.org/2000/svg" class="ijs-icon__svg" width="200" height="200" viewBox="0 0 24 24"><path fill-rule="evenodd" d="M13,19.9506248 L13,21 L15,21 L15,23 L9,23 L9,21 L11,21 L11,19.9504484 C8.71317074,19.7228065 6.59727987,18.7192573 4.97286605,17.1147319 L6.37834222,15.6918346 C7.86658623,17.1618574 9.8657966,18 12,18 C16.418278,18 20,14.418278 20,10 C20,7.89970455 19.1884646,5.92973256 17.7597898,4.44797581 L19.1995571,3.05978628 C20.9841268,4.9106611 22,7.37665553 22,10 C22,15.1853481 18.0533227,19.4489003 13,19.9506248 Z M12,3 C15.8659932,3 19,6.13400675 19,10 C19,13.8659932 15.8659932,17 12,17 C8.13400675,17 5,13.8659932 5,10 C5,6.13400675 8.13400675,3 12,3 Z M12,5 C9.23857625,5 7,7.23857625 7,10 C7,12.7614237 9.23857625,15 12,15 C14.7614237,15 17,12.7614237 17,10 C17,7.23857625 14.7614237,5 12,5 Z"/></svg>9 Z M3.06564935,10.9074041 C3.35718942,11.2805411 4.16781668,11.7579761 5.40825505,12.1475117 C5.89667659,12.300891 6.43159753,12.4357216 7.00555318,12.5502212 C7.00186026,12.3678797 7,12.1844353 7,12 C7,8.67235871 7.60556171,5.6673038 8.65454975,3.64230648 C5.66411911,4.84041759 3.46627566,7.59699344 3.06564935,10.9074041 Z M14.9862915,12.8045103 C14.9953365,12.5396718 15,12.2713459 15,12 C15,6.98399319 13.4063972,3 12,3 C10.5936028,3 9,6.98399319 9,12 C9,12.2869698 9.00521598,12.5705617 9.01531448,12.8502229 C9.95340738,12.9482908 10.9557722,13 12,13 C13.0280488,13 14.0367397,12.9274936 14.9862915,12.8045103 Z M14.8252793,14.8441424 C13.9124489,14.9453996 12.9633249,15 12,15 C11.0208804,15 10.0760086,14.9581505 9.17890858,14.8773334 C9.6334669,18.4574369 10.8764702,21 12,21 C13.1269987,21 14.3742099,18.441712 14.8252793,14.8441424 Z M12,1 C18.0751322,1 23,5.92486775 23,12 C23,18.0751322 18.0751322,23 12,23 C5.92486775,23 1,18.0751322 1,12 C1,5.92486775 5.92486775,1 12,1 Z"/></svg>