<svg xmlns="http://www.w3.org/2000/svg" class="ijs-icon__svg" width="200" height="200" viewBox="0 0 32 32"><path d="M20.106 12.5l-1.044-0.704 0.559-0.829 1.378 0.93 1.378-0.93 0.559 0.829-1.044 0.704 1.044 0.704-0.559 0.829-1.378-0.93-1.378 0.93-0.559-0.829 1.044-0.704zM11.106 12.5l-1.044-0.704 0.559-0.829 1.378 0.93 1.378-0.93 0.559 0.829-1.044 0.704 1.044 0.704-0.559 0.829-1.378-0.93-1.378 0.93-0.559-0.829 1.044-0.704zM16.5 29c6.904 0 12.5-5.596 12.5-12.5s-5.596-12.5-12.5-12.5c-6.904 0-12.5 5.596-12.5 12.5s5.596 12.5 12.5 12.5zM16.5 24c-1.381 0-2.5-1.119-2.5-2.5s1.119-2.5 2.5-2.5c1.381 0 2.5 1.119 2.5 2.5s-1.119 2.5-2.5 2.5z"></path></svg>