<svg xmlns="http://www.w3.org/2000/svg" class="ijs-icon__svg" width="200" height="200" viewBox="0 0 32 32"><path d="M9 11.5v0c0 1.3 0.834 2.5 2.511 2.5s2.489-1.3 2.489-2.5c0-1.684-2.489-4.5-2.489-4.5s-2.511 2.816-2.511 4.5zM19 15.5v0c0 1.3 0.834 2.5 2.511 2.5s2.489-1.3 2.489-2.5c0-1.684-2.489-4.5-2.489-4.5s-2.511 2.816-2.511 4.5zM12 23.5v0c0 1.3 0.834 2.5 2.511 2.5s2.489-1.3 2.489-2.5c0-1.684-2.489-4.5-2.489-4.5s-2.511 2.816-2.511 4.5zM20 15.5c0-1 1.511-2.9 1.511-2.9s1.489 1.9 1.489 2.9c0 1.2-0.813 1.5-1.489 1.5s-1.511-0.3-1.511-1.5v0zM10 11.5c0-1 1.511-2.9 1.511-2.9s1.489 1.9 1.489 2.9c0 1.2-0.813 1.5-1.489 1.5s-1.511-0.3-1.511-1.5v0zM13 23.5c0-1 1.511-2.9 1.511-2.9s1.489 1.9 1.489 2.9c0 1.2-0.813 1.5-1.489 1.5s-1.511-0.3-1.511-1.5v0z"></path></svg>