<svg xmlns="http://www.w3.org/2000/svg" class="ijs-icon__svg" width="200" height="200" viewBox="0 0 1024 1024"><path d="M918.784 227.648L539.392 8.576a64 64 0 0 0-64 0L96 227.648a64 64 0 0 0-32 55.424v438.08a64 64 0 0 0 32 55.424l379.392 219.072a64 64 0 0 0 64 0l379.392-219.072a64 64 0 0 0 32-55.424V283.072a64 64 0 0 0-32-55.424zM192 320l315.392-182.08L822.912 320v364.224l-315.52 182.08L192 684.224v-364.16z"></path><path d="M338.176 351.872a48 48 0 0 0-53.76 79.232l5.376 3.648L483.2 547.712a48 48 0 0 0 53.824-79.296l-5.376-3.648-193.472-112.896z"></path><path d="M507.392 458.24a48 48 0 0 1 47.552 41.472l0.448 6.528v224a48 48 0 0 1-95.552 6.528l-0.448-6.528v-224a48 48 0 0 1 48-48z"></path><path d="M676.608 351.872a48 48 0 0 1 53.824 79.232l-5.376 3.648-193.472 112.96a48 48 0 0 1-53.76-79.296l5.376-3.648 193.408-112.896z"></path></svg>