<svg xmlns="http://www.w3.org/2000/svg" class="ijs-icon__svg" width="200" height="200" viewBox="0 0 1024 1024"><path d="M384 864a64 64 0 0 1-7.488-127.552L384 736h314.24C791.104 736 896 637.696 896 512c0-121.344-97.728-217.216-188.16-223.68l-9.6-0.32H247.232c-16.448 0-46.848 11.392-70.336 30.976C145.92 344.96 128 381.824 128 433.472c0 51.648 17.92 88.576 48.96 114.432 20.544 17.152 46.4 28.032 63.552 30.464l6.784 0.512H672c28.16 0 66.88-33.92 66.88-66.88 0-30.72-33.728-62.4-61.12-66.496l-5.76-0.384H384a64 64 0 0 1-7.488-127.616L384 317.12h288c95.36 0 194.88 87.104 194.88 194.88 0 103.936-92.608 188.672-184.64 194.56l-10.24 0.32H247.296C127.872 706.88 0 600.384 0 433.472c0-161.92 120.192-266.944 236.416-273.152l10.88-0.32h450.88C860.16 160 1024 313.728 1024 512c0 193.344-155.84 344.32-313.664 351.744l-12.16 0.256H384z"></path></svg>