<svg xmlns="http://www.w3.org/2000/svg" class="ijs-icon__svg" width="200" height="200" viewBox="0 0 1024 1024"><path d="M531.328 0C754.304 0 945.152 132.352 1024 320h-147.52c-68.928-114.752-197.696-192-345.152-192-220.096 0-398.528 171.904-398.528 384s178.432 384 398.528 384c147.456 0 276.224-77.184 345.152-191.936H1024C945.152 891.648 754.24 1024 531.328 1024 237.888 1024 0 794.752 0 512s237.888-512 531.328-512z"></path><path d="M719.232 448c-27.392-74.56-101.12-128-187.904-128-110.08 0-199.296 85.952-199.296 192s89.216 192 199.296 192c86.72 0 160.512-53.376 187.84-128h210.56c36.736 0 66.496-28.672 66.496-64s-29.76-64-66.432-64h-210.56zM464.896 512c0-35.328 29.76-64 66.432-64s66.368 28.672 66.368 64-29.696 64-66.368 64-66.432-28.672-66.432-64z"></path></svg>