<svg xmlns="http://www.w3.org/2000/svg" class="ijs-icon__svg" width="200" height="200" viewBox="0 0 1024 1024"><path d="M256 0a192 192 0 1 0 0 384 192 192 0 0 0 0-384z m0 128a64 64 0 1 1 0 128 64 64 0 0 1 0-128zM256 640a192 192 0 1 0 0 384 192 192 0 0 0 0-384z m0 128a64 64 0 1 1 0 128 64 64 0 0 1 0-128z"></path><path d="M832 320v135.04a96 96 0 0 1-64.384 90.624l-8.32 2.56-487.744 121.856-31.104-124.16L704 430.016V320h128z"></path><path d="M320 320v384H192V320zM768 0a192 192 0 1 0 0 384 192 192 0 0 0 0-384z m0 128a64 64 0 1 1 0 128 64 64 0 0 1 0-128z"></path></svg>