<svg xmlns="http://www.w3.org/2000/svg" class="ijs-icon__svg" width="200" height="200" viewBox="0 0 1024 1024"><path d="M0 0h1024v1024H0z" fill="#FFFFFF" fill-opacity=".01"></path><path d="M0 0h1024v1024H0z" fill="#FFFFFF" fill-opacity=".01"></path><path d="M955.648 149.312H341.312a64 64 0 0 0-64 64V959.36a64 64 0 0 0 64 64h614.336a64 64 0 0 0 64-64V213.312a64 64 0 0 0-64-64z m-64.064 140.8v592.32a12.8 12.8 0 0 1-12.8 12.8H418.112a12.8 12.8 0 0 1-12.8-12.8V290.112c0-7.04 5.76-12.8 12.8-12.8h460.672c7.04 0 12.8 5.76 12.8 12.8z"></path><path d="M697.728 0.64a57.6 57.6 0 0 1 57.152 50.304l0.448 7.232v135.552h-115.2V128.576a12.8 12.8 0 0 0-12.864-12.8h-499.2a12.8 12.8 0 0 0-12.8 12.8v627.2c0 7.04 5.76 12.8 12.8 12.8h194.816v115.2H57.728a57.6 57.6 0 0 1-57.152-50.368l-0.448-7.232V80.768C0.128 39.104 31.872 5.056 72.32 1.024l8.192-0.448h617.152z"></path></svg>