<svg xmlns="http://www.w3.org/2000/svg" class="ijs-icon__svg" width="200" height="200" viewBox="0 0 1024 1024"><path d="M308.032 745.664l7.296 0.448c13.44 0 26.432-4.928 36.48-14.016l4.992-5.44a54.656 54.656 0 0 0-2.24-70.976L222.912 512.64l140.352-135.36a54.656 54.656 0 0 0 6.592-70.592l-4.608-5.696a53.12 53.12 0 0 0-75.456-2.112L111.168 470.848a54.656 54.656 0 0 0-2.112 76.288l167.488 181.696a49.92 49.92 0 0 0 31.488 16.832zM654.08 305.984a54.656 54.656 0 0 0 6.72 70.528l140.352 135.36-132.224 142.976a54.656 54.656 0 0 0-10.432 58.112c8.32 19.84 27.392 32.96 48.768 33.152a51.328 51.328 0 0 0 35.776-13.952l171.968-185.856a54.592 54.592 0 0 0-2.048-75.968l-178.56-172.16a53.12 53.12 0 0 0-75.712 2.112l-4.544 5.76z"></path><path d="M507.712 249.088l-111.168 500.672a54.656 54.656 0 0 0 6.912 40.64l4.16 5.76c5.952 7.296 13.76 12.8 22.592 16.128l5.056 1.472 0.768 1.92h12.8c24.96 0 46.528-17.6 52.032-42.176l110.912-500.352a54.144 54.144 0 0 0-40.576-63.488 53.376 53.376 0 0 0-63.488 39.424z"></path></svg>