<svg xmlns="http://www.w3.org/2000/svg" class="ijs-icon__svg" width="200" height="200" viewBox="0 0 1024 1024"><path d="M0 0h1024v1024H0z" fill="#FFFFFF" fill-opacity=".01"></path><path d="M0 448m64 0l192 0q64 0 64 64l0 0q0 64-64 64l-192 0q-64 0-64-64l0 0q0-64 64-64Z"></path><path d="M704 448m64 0l192 0q64 0 64 64l0 0q0 64-64 64l-192 0q-64 0-64-64l0 0q0-64 64-64Z"></path><path d="M512 192a320 320 0 1 0 0 640A320 320 0 0 0 512 192z m0 128a192 192 0 1 1 0 384 192 192 0 0 1 0-384z"></path><path d="M512 608a96 96 0 1 0 0-192 96 96 0 0 0 0 192z"></path></svg>