<svg xmlns="http://www.w3.org/2000/svg" class="ijs-icon__svg" width="200" height="200" viewBox="0 0 1024 1024"><path d="M30.190111 227.570772l463.522451 153.462217 0.191987 0.063996 0.127992 0.063996a60.284157 60.284157 0 0 0 36.733658 0l0.255984-0.063996 0.191988-0.063996 463.586446-153.398221c17.278898-5.759633 29.566115-19.45476 29.694107-35.389744 0-16.062976-12.287217-29.694107-29.630111-35.517735L531.342163 3.13708h-0.191988L530.894191 2.945092a58.748255 58.748255 0 0 0-36.733658 0l-0.127992 0.063996-463.84243 153.590209C12.847217 162.35893 0.56 176.054057 0.56 192.053037c0 15.99898 12.287217 29.630111 29.630111 35.453739zM937.524269 395.944039a63.99592 63.99592 0 0 1 52.732638 116.472574l-6.783568 3.007809L512.527362 696.340888 41.581385 515.424422a63.99592 63.99592 0 0 1 38.781528-121.720241l7.167543 2.239858 424.93291 163.253592 425.060903-163.189597z"></path><path d="M937.524269 708.308125a63.99592 63.99592 0 0 1 52.732638 116.408579l-6.783568 3.071804L512.527362 1008.640979 41.581385 827.788508a63.99592 63.99592 0 0 1 38.781528-121.784236l7.167543 2.303853L512.527362 871.497722l424.996907-163.189597z"></path></svg>