<svg xmlns="http://www.w3.org/2000/svg" class="ijs-icon__svg" width="200" height="200" viewBox="0 0 1024 1024"><path d="M0 0h1024v1024H0z" fill="#FFFFFF" fill-opacity=".01"></path><path d="M586.688 661.312a64 64 0 0 1 63.552 56.576l0.448 7.424V896a64 64 0 0 1-127.616 7.488L522.688 896v-21.376H117.248a64 64 0 0 1-7.424-127.552l7.424-0.384 405.312-0.064v-21.312a64 64 0 0 1 64-64z m298.624 85.376a64 64 0 0 1 7.488 127.552l-7.488 0.448h-128a64 64 0 0 1-7.424-127.616l7.424-0.384h128z m-426.624-384a64 64 0 0 1 63.552 56.512l0.448 7.488v21.248L928 448a64 64 0 0 1 7.488 127.552L928 576l-405.376-0.064v21.376a64 64 0 0 1-127.552 7.488l-0.384-7.488V426.688a64 64 0 0 1 64-64zM288 448a64 64 0 0 1 7.488 127.552L288 576H117.312a64 64 0 0 1-7.424-127.552L117.312 448H288z m298.688-384a64 64 0 0 1 63.552 56.512l0.448 7.488v170.688a64 64 0 0 1-127.616 7.424l-0.384-7.424v-21.376H117.248a64 64 0 0 1-7.424-127.552l7.424-0.448h405.312V128a64 64 0 0 1 64-64z m298.624 85.312a64 64 0 0 1 7.488 127.616l-7.488 0.384h-128a64 64 0 0 1-7.424-127.552l7.424-0.448h128z"></path></svg>