<svg xmlns="http://www.w3.org/2000/svg" class="ijs-icon__svg" width="200" height="200" viewBox="0 0 1024 1024"><path d="M64 64m64 0l768 0q64 0 64 64l0 256q0 64-64 64l-768 0q-64 0-64-64l0-256q0-64 64-64Z"></path><path d="M64 640a64 64 0 0 1 64-64h256a64 64 0 0 1 64 64v256a64 64 0 0 1-64 64H128a64 64 0 0 1-64-64v-256z"></path><path d="M576 576m32 0l320 0q32 0 32 32l0 64q0 32-32 32l-320 0q-32 0-32-32l0-64q0-32 32-32Z"></path><path d="M576 832m32 0l320 0q32 0 32 32l0 64q0 32-32 32l-320 0q-32 0-32-32l0-64q0-32 32-32Z"></path></svg>