<svg xmlns="http://www.w3.org/2000/svg" class="ijs-icon__svg" width="200" height="200" viewBox="0 0 1024 1024"><path d="M64 192a448 192 0 1 0 896 0 448 192 0 1 0-896 0Z"></path><path d="M960 512c0 106.048-200.576 192-448 192C270.592 704 73.792 622.208 64.384 519.68L64 512V384c0 106.048 200.576 192 448 192s448-85.952 448-192v128z"></path><path d="M960 832c0 106.048-200.576 192-448 192-241.408 0-438.208-81.792-447.616-184.32L64 832v-128c0 106.048 200.576 192 448 192s448-85.952 448-192v128z" fill-opacity=".5"></path></svg>