<svg xmlns="http://www.w3.org/2000/svg" class="ijs-icon__svg" width="200" height="200" viewBox="0 0 1024 1024"><path d="M224 384a32 32 0 0 1 32 32v441.6a38.4 38.4 0 0 0 38.4 38.4h435.2a38.4 38.4 0 0 0 38.4-38.4V416a32 32 0 0 1 32-32h64a32 32 0 0 1 32 32V896a128 128 0 0 1-128 128H256a128 128 0 0 1-128-128V416a32 32 0 0 1 32-32h64z m211.2 64a32 32 0 0 1 32 32v256a32 32 0 0 1-32 32h-64a32 32 0 0 1-32-32v-256a32 32 0 0 1 32-32h64z m211.2 0a32 32 0 0 1 32 32v256a32 32 0 0 1-32 32h-64a32 32 0 0 1-32-32v-256a32 32 0 0 1 32-32h64z m281.6-256a32 32 0 0 1 32 32v64a32 32 0 0 1-32 32h-832a32 32 0 0 1-32-32v-64a32 32 0 0 1 32-32h832z m-256-192a32 32 0 0 1 32 32v64a32 32 0 0 1-32 32h-320a32 32 0 0 1-32-32v-64a32 32 0 0 1 32-32h320z"></path></svg>