<svg xmlns="http://www.w3.org/2000/svg" class="ijs-icon__svg" width="200" height="200" viewBox="0 0 1024 1024"><path d="M0 0h1024v1024H0z" fill="#FFFFFF" fill-opacity=".01"></path><path d="M896 512a64 64 0 0 1 63.552 56.512L960 576v320a64 64 0 0 1-56.512 63.552L896 960H128a64 64 0 0 1-63.552-56.512L64 896V576.192a64 64 0 0 1 127.552-7.488L192 576.192v255.744h640V576a64 64 0 0 1 56.512-63.552L896 512z m-384.192 228.288a57.408 57.408 0 0 1-38.208-14.528L279.296 531.392a57.6 57.6 0 0 1 75.52-86.592l5.888 5.12 93.504 93.44V128a57.6 57.6 0 0 1 114.752-7.232L569.408 128v415.744l93.888-93.824a57.6 57.6 0 0 1 86.592 75.52l-5.12 5.952-192 192a57.6 57.6 0 0 1-13.632 10.112l-1.536 0.64a37.12 37.12 0 0 1-4.608 2.176l-2.368 0.832a56.32 56.32 0 0 1-18.624 3.136h-0.192z"></path></svg>