<svg xmlns="http://www.w3.org/2000/svg" class="ijs-icon__svg" width="200" height="200" viewBox="0 0 16 16"><path d="M13.5,12.8101755 C13.7761424,12.8101755 14,13.0340331 14,13.3101755 L14,14.3101755 C14,14.5863179 13.7761424,14.8101755 13.5,14.8101755 L0.5,14.8101755 C0.22385763,14.8101755 0,14.5863179 0,14.3101755 L0,13.3101755 C0,13.0340331 0.22385763,12.8101755 0.5,12.8101755 L13.5,12.8101755 Z M10.7712419,0.36471382 L10.8679099,0.45225507 L12.7012464,2.27776878 C13.1568581,2.73338045 13.2376237,3.50359236 12.8494791,4.00115073 L12.7590938,4.1033831 L4.58422852,12.1901755 L0.95018531,12.194014 L0.59507691,8.64875176 L8.94585827,0.29797041 C9.4035039,-0.159675249 10.2633244,-0.0526763463 10.7712419,0.36471382 Z M8.09487758,3.68887865 L2.30339146,9.4805534 L2.45330194,10.6925382 L3.57771873,10.6901755 L9.3598916,4.95389268 L8.09487758,3.68887865 Z M10.0391397,1.74480518 L9.1555378,2.62821848 L10.4247944,3.89747515 L11.3120527,3.01771823 L10.0391397,1.74480518 Z"></path></svg>