<svg xmlns="http://www.w3.org/2000/svg" class="ijs-icon__svg" width="200" height="200" viewBox="0 0 1024 1024"><path d="M590.272 404.8l0.768 2.496 41.92 161.024h103.04c16.768 0 30.72 12.352 31.936 28.416L768 599.04c0 16.064-12.928 29.44-29.632 30.656H608a31.936 31.936 0 0 1-30.336-20.8l-0.704-2.432-21.376-81.92-77.248 222.464c-8.512 24.512-42.496 28.352-56.96 7.36l-1.344-2.176L349.184 629.76H288a31.488 31.488 0 0 1-31.936-28.416L256 599.04c0-16.064 12.928-29.44 29.632-30.656L288 568.32h80c10.688 0 20.608 5.12 26.56 13.632l1.408 2.176 44.672 77.184 88.96-256.32c9.856-28.288 51.2-27.584 60.672-0.192z"></path><path d="M64 320a128 128 0 0 1 128-128h640a128 128 0 0 1 128 128v512a128 128 0 0 1-128 128H192a128 128 0 0 1-128-128V320z m768 0H192v512h640V320z"></path><path d="M704 0H320a64 64 0 0 0 0 128h384a64 64 0 1 0 0-128z"></path></svg>