<svg xmlns="http://www.w3.org/2000/svg" class="ijs-icon__svg" width="200" height="200" viewBox="0 0 1024 1024"><path d="M661.888 22.272H206.464c-54.848 0-99.392 44.48-99.392 99.392v780.672c0 54.912 44.544 99.392 99.392 99.392h607.232c54.912 0 99.392-44.48 99.392-99.392V295.104a56 56 0 0 0-14.4-37.44L703.488 40.832a56 56 0 0 0-41.6-18.56z m-24.96 112l164.096 182.336v573.12H219.072V134.272h417.92z"></path><path d="M661.312 63.232a51.2 51.2 0 0 1 50.816 44.8l0.384 6.4 148.416 142.464a51.2 51.2 0 0 1 50.752 44.8l0.448 6.4a51.2 51.2 0 0 1-44.8 50.816l-6.4 0.384h-199.616a51.2 51.2 0 0 1-50.816-44.8l-0.384-6.4V114.432a51.2 51.2 0 0 1 51.2-51.2z"></path><path d="M529.536 343.104a164.416 164.416 0 1 0-85.12 317.632 164.416 164.416 0 0 0 85.12-317.632z m-19.84 74.24a87.616 87.616 0 1 1-45.376 169.216 87.616 87.616 0 0 1 45.376-169.216z"></path><path d="M543.936 579.328a38.4 38.4 0 0 1 49.6 3.456l4.096 4.736 79.68 108.288a38.4 38.4 0 0 1-57.792 50.24l-4.096-4.736-79.68-108.288a38.4 38.4 0 0 1 8.192-53.76z"></path></svg>