<svg xmlns="http://www.w3.org/2000/svg" class="ijs-icon__svg" width="200" height="200" viewBox="0 0 1024 1024"><path d="M512 0a512 512 0 1 1 0 1024A512 512 0 0 1 512 0z m0 113.777778a398.222222 398.222222 0 1 0 0 796.444444A398.222222 398.222222 0 0 0 512 113.777778z m0 568.888889a56.888889 56.888889 0 1 1 0 113.777777 56.888889 56.888889 0 0 1 0-113.777777z m-2.503111-454.428445a154.055111 154.055111 0 0 1 167.992889 168.049778c0 98.019556-112.014222 115.427556-112.014222 168.049778v56.035555H453.461333V564.337778c0-87.381333 112.071111-116.508444 112.071111-168.049778a56.035556 56.035556 0 0 0-56.035555-55.978667c-50.972444 0-56.035556 55.978667-56.035556 55.978667h-112.071111a162.417778 162.417778 0 0 1 168.106667-168.049778z"></path></svg>