<svg xmlns="http://www.w3.org/2000/svg" class="ijs-icon__svg" width="200" height="200" viewBox="0 0 1024 1024"><path d="M512 0a422.4 422.4 0 0 0-151.936 816.64 64 64 0 0 0 23.04 4.288h257.792a64 64 0 0 0 23.04-4.288A422.464 422.464 0 0 0 512 0z m0 128a294.4 294.4 0 0 1 294.4 294.4l-0.32 14.08a294.528 294.528 0 0 1-175.36 255.36l-2.496 1.024H395.712l10.368 4.352A294.528 294.528 0 0 1 512 128z"></path><path d="M638.464 699.328l7.232 0.192a57.6 57.6 0 0 1 52.8 54.912l-0.192 7.232-15.168 182.592a80 80 0 0 1-71.552 72.96l-8.192 0.384H420.608a80 80 0 0 1-78.592-65.216l-1.152-8.128-15.168-182.528a57.6 57.6 0 0 1 113.728-16.768l1.024 7.168 12.544 150.272h117.952l12.608-150.272a57.6 57.6 0 0 1 47.872-52.032l7.04-0.768zM668.16 329.28a41.6 41.6 0 0 1 41.152 35.456l0.448 6.144V490.88a41.6 41.6 0 0 1-55.04 39.36l-5.568-2.368L512 457.216 374.848 527.872a41.6 41.6 0 0 1-60.16-30.912L314.24 490.88V370.88a41.6 41.6 0 0 1 82.752-6.144l0.448 6.144-0.064 51.776 95.552-49.152a41.6 41.6 0 0 1 32-2.56l6.144 2.56 95.488 49.152v-51.776a41.6 41.6 0 0 1 35.456-41.152l6.144-0.448z"></path></svg>