<svg xmlns="http://www.w3.org/2000/svg" class="ijs-icon__svg" width="200" height="200" viewBox="0 0 1024 1024"><path d="M1021.048682 56.141913l-53.183235-53.247235a10.367851 10.367851 0 0 0-14.335794 0l-95.486627 95.550627A250.044406 250.044406 0 0 0 717.437047 55.373924a250.236403 250.236403 0 0 0-177.597447 73.598942L411.905439 256.779029c-3.839945 3.903944-3.839945 10.303852 0 14.207796l340.987098 341.115096c1.983971 1.919972 4.479936 2.81596 7.167897 2.81596 2.495964 0 5.119926-0.959986 7.103898-2.879959l127.934161-127.870162a251.388386 251.388386 0 0 0 30.463562-318.267425L1021.048682 70.413708a10.239853 10.239853 0 0 0 0-14.271795z" fill-opacity=".5"></path><path d="M595.838795 555.654732a10.047856 10.047856 0 0 0-14.079798 0L498.048201 639.237531l-113.278372-113.342371L468.480626 442.120365c3.839945-3.839945 3.839945-10.239853 0-14.143797l-45.695344-45.695343a10.047856 10.047856 0 0 0-14.207795 0L324.930689 465.928022l-53.951224-53.951224a9.855858 9.855858 0 0 0-7.167897-2.879959c-2.495964 0-5.119926 0.959986-7.103898 2.879959L128.901507 539.910959a251.388386 251.388386 0 0 0-30.463562 318.267425L2.951318 953.72901c-3.903944 3.839945-3.903944 10.239853 0 14.143797l53.183235 53.247234a10.367851 10.367851 0 0 0 14.335794 0l95.486627-95.550626c42.239393 28.799586 91.518684 43.071381 140.669978 43.071381a250.236403 250.236403 0 0 0 177.597447-73.598942l127.870162-127.870162c3.839945-3.903944 3.839945-10.303852 0-14.207796l-53.951224-53.951224 83.710796-83.774796c3.839945-3.839945 3.839945-10.239853 0-14.143797l-45.951339-45.439347z"></path></svg>