<svg xmlns="http://www.w3.org/2000/svg" class="ijs-icon__svg" width="200" height="200" viewBox="0 0 1024 1024"><path d="M637.312 38.4a57.6 57.6 0 0 1 57.152 50.368l0.448 7.232v216.384l144.384 299.392-103.68 50.048L585.344 350.72a57.6 57.6 0 0 1-5.056-16.448l-0.64-8.576V153.6H445.12v172.032a57.6 57.6 0 0 1-2.56 17.024l-3.2 8.064-150.656 311.168-103.68-50.176L329.92 312.32V96a57.6 57.6 0 0 1 50.368-57.152L387.52 38.4h249.792z"></path><path d="M721.024 666.624l7.808 3.456 14.08 7.04 86.016 178.24a10.496 10.496 0 0 1-9.408 15.04h-615.04a10.496 10.496 0 0 1-4.48-1.024l-2.816-1.92a10.496 10.496 0 0 1-2.112-12.096l67.968-140.416-5.312-2.112c71.168 30.592 146.688 39.296 219.904 10.624 20.16-7.872 39.424-18.432 57.664-31.872l13.504-10.56c12.8-10.688 26.112-18.496 39.936-23.808 40.384-15.616 86.4-10.24 132.288 9.408z"></path><path d="M547.2 549.76c-20.416 7.872-40 18.56-58.496 32.128l-13.632 10.688a142.464 142.464 0 0 1-39.424 23.68c-40.448 15.808-86.528 10.496-132.48-9.28l-14.72-6.848-11.328-6.016-7.424-4.672a57.6 57.6 0 0 0-84.672 22.272L91.392 805.12A125.696 125.696 0 0 0 204.48 985.6h615.04a125.696 125.696 0 0 0 113.152-180.288L839.296 611.84a57.6 57.6 0 0 0-19.136-22.4 319.616 319.616 0 0 0-53.76-28.608c-70.912-30.464-146.24-39.232-219.2-11.008z"></path></svg>