<svg xmlns="http://www.w3.org/2000/svg" class="ijs-icon__svg" width="200" height="200" viewBox="0 0 1024 1024"><path d="M470.784 902.016a224 224 0 0 1-325.248-307.84l8.448-8.96 65.152-65.152a64 64 0 0 1 95.488 84.928l-4.992 5.632-65.152 65.088a96 96 0 0 0 128.96 142.016l6.848-6.208 150.848-150.848a96 96 0 0 0 23.232-98.304l-3.264-8.32a64 64 0 1 1 117.12-51.712 224 224 0 0 1-37.888 239.616l-8.704 9.216-150.848 150.848z"></path><path d="M553.216 121.984a224 224 0 0 1 325.248 307.84l-8.448 8.96-65.152 65.152a64 64 0 0 1-95.488-84.928l4.992-5.632 65.152-65.088a96 96 0 0 0-128.96-142.016l-6.848 6.208-150.848 150.848a96 96 0 0 0-23.232 98.304l3.264 8.32a64 64 0 0 1-117.12 51.712 224 224 0 0 1 37.888-239.616l8.704-9.216 150.848-150.848z"></path></svg>