<svg xmlns="http://www.w3.org/2000/svg" class="ijs-icon__svg" width="200" height="200" viewBox="0 0 1024 1024"><path d="M701.12 36.032c30.08 0 55.104 22.592 58.56 51.712l0.384 6.784-0.064 27.648 96.32 0.064c65.792 0 120.768 48.448 130.24 111.168l1.088 9.6 0.32 9.6V857.6a130.88 130.88 0 0 1-121.856 130.048l-9.792 0.32H167.68a131.52 131.52 0 0 1-131.328-120.704L35.968 857.6V252.672c0-68.608 54.08-125.056 121.92-130.048l9.792-0.384 96.256-0.064v-27.648c0-27.52 19.2-50.56 44.928-56.832l7.168-1.28 6.848-0.448c30.08 0 55.04 22.656 58.496 51.776l0.384 6.848v27.584h260.416v-27.648c0-27.52 19.264-50.56 44.992-56.832l7.104-1.28 6.848-0.448z m0 125.056a3.2 3.2 0 0 0-2.496 1.28l-0.384 1.088v76.8H325.76v-76.8c0-1.152-1.28-2.368-2.88-2.368a3.2 3.2 0 0 0-2.56 1.28L320 163.392v76.736h-152.32c-38.784 0-71.04 26.944-75.2 60.928l-0.384 7.424v555.136c0 34.944 29.632 64.192 67.392 67.904l8.256 0.448h688.64c39.04 0 71.104-26.624 75.264-60.864l0.448-7.488V308.544c0-34.944-29.696-64.128-67.52-67.904l-8.192-0.384L704 240.192v-76.8c0-1.088-1.28-2.304-2.88-2.304zM139.52 152.96h164.672v84.736c0 1.28 1.472 2.752 3.2 2.752 1.152 0 2.176-0.64 2.752-1.472l0.448-1.28L310.4 152.96h402.944v84.736c0 1.28 1.472 2.752 3.2 2.752 1.152 0 2.176-0.64 2.688-1.472l0.448-1.28V152.96h164.736c38.784 0 70.976 29.248 75.072 66.816l0.448 8.192v654.336c0 38.656-29.568 70.464-67.328 74.56l-8.192 0.448H139.52a75.456 75.456 0 0 1-75.072-66.816L64 882.304V227.968c0-38.656 29.568-70.464 67.328-74.56l8.192-0.448zM263.936 239.36H167.68c-6.4 0-11.712 4.288-13.376 9.856l-0.448 3.52V857.6c0 6.016 4.288 11.264 10.112 12.8l3.712 0.512h688.64c6.4 0 11.712-4.224 13.376-9.856l0.448-3.456V252.672a13.504 13.504 0 0 0-10.112-12.8l-3.712-0.512-96.32-0.064v22.4a58.88 58.88 0 0 1-117.376 6.784l-0.384-6.848-0.064-22.336H381.76v22.4a58.88 58.88 0 0 1-52.032 58.112l-6.848 0.384a58.944 58.944 0 0 1-58.56-51.712l-0.384-6.784v-22.4z m510.528 406.4c32.384 0 58.944 26.24 58.944 58.56a58.88 58.88 0 0 1-52.096 58.176l-6.848 0.384H310.144a58.88 58.88 0 0 1-58.88-58.56 58.88 58.88 0 0 1 52.032-58.176l6.848-0.384H774.4z m0-183.872c32.384 0 58.944 26.24 58.944 58.56a58.88 58.88 0 0 1-52.096 58.176l-6.848 0.384H513.28a58.88 58.88 0 0 1-58.88-58.56 58.88 58.88 0 0 1 52.032-58.176l6.848-0.384H774.4z"></path></svg>