<svg xmlns="http://www.w3.org/2000/svg" class="ijs-icon__svg" width="200" height="200" viewBox="0 0 1024 1024"><path d="M0 0.383856h1023.616144v1023.616144H0z" fill="#FFFFFF" fill-opacity=".01"></path><path d="M332.035487 319.880045v383.856054h-127.952018v-383.856054zM747.879545 127.952018a95.964013 95.964013 0 0 1 95.516182 86.687492l0.447832 9.276521v479.820068h-127.952018v-447.832063h-95.964014v-127.952018h127.952018z"></path><path d="M514.623016 169.28052l142.02674-142.02674a15.994002 15.994002 0 0 1 27.25378 11.387729V345.214545a15.994002 15.994002 0 0 1-27.317756 11.323753l-142.02674-142.02674a31.988004 31.988004 0 0 1 0-45.231038h0.063976zM268.059478 0a191.928027 191.928027 0 1 0 0 383.856054 191.928027 191.928027 0 0 0 0-383.856054z m0 127.952018a63.976009 63.976009 0 1 1 0 127.952018 63.976009 63.976009 0 0 1 0-127.952018zM268.059478 639.76009a191.928027 191.928027 0 1 0 0 383.856054 191.928027 191.928027 0 0 0 0-383.856054z m0 127.952018a63.976009 63.976009 0 1 1 0 127.952018 63.976009 63.976009 0 0 1 0-127.952018zM779.86755 639.76009a191.928027 191.928027 0 1 0 0 383.856054 191.928027 191.928027 0 0 0 0-383.856054z m0 127.952018a63.976009 63.976009 0 1 1 0 127.952018 63.976009 63.976009 0 0 1 0-127.952018z"></path></svg>