<svg xmlns="http://www.w3.org/2000/svg" class="ijs-icon__svg" width="200" height="200" viewBox="0 0 1024 1024"><path d="M639.92828 895.497961a127.92828 127.92828 0 0 1-255.53674 9.594621L384.07172 895.497961h255.85656z m-543.695191-63.96414a31.98207 31.98207 0 0 1-31.98207-31.98207v-63.96414a31.98207 31.98207 0 0 1 31.98207-31.98207H128.215159V479.731051c0-174.302282 138.290471-319.053131 319.820701-346.941496V63.96414a63.96414 63.96414 0 1 1 127.92828 0v68.825415c181.53023 27.952329 319.820701 172.639214 319.820701 346.941496V703.605541h31.98207a31.98207 31.98207 0 0 1 31.98207 31.98207v63.96414a31.98207 31.98207 0 0 1-31.98207 31.98207h-831.533822zM512 255.85656a255.85656 255.85656 0 0 0-255.53674 243.063733L256.14344 511.713121v191.89242h511.71312V511.713121a255.85656 255.85656 0 0 0-243.063732-255.53674L512 255.85656z"></path></svg>