<svg xmlns="http://www.w3.org/2000/svg" class="ijs-icon__svg" width="200" height="200" viewBox="0 0 1024 1024"><path d="M0 192m64 0l128 0q64 0 64 64l0 0q0 64-64 64l-128 0q-64 0-64-64l0 0q0-64 64-64Z"></path><path d="M768 704m64 0l128 0q64 0 64 64l0 0q0 64-64 64l-128 0q-64 0-64-64l0 0q0-64 64-64Z"></path><path d="M704 192h256a64 64 0 0 1 0 128h-256a64 64 0 0 1 0-128zM64 704h256a64 64 0 0 1 0 128H64a64 64 0 0 1 0-128z" fill-opacity=".5"></path><path d="M320 256m-192 0a192 192 0 1 0 384 0 192 192 0 1 0-384 0Z"></path><path d="M704 768m-192 0a192 192 0 1 0 384 0 192 192 0 1 0-384 0Z"></path></svg>