<svg xmlns="http://www.w3.org/2000/svg" class="ijs-icon__svg" width="200" height="200" viewBox="0 0 1024 1024"><path d="M544 0A224 224 0 0 1 768 224V320h64a128 128 0 0 1 128 128v448a128 128 0 0 1-128 128H192a128 128 0 0 1-128-128V448a128 128 0 0 1 128-128h64V224A224 224 0 0 1 480 0h64zM832 448H192v448h640V448zM544 128h-64a96 96 0 0 0-95.552 86.784L384 224V320h256V224a96 96 0 0 0-86.784-95.552L544 128z"></path><path d="M448 576m64 0l0 0q64 0 64 64l0 64q0 64-64 64l0 0q-64 0-64-64l0-64q0-64 64-64Z" fill-opacity=".5"></path></svg>