<svg xmlns="http://www.w3.org/2000/svg" class="ijs-icon__svg" width="200" height="200" viewBox="0 0 1024 1024"><path d="M340.121574 0a164.735426 164.735426 0 1 0 0 329.534629 164.735426 164.735426 0 0 0 0-329.534629zM410.977578 448.223219a63.776781 63.776781 0 0 1 7.461884 127.107125l-7.461884 0.446437H237.37718c-64.79721 0-109.823617 44.643747-109.823617 109.823618 0 61.799701 40.370703 105.104136 99.810662 109.440956l10.012955 0.382661h372.073742a63.776781 63.776781 0 0 1 7.398106 127.107125l-7.398106 0.446437H237.37718C102.361734 922.977578 0 821.572496 0 685.600399 0 554.092676 95.856502 454.856004 224.49427 448.542103l12.88291-0.318884h173.600398z"></path><path d="M783.05132 100.958645C918.066766 100.958645 1020.4285 202.491281 1020.4285 338.399601 1020.4285 469.907324 924.571998 569.207773 795.93423 575.394121l-12.88291 0.318883H411.041355a63.776781 63.776781 0 0 1-7.461883-127.170901l7.461883-0.382661h372.009965c64.79721 0 109.823617-44.643747 109.823618-109.887394 0-61.735924-40.370703-105.040359-99.746886-109.440957l-10.076732-0.382661H410.977578a63.776781 63.776781 0 0 1-7.398106-127.107125l7.398106-0.446437h372.073742zM212.568012 100.958645a63.776781 63.776781 0 0 1 7.461883 127.170902l-7.461883 0.38266H63.776781a63.776781 63.776781 0 0 1-7.461883-127.107125L63.776781 100.958645h148.791231zM956.651719 795.424016a63.776781 63.776781 0 0 1 7.461883 127.107125L956.651719 922.977578h-148.791231a63.776781 63.776781 0 0 1-7.461883-127.107125l7.461883-0.446437H956.651719z"></path><path d="M704.414549 694.465371a164.735426 164.735426 0 1 0 0 329.534629 164.735426 164.735426 0 0 0 0-329.534629z"></path></svg>