<svg xmlns="http://www.w3.org/2000/svg" class="ijs-icon__svg" width="200" height="200" viewBox="0 0 1024 1024"><path d="M951.978667 64.284444c10.638222 8.760889 16.270222 22.186667 14.961777 35.953778L841.728 929.564444a39.822222 39.822222 0 0 1-18.204444 31.004445 32.881778 32.881778 0 0 1-33.564445 0.455111l-264.647111-151.722667-177.152 149.617778a32.995556 32.995556 0 0 1-36.750222 4.437333 39.822222 39.822222 0 0 1-20.650667-33.905777l-12.686222-274.204445-204.231111-141.425778a41.016889 41.016889 0 0 1-16.839111-36.408888 39.765333 39.765333 0 0 1 21.219555-33.393778L916.650667 60.302222a32.938667 32.938667 0 0 1 35.328 3.982222z m-118.727111 159.288889L243.939556 493.283556l145.180444 100.579555 8.021333 174.705778 115.655111-97.564445 232.732445 133.461334L833.251556 223.573333z m-125.496889 192.625778a56.888889 56.888889 0 0 1 2.56 75.207111l-4.892445 5.233778-120.263111 113.493333a56.888889 56.888889 0 0 1-82.944-77.539555l4.892445-5.233778 120.263111-113.493333a56.888889 56.888889 0 0 1 80.384 2.332444z"></path></svg>