<svg xmlns="http://www.w3.org/2000/svg" class="ijs-icon__svg" width="200" height="200" viewBox="0 0 1024 1024"><path d="M810.752 266.752l211.776 102.592-95.936 49.6 5.12 15.296c10.368 33.28 16.448 67.712 18.24 102.272l0.512 20.736c0 237.696-198.976 430.72-443.136 430.72a453.76 453.76 0 0 1-210.176-51.456l-24.832-13.056 54.848-104.064 24.704 12.992c47.36 24.832 101.12 37.952 155.456 37.952 179.584 0 325.376-140.672 325.376-313.088 0-29.824-4.736-59.776-13.888-88.96l-4.864-14.144-110.848 20.928 107.648-208.32zM516.672 99.968c73.344 0 145.92 17.792 210.176 51.52l24.768 13.056-54.784 104-24.768-12.992A336.256 336.256 0 0 0 516.672 217.6c-179.584 0-325.376 140.736-325.376 313.152 0 29.76 4.736 59.776 13.888 88.96l4.8 14.08 110.912-20.864-107.648 208.256-211.776-102.528 95.808-49.664-5.12-15.232a419.648 419.648 0 0 1-18.112-102.272l-0.576-20.736c0-237.76 199.04-430.72 443.2-430.72z"></path></svg>