<svg xmlns="http://www.w3.org/2000/svg" class="ijs-icon__svg" width="200" height="200" viewBox="0 0 1024 1024"><path d="M512 0c125.76 36.032 211.136 121.344 256 256 22.336 66.944 33.536 142.848 33.664 227.584l-0.384 28.608c-0.448 16.64 4.672 42.112 15.296 76.416l7.936 24.128 9.536 26.816 11.2 29.44 12.8 32 14.528 34.624 16.128 37.312a64 64 0 0 1-85.12 83.968L608 768h-192l-193.984 88.192a64 64 0 0 1-84.928-84.416l24.128-55.04 13.952-33.472 6.4-15.68 11.392-29.44c22.912-60.864 34.048-103.04 33.28-126.528C223.04 410.368 232.96 325.12 256 256 296.448 134.656 381.76 49.28 512 0z m4.48 137.728l-5.952 3.008c-67.456 35.84-110.08 86.656-133.12 155.712-17.792 53.504-25.984 123.968-23.232 211.072 1.152 35.2-7.808 78.976-27.072 136.128l-10.24 28.8L388.288 640h247.424l74.432 33.792-4.096-11.392c-21.184-60.608-32-107.264-32.768-144.512v-9.152c2.304-82.176-6.912-152.832-26.688-212.288-24.768-74.24-62.848-123.328-118.144-152.768l-11.968-5.952z"></path><path d="M416 832h192L512 1024z"></path><path d="M512 384m-64 0a64 64 0 1 0 128 0 64 64 0 1 0-128 0Z"></path></svg>