<svg xmlns="http://www.w3.org/2000/svg" class="ijs-icon__svg" width="200" height="200" viewBox="0 0 18 18"><path d="M13.5,12 C15.1568625,12 16.5,10.6568625 16.5,9 C16.5,7.3431375 15.1568625,6 13.5,6"></path><path d="M13.5,5.25 C15.5710761,5.25 17.25,6.92892394 17.25,9 C17.25,11.0042672 15.6776467,12.6412743 13.6991593,12.744802 L13.5,12.75 L13.5,11.25 C14.7426489,11.25 15.75,10.2426489 15.75,9 C15.75,7.8091281 14.824846,6.83435443 13.6540498,6.75519077 L13.5,6.75 L13.5,5.25 Z"></path><path d="M4.5,6 C2.843145,6 1.5,7.3431375 1.5,9 C1.5,10.6568625 2.843145,12 4.5,12"></path><path d="M4.5,5.25 L4.5,6.75 C3.25735568,6.75 2.25,7.75735394 2.25,9 C2.25,10.1908691 3.17515826,11.1656453 4.34595077,11.2448092 L4.5,11.25 L4.5,12.75 C2.42892914,12.75 0.75,11.0710738 0.75,9 C0.75,6.99573507 2.32235819,5.35872588 4.30084115,5.25519799 L4.5,5.25 Z"></path><path d="M9,0.75 C11.8270037,0.75 14.1321314,2.98445008 14.2456209,5.78359548 L14.25,6 L14.25,12 C14.25,14.8994886 11.8994886,17.25 9,17.25 C8.58578644,17.25 8.25,16.9142136 8.25,16.5 C8.25,16.0857864 8.58578644,15.75 9,15.75 C11.004253,15.75 12.6412733,14.177633 12.744802,12.199158 L12.75,12 L12.75,6 C12.75,3.92893385 11.0710642,2.25 9,2.25 C6.9957443,2.25 5.35872648,3.8223626 5.25519802,5.80084158 L5.25,6 L5.25,12 C5.25,12.4142136 4.91421356,12.75 4.5,12.75 C4.12030423,12.75 3.80650904,12.4678461 3.75684662,12.1017706 L3.75,12 L3.75,6 C3.75,3.10050633 6.10050904,0.75 9,0.75 Z"></path></svg>