<svg xmlns="http://www.w3.org/2000/svg" class="ijs-icon__svg" width="200" height="200" viewBox="0 0 1024 1024"><path d="M511.36 0c30.144 0 59.712 2.624 88.448 7.68l43.008 94.208c18.56 40.832 63.744 62.528 107.264 51.648l100.416-25.152a514.176 514.176 0 0 1 110.336 138.24L913.92 359.04a93.12 93.12 0 0 0 26.432 116.096l82.24 62.848a509.44 509.44 0 0 1-39.168 172.416l-101.504 20.992a93.12 93.12 0 0 0-74.24 93.12l2.112 103.488a509.952 509.952 0 0 1-159.296 76.8L570.88 938.56a93.12 93.12 0 0 0-119.04 0L372.16 1004.8a509.952 509.952 0 0 1-159.36-76.8l2.176-103.552a93.12 93.12 0 0 0-74.24-93.12L39.232 710.4A509.44 509.44 0 0 1 0 537.984l82.24-62.848A93.12 93.12 0 0 0 108.8 359.04L61.888 266.624a514.176 514.176 0 0 1 110.336-138.24l100.48 25.152c43.52 10.88 88.576-10.816 107.2-51.648L422.912 7.616A515.2 515.2 0 0 1 511.36 0zM512 256a256 256 0 1 0 0 512 256 256 0 0 0 0-512z"></path><path d="M512.512 688a176 176 0 1 0 0-352 176 176 0 0 0 0 352z" fill-opacity=".5"></path></svg>