<svg xmlns="http://www.w3.org/2000/svg" class="ijs-icon__svg" width="200" height="200" viewBox="0 0 1024 1024"><path d="M542.516556 13.179058l-10.236161-8.188929a21.176059 21.176059 0 0 0-27.189804 0L488.840685 17.913283l-14.202674 10.492065-16.889667 11.579658a632.722729 632.722729 0 0 1-9.468449 6.141696l-20.792203 12.795202a714.164188 714.164188 0 0 1-342.3996 96.475822 21.112083 21.112083 0 0 0-20.920155 20.920155v429.023116l0.383856 12.02749C76.067475 806.737473 355.834562 1023.616144 518.717481 1023.616144c161.859303 0 454.549544-226.283144 454.549544-418.275147V176.317881l-0.383856-4.158441a21.112083 21.112083 0 0 0-20.408347-16.761714A714.164188 714.164188 0 0 1 610.011246 58.857928L589.155067 46.126702a623.510184 623.510184 0 0 1-18.169187-12.027489L555.375734 22.967387 542.516556 13.179058z m-31.668124 145.673372l7.869049-5.182056 8.188929 5.373984a796.501312 796.501312 0 0 0 299.59965 112.725728l18.744971 2.814945v330.755966l-0.383856 8.572785C833.607397 718.962389 625.877296 895.664126 518.717481 895.664126l-9.404473-0.383856C394.156191 885.683869 192.119955 707.57466 192.119955 605.340997V274.457079l18.680995-2.750969c117.268024-19.256779 217.710359-60.457329 300.047482-112.917656z"></path><path d="M700.089466 546.163189l-224.299887 264.604773c-15.162314 17.785331-36.722229 2.431088-30.708484-21.687867l49.965263-200.308884-167.745096-41.84031c-14.714482-3.646633-18.297139-27.189804-6.205673-41.456454l224.491816-264.540797c15.162314-17.849307 36.658253-2.495064 30.708484 21.623891l-50.029239 200.308884 167.809072 41.84031c14.58653 3.646633 18.105211 27.317756 6.07772 41.456454z"></path></svg>