<svg xmlns="http://www.w3.org/2000/svg" class="ijs-icon__svg" width="200" height="200" viewBox="0 0 1024 1024"><path d="M512 0a512 512 0 1 1 0 1024A512 512 0 0 1 512 0z m0 128a384 384 0 1 0 0 768A384 384 0 0 0 512 128z"></path><path d="M512 0c141.44 0 256 229.248 256 512s-114.56 512-256 512-256-229.248-256-512 114.56-512 256-512z m0 128c-11.456 0-38.272 22.656-66.56 79.232C407.168 283.84 384 393.344 384 512c0 118.656 23.168 228.16 61.44 304.768C473.728 873.344 500.544 896 512 896c11.456 0 38.272-22.656 66.56-79.232C616.832 740.16 640 630.656 640 512c0-118.656-23.168-228.16-61.44-304.768C550.272 150.656 523.456 128 512 128z"></path><path d="M1024 448m0 64l0 0q0 64-64 64l-896 0q-64 0-64-64l0 0q0-64 64-64l896 0q64 0 64 64Z"></path></svg>