<svg xmlns="http://www.w3.org/2000/svg" class="ijs-icon__svg" width="200" height="200" viewBox="0 0 1024 1024"><path d="M512 175.552a64 64 0 0 1 63.552 56.512L576 239.552v497.088a64 64 0 0 1-127.552 7.424L448 736.64V239.552a64 64 0 0 1 64-64z"></path><path d="M846.912 62.4H177.088a33.6 33.6 0 0 0-33.6 33.6v143.552c0 18.56 15.04 33.6 33.6 33.6h669.824c18.56 0 33.6-15.04 33.6-33.6V96a33.6 33.6 0 0 0-33.6-33.6zM750.592 440.064a48 48 0 0 1 36.224 16.512l4.16 5.568 144.192 224.64a48 48 0 0 1-76.544 57.536l-4.288-5.696-129.984-202.56H299.072L169.728 738.56a48 48 0 0 1-60.032 17.92l-6.272-3.328a48 48 0 0 1-17.984-60.032l3.392-6.272 143.488-224.64a48 48 0 0 1 33.536-21.632l6.912-0.512h477.824z"></path><path d="M224.96 703.04H33.6A33.6 33.6 0 0 0 0 736.64v191.36c0 18.56 15.04 33.6 33.6 33.6h191.36c18.56 0 33.6-15.04 33.6-33.6v-191.36a33.6 33.6 0 0 0-33.6-33.6zM607.68 703.04h-191.36a33.6 33.6 0 0 0-33.6 33.6v191.36c0 18.56 15.04 33.6 33.6 33.6h191.36c18.56 0 33.6-15.04 33.6-33.6v-191.36a33.6 33.6 0 0 0-33.6-33.6zM990.4 703.04h-191.36a33.6 33.6 0 0 0-33.6 33.6v191.36c0 18.56 15.04 33.6 33.6 33.6h191.36c18.56 0 33.6-15.04 33.6-33.6v-191.36a33.6 33.6 0 0 0-33.6-33.6z"></path></svg>