<svg xmlns="http://www.w3.org/2000/svg" class="ijs-icon__svg" width="200" height="200" viewBox="0 0 1024 1024"><path d="M256 416v441.6a38.4 38.4 0 0 0 38.4 38.4h435.2a38.4 38.4 0 0 0 38.4-38.4V416a32 32 0 0 1 32-32h64a32 32 0 0 1 32 32V896a128 128 0 0 1-128 128H256a128 128 0 0 1-128-128V416a32 32 0 0 1 32-32h64a32 32 0 0 1 32 32z"></path><path d="M320 0m32 0l320 0q32 0 32 32l0 64q0 32-32 32l-320 0q-32 0-32-32l0-64q0-32 32-32Z"></path><path d="M96 192h832a32 32 0 0 1 32 32v64a32 32 0 0 1-32 32H96a32 32 0 0 1-32-32v-64A32 32 0 0 1 96 192zM576 384v256a32 32 0 0 1-32 32h-64A32 32 0 0 1 448 640V384a32 32 0 0 1 32-32h64A32 32 0 0 1 576 384z"></path><path d="M649.344 553.344l45.312 45.312a32 32 0 0 1 0 45.248l-160 160a32 32 0 0 1-45.312 0l-160-160a32 32 0 0 1 0-45.248l45.312-45.312a32 32 0 0 1 45.248 0l69.44 69.504a32 32 0 0 0 45.312 0l69.44-69.504a32 32 0 0 1 45.248 0z"></path></svg>