<svg xmlns="http://www.w3.org/2000/svg" class="ijs-icon__svg" width="200" height="200" viewBox="0 0 1088 1024"><path d="M64 128m64 0l256 0q64 0 64 64l0 256q0 64-64 64l-256 0q-64 0-64-64l0-256q0-64 64-64Z"></path><path d="M768 48.470996m45.254834 45.254834l181.019336 181.019336q45.254834 45.254834 0 90.509668l-181.019336 181.019336q-45.254834 45.254834-90.509668 0l-181.019336-181.019336q-45.254834-45.254834 0-90.509668l181.019336-181.019336q45.254834-45.254834 90.509668 0Z" fill-opacity=".5"></path><path d="M64 640m64 0l256 0q64 0 64 64l0 256q0 64-64 64l-256 0q-64 0-64-64l0-256q0-64 64-64Z"></path><path d="M576 640m64 0l256 0q64 0 64 64l0 256q0 64-64 64l-256 0q-64 0-64-64l0-256q0-64 64-64Z"></path></svg>