<svg xmlns="http://www.w3.org/2000/svg" class="ijs-icon__svg" width="200" height="200" viewBox="0 0 1024 1024"><path d="M570.944 422.656l6.848 5.632 144.128 129.088c21.12 19.008 23.68 52.352 5.44 74.56a49.024 49.024 0 0 1-66.176 9.728L568.896 559.296v408.704c0 34.624-30.72 56-58.432 56-25.6 0-52.48-24.832-55.36-56V559.488L368 637.632a49.088 49.088 0 0 1-71.296-5.76 54.528 54.528 0 0 1 5.44-74.496l144.128-129.088a97.728 97.728 0 0 1 124.8-5.632zM512 64c81.344 0 160.512 28.416 222.848 79.936 37.12 30.592 73.792 86.272 110.208 167.04l3.968 1.472a282.88 282.88 0 0 1 174.72 247.744L1024 572.8a279.104 279.104 0 0 1-83.2 199.04 271.104 271.104 0 0 1-203.328 80l2.112-111.616c91.136-10.624 171.712-72.512 171.712-167.488 0-77.44-50.56-145.92-125.824-166.272l-33.28-10.624-6.4-31.552c-22.016-110.4-120.512-183.36-233.856-183.36-113.472 0-211.84 72.832-233.792 183.36l-8.256 33.792-31.36 8.512C163.264 426.88 114.56 495.168 114.56 572.672c0 94.912 65.088 156.864 169.92 167.488l-0.704 114.432A282.88 282.88 0 0 1 83.2 771.776 279.104 279.104 0 0 1 0 572.8c0-118.208 63.424-224.768 177.28-260.032l2.304-7.68a347.648 347.648 0 0 1 97.024-150.272l12.48-10.816A350.4 350.4 0 0 1 512 64z"></path></svg>