<svg xmlns="http://www.w3.org/2000/svg" class="ijs-icon__svg" width="200" height="200" viewBox="0 0 1024 1024"><path d="M32 32h960v960H32z" fill="#FFFFFF" fill-opacity=".01"></path><path d="M701.696 121.344a64 64 0 0 1 7.488 127.552l-7.488 0.448H255.68c-58.56 0-100.288 41.728-100.288 100.288 0 55.296 37.248 95.616 90.688 99.968l9.6 0.384h399.104a64 64 0 0 1 7.488 127.552l-7.488 0.448H255.68C126.4 577.92 27.392 478.912 27.392 349.632 27.392 224.64 120.192 127.744 243.2 121.6l12.416-0.256h446.08z"></path><path d="M772.16 449.92c129.28 0 228.288 99.136 228.288 228.352 0 125.12-92.8 221.952-215.872 228.032l-12.416 0.32H138.24a64 64 0 0 1-7.424-127.552l7.424-0.448h633.856c58.56 0 100.288-41.792 100.288-100.352 0-55.296-37.248-95.616-90.688-99.904l-9.6-0.384H654.72a64 64 0 0 1-7.488-127.552l7.488-0.448h117.376z"></path><path d="M158.4 686.656a54.592 54.592 0 0 1 82.112 71.616l-4.928 5.568-78.784 78.72 78.784 78.848c19.584 19.52 21.184 50.176 4.928 71.616l-4.928 5.568a54.592 54.592 0 0 1-71.616 4.928l-5.568-4.928L41.024 881.28a54.592 54.592 0 0 1-4.864-71.616l4.864-5.568 117.376-117.376zM823.04 341.824a156.544 156.544 0 1 0 0-313.024 156.544 156.544 0 0 0 0 313.024z"></path></svg>