<svg xmlns="http://www.w3.org/2000/svg" class="ijs-icon__svg" width="200" height="200" viewBox="0 0 32 32"><path d="M28 4h-4c0-2.211-1.789-4-4-4h-8c-2.211 0-4 1.789-4 4h-8v4h4v18c0 3.312 2.688 6 6 6h12c3.312 0 6-2.688 6-6v-18h4v-4h-4zM12 24c-1.105 0-2-0.895-2-2s0.895-2 2-2 2 0.895 2 2-0.895 2-2 2zM12 16c-1.105 0-2-0.895-2-2s0.895-2 2-2 2 0.895 2 2-0.895 2-2 2zM20 24c-1.105 0-2-0.895-2-2s0.895-2 2-2 2 0.895 2 2-0.895 2-2 2zM20 16c-1.105 0-2-0.895-2-2s0.895-2 2-2 2 0.895 2 2-0.895 2-2 2z"></path></svg>