<svg xmlns="http://www.w3.org/2000/svg" class="ijs-icon__svg" width="200" height="200" viewBox="0 0 32 32"><path d="M18.125 13.879c0.797 0.799 1.008 1.93 0.719 2.943l5.156-8.822-8.703 5.139c0.984-0.243 2.058-0.030 2.828 0.74zM13.883 18.121c-0.773-0.771-0.984-1.85-0.742-2.836l-5.141 8.715 8.832-5.16c-1.016 0.293-2.148 0.082-2.949-0.719zM16 4c6.617 0 12 5.383 12 12s-5.383 12-12 12-12-5.383-12-12 5.383-12 12-12M16 0c-8.836 0-16 7.164-16 16s7.164 16 16 16 16-7.164 16-16-7.164-16-16-16v0z"></path></svg>