<svg xmlns="http://www.w3.org/2000/svg" class="ijs-icon__svg" width="200" height="200" viewBox="0 0 32 32"><path d="M16 0c-8.836 0-16 7.164-16 16s7.164 16 16 16 16-7.164 16-16-7.164-16-16-16zM16 4c5.207 0 9.605 3.354 11.266 8h-22.532c1.661-4.646 6.059-8 11.266-8zM16 18c-1.105 0-2-0.895-2-2s0.895-2 2-2 2 0.895 2 2-0.895 2-2 2zM4 16c5.465 0 9.891 5.266 9.984 11.797-5.656-0.969-9.984-5.871-9.984-11.797zM18.016 27.797c0.093-6.531 4.519-11.797 9.984-11.797 0 5.926-4.328 10.828-9.984 11.797z"></path></svg>