<svg xmlns="http://www.w3.org/2000/svg" class="ijs-icon__svg" width="200" height="200" viewBox="0 0 48 48"><path d="M32.5 14c-3.59 0-6.5 2.91-6.5 6.5s2.91 6.5 6.5 6.5 6.5-2.91 6.5-6.5-2.91-6.5-6.5-6.5zM38 38v2.5c0 1.38 1.12 2.5 2.5 2.5s2.5-1.12 2.5-2.5v-2.5h1c2.21 0 4-1.79 4-4l-0-13.5c0-8.56-6.939-15.5-15.5-15.5-4.51 0-8.57 1.93-11.4 5l-17.1 0c-2.21 0-4 1.79-4 4v20c0 2.21 1.79 4 4 4h1v2.5c-0 1.38 1.12 2.5 2.5 2.5s2.5-1.12 2.5-2.5v-2.5h28zM5 17.5c0-1.38 1.12-2.5 2.5-2.5s2.5 1.12 2.5 2.5-1.12 2.5-2.5 2.5-2.5-1.12-2.5-2.5zM32.5 10c5.8 0 10.5 4.7 10.5 10.5s-4.7 10.5-10.5 10.5-10.5-4.7-10.5-10.5 4.7-10.5 10.5-10.5z"></path></svg>