<svg xmlns="http://www.w3.org/2000/svg" class="ijs-icon__svg" width="200" height="200" viewBox="0 0 48 48"><path d="M9 40c0 2.21 1.79 4 4 4h31c2.21 0 4-1.79 4-4l-0-23c0-2.21-1.79-4-4-4l-12 0c-1.1 0-2-0.9-2-2s0.9-2 2-2h13.5c1.38-0 2.5-1.12 2.5-2.5s-1.12-2.5-2.5-2.5h-16.5c-1.87 0-3.561 1.27-4 3l-1.99 6h-4.090c-1.34 0-2.53 0.53-3.39 1.38l-5.060 5.080c-0.91 0.9-1.47 2.16-1.47 3.54v3h-4v-0.5c0-1.38-1.12-2.5-2.5-2.5s-2.5 1.12-2.5 2.5v13c0 1.38 1.12 2.5 2.5 2.5s2.5-1.12 2.5-2.5v-0.5h4v2zM22.2 29h18.6c1.22 0 2.2 0.98 2.2 2.2v5.6c0 1.22-0.98 2.2-2.2 2.2h-18.6c-1.22 0-2.2-0.98-2.2-2.2v-5.6c0-1.22 0.98-2.2 2.2-2.2zM20 20.5c0-1.38 1.12-2.5 2.5-2.5s2.5 1.12 2.5 2.5-1.12 2.5-2.5 2.5-2.5-1.12-2.5-2.5z"></path></svg>