<svg xmlns="http://www.w3.org/2000/svg" class="ijs-icon__svg" width="200" height="200" viewBox="0 0 48 48"><path d="M41.641 0c3.449 5.58 5.359 12.061 5.359 18.46 0 2.82-0.29 5.58-1 8.25-0.52 1.84-2.029 3.29-4 3.29-1.189 0-2.27-0.52-3-1.35v0.35c0 2.21-1.79 4-4 4s-4-1.79-4-4v2c0 2.21-1.79 4-4 4s-4-1.79-4-4v13c0 2.21-1.79 4-4 4s-4-1.79-4-4l0-22.811c0-1.109-0.9-2-2-2-0.19 0-0.37 0.030-0.55 0.080l-5.65 2.3c-0.54 0.271-1.15 0.431-1.8 0.431-2.21 0-4-1.79-4-4 0-1.66 1.020-3.090 2.46-3.7 6.49-3.35 11.69-7.46 15.33-14.3h22.851z"></path></svg>