<svg xmlns="http://www.w3.org/2000/svg" class="ijs-icon__svg" width="200" height="200" viewBox="0 0 48 48"><path d="M0 24.5c0 12.98 10.52 23.5 23.5 23.5s23.5-10.52 23.5-23.5-10.52-23.5-23.5-23.5c-12.98 0-23.5 10.52-23.5 23.5zM21 8.5c0-1.38 1.12-2.5 2.5-2.5s2.5 1.12 2.5 2.5-1.12 2.5-2.5 2.5-2.5-1.12-2.5-2.5zM5 24.5c0-1.38 1.12-2.5 2.5-2.5s2.5 1.12 2.5 2.5-1.12 2.5-2.5 2.5-2.5-1.12-2.5-2.5zM37 24.5c0-1.38 1.12-2.5 2.5-2.5s2.5 1.12 2.5 2.5-1.12 2.5-2.5 2.5-2.5-1.12-2.5-2.5zM21 40.5c0-1.38 1.12-2.5 2.5-2.5s2.5 1.12 2.5 2.5-1.12 2.5-2.5 2.5-2.5-1.12-2.5-2.5zM19.83 25.689c-0.53-0.52-7.26-7.369-7.26-7.369-0.76-0.76-0.76-1.99 0-2.75s1.99-0.76 2.75 0l6.6 6.619c0.59 0.58 1.56 0.58 2.141 0l9.619-9.619c0.76-0.76 1.99-0.76 2.75 0s0.76 1.99 0 2.75c0 0-9.76 9.88-10.279 10.4-0.811 0.79-1.93 1.28-3.151 1.28-1.24 0-2.36-0.5-3.17-1.311z"></path></svg>