<svg xmlns="http://www.w3.org/2000/svg" class="ijs-icon__svg" width="200" height="200" viewBox="0 0 48 48"><path d="M4 44c0 2.21 1.79 4 4 4h32c2.21 0 4-1.79 4-4l-0-20c0-2.21-1.79-4-4-4h-24v-7c0-4.42 3.58-8 8-8s8 3.58 8 8v0.5c0 1.38 1.12 2.5 2.5 2.5s2.5-1.12 2.5-2.5v-0.5c0-7.18-5.82-13-13-13s-13 5.82-13 13v7l-3-0c-2.21 0-4 1.79-4 4l0 20zM20 31c0-2.21 1.79-4 4-4s4 1.79 4 4c0 1.41-0.73 2.65-1.83 3.36 0 0 0.391 2.36 0.83 5.14 0 0.83-0.67 1.5-1.5 1.5h-3c-0.83 0-1.5-0.67-1.5-1.5l0.83-5.14c-1.1-0.71-1.83-1.95-1.83-3.36z"></path></svg>