<svg xmlns="http://www.w3.org/2000/svg" class="ijs-icon__svg" width="200" height="200" viewBox="0 0 48 48"><path d="M32 24c0 1.66 1.34 3 3 3s3-1.34 3-3-1.34-3-3-3-3 1.34-3 3zM10 24c0 1.66 1.34 3 3 3s3-1.34 3-3-1.34-3-3-3-3 1.34-3 3zM28.34 22h-8.68c0.22 0.63 0.34 1.3 0.34 2s-0.12 1.37-0.34 2h8.68c-0.22-0.63-0.34-1.3-0.34-2s0.12-1.37 0.34-2zM0 38c0 2.21 1.79 4 4 4h40c2.21 0 4-1.79 4-4l-0-28c0-2.21-1.79-4-4-4h-40c-2.21 0-4 1.79-4 4v28zM13 31c-3.87 0-7-3.13-7-7s3.13-7 7-7h22c3.87 0 7 3.13 7 7s-3.13 7-7 7h-22z"></path></svg>