<svg xmlns="http://www.w3.org/2000/svg" class="ijs-icon__svg" width="200" height="200" viewBox="0 0 48 48"><path d="M7 44c0 2.21 1.79 4 4 4h25c2.21 0 4-1.79 4-4l-0-36c0-2.21-1.79-4-4-4h-5v-1.8c0-1.22-0.98-2.2-2.2-2.2h-10.6c-1.22 0-2.2 0.98-2.2 2.2v1.8h-5c-2.21 0-4 1.79-4 4v36zM14.2 9h18.6c1.22 0 2.2 0.98 2.2 2.2v3.6c0 1.22-0.98 2.2-2.2 2.2l-18.6-0c-1.22 0-2.2-0.98-2.2-2.2v-3.6c0-1.22 0.98-2.2 2.2-2.2zM14.2 35h18.6c1.22 0 2.2 0.98 2.2 2.2v3.6c0 1.22-0.98 2.2-2.2 2.2h-18.6c-1.22 0-2.2-0.98-2.2-2.2v-3.6c0-1.22 0.98-2.2 2.2-2.2zM14.2 22h18.6c1.22 0 2.2 0.98 2.2 2.2v3.6c0 1.22-0.98 2.2-2.2 2.2l-18.6-0c-1.22 0-2.2-0.98-2.2-2.2v-3.6c0-1.22 0.98-2.2 2.2-2.2z"></path></svg>