<svg xmlns="http://www.w3.org/2000/svg" class="ijs-icon__svg" width="200" height="200" viewBox="0 0 48 48"><path d="M0 44c0 2.21 1.79 4 4 4h40c2.21 0 4-1.79 4-4l-0-24c0-2.21-1.79-4-4-4h-3v-12c0-2.21-1.79-4-4-4h-26c-2.21 0-4 1.79-4 4v12h-3c-2.21 0-4 1.79-4 4v24zM36 7.2v11.6c0 1.22-0.98 2.2-2.2 2.2h-19.6c-1.22 0-2.2-0.98-2.2-2.2v-11.6c0-1.22 0.98-2.2 2.2-2.2h19.6c1.22 0 2.2 0.98 2.2 2.2zM39 43h-30c-1.1 0-2-0.9-2-2s0.9-2 2-2h30c1.1 0 2 0.9 2 2s-0.9 2-2 2zM7 32.5c0-1.38 1.12-2.5 2.5-2.5s2.5 1.12 2.5 2.5-1.12 2.5-2.5 2.5-2.5-1.12-2.5-2.5z"></path></svg>