<svg xmlns="http://www.w3.org/2000/svg" class="ijs-icon__svg" width="200" height="200" viewBox="0 0 48 48"><path d="M40 48c2.21 0 4-1.79 4-4v-5h1.8c1.22 0 2.2-0.98 2.2-2.2l-0-10.6c0-1.22-0.98-2.2-2.2-2.2h-1.8v-4h1.8c1.22 0 2.2-0.98 2.2-2.2v-10.6c0-1.22-0.98-2.2-2.2-2.2h-1.8v-1c0-2.21-1.79-4-4-4h-31c-2.21 0-4 1.79-4 4v4l-2.5-0c-1.38 0-2.5 1.12-2.5 2.5s1.12 2.5 2.5 2.5h2.5v4l-2.5-0c-1.38 0-2.5 1.12-2.5 2.5s1.12 2.5 2.5 2.5h2.5v4l-2.5-0c-1.38 0-2.5 1.12-2.5 2.5s1.12 2.5 2.5 2.5h2.5v4l-2.5-0c-1.38 0-2.5 1.12-2.5 2.5s1.12 2.5 2.5 2.5h2.5v4c0 2.21 1.79 4 4 4l31-0zM10 40.8v-0.8h3.5c1.38 0 2.5-1.12 2.5-2.5s-1.12-2.5-2.5-2.5h-3.5v-4h3.5c1.38 0 2.5-1.12 2.5-2.5s-1.12-2.5-2.5-2.5h-3.5v-4h3.5c1.38 0 2.5-1.12 2.5-2.5s-1.12-2.5-2.5-2.5h-3.5v-4h3.5c1.38 0 2.5-1.12 2.5-2.5s-1.12-2.5-2.5-2.5h-3.5v-0.8c0-1.22 0.98-2.2 2.2-2.2h6.6c1.22 0 2.2 0.98 2.2 2.2v33.6c0 1.22-0.98 2.2-2.2 2.2h-6.6c-1.22 0-2.2-0.98-2.2-2.2z"></path></svg>