<svg xmlns="http://www.w3.org/2000/svg" class="ijs-icon__svg" width="200" height="200" viewBox="0 0 48 48"><path d="M21 15.5c0-1.38 1.12-2.5 2.5-2.5s2.5 1.12 2.5 2.5-1.12 2.5-2.5 2.5-2.5-1.12-2.5-2.5zM23.5 9c-3.59 0-6.5 2.91-6.5 6.5s2.91 6.5 6.5 6.5c3.59 0 6.5-2.91 6.5-6.5s-2.91-6.5-6.5-6.5zM8 15.22c0 10.2 12.030 18.050 13 29.78v0.5c0 1.38 1.12 2.5 2.5 2.5s2.5-1.12 2.5-2.5l-0-0.5c1.029-11.73 13-19.58 13-29.78 0-8.41-6.939-15.22-15.5-15.22s-15.5 6.81-15.5 15.22zM23.5 5c5.8 0 10.5 4.7 10.5 10.5s-4.7 10.5-10.5 10.5-10.5-4.7-10.5-10.5 4.7-10.5 10.5-10.5z"></path></svg>