<svg xmlns="http://www.w3.org/2000/svg" class="ijs-icon__svg" width="200" height="200" viewBox="0 0 48 48"><path d="M41.598 34.99c-0.119 0.82-0.5 1.611-1.129 2.242-1.561 1.559-4.090 1.559-5.65 0l-2.83-2.83c-0.779-0.781-2.051-0.781-2.83 0l-9.489 9.479c-1.561 1.57-4.090 1.57-5.65 0l-9.9-9.898c-1.57-1.561-1.57-4.092 0-5.65l9.48-9.491c0.78-0.78 0.78-2.050 0-2.83l-2.83-2.83c-1.56-1.56-1.56-4.090 0-5.649 0.63-0.63 1.42-1.010 2.24-1.13l27.031-3.461c2.779 0 5.020 2.24 5.020 5.021l-3.463 27.027z"></path></svg>