<svg xmlns="http://www.w3.org/2000/svg" class="ijs-icon__svg" width="200" height="200" viewBox="0 0 16 16"><path d="M14.001 8.001c0-3.314-2.686-6.001-6.001-6.001s-6.001 2.687-6.001 6.001c0 2.084 1.063 3.92 2.675 4.996l-1.671 1.671 1.33 1.332 2.183-2.183c0.475 0.121 0.972 0.185 1.484 0.185s1.010-0.064 1.484-0.185l2.183 2.183 1.33-1.332-1.671-1.671c1.613-1.076 2.675-2.912 2.675-4.996zM8 12.002c-2.209 0-4.001-1.791-4.001-4.001s1.791-4.001 4.001-4.001 4.001 1.791 4.001 4.001c0 2.209-1.791 4.001-4.001 4.001zM14.001 0c-1.105 0-2 0.896-2 2 0 0.091 0.007 0.18 0.018 0.268 0.666 0.468 1.246 1.048 1.714 1.714 0.088 0.012 0.177 0.018 0.268 0.018 1.105 0 2-0.896 2-2s-0.896-2-2-2zM2.267 3.982c0.468-0.666 1.048-1.246 1.714-1.714 0.012-0.088 0.018-0.177 0.018-0.268 0-1.105-0.896-2-2-2s-2 0.896-2 2c0 1.105 0.896 2 2 2 0.091-0 0.18-0.007 0.268-0.018zM9 7.001v-2h-2v4.001h3.001v-2z"></path></svg>