<svg xmlns="http://www.w3.org/2000/svg" class="ijs-icon__svg" width="200" height="200" viewBox="0 0 16 16"><path d="M14.779 12.779c-1.471 1.993-4.031 3.245-6.779 3.221-2.748 0.023-5.309-1.229-6.779-3.221l-1.221 1.221v-4h4l-1.1 1.099c0.882 1.46 2.357 2.509 4.1 2.807v-6.047c-1.723-0.446-3-1.997-3-3.858 0-2.209 1.791-4 4-4s4 1.791 4 4c0 1.862-1.277 3.413-3 3.858v6.047c1.742-0.297 3.218-1.347 4.099-2.807l-1.1-1.099h4v4l-1.221-1.221zM10 4c0-1.104-0.895-2-2-2s-2 0.895-2 2c0 1.104 0.895 2 2 2s2-0.896 2-2z"></path></svg>