<svg xmlns="http://www.w3.org/2000/svg" class="ijs-icon__svg" width="200" height="200" viewBox="0 0 16 16"><path d="M8 4c-2.209 0-4 1.791-4 4s1.791 4 4 4 4-1.791 4-4-1.791-4-4-4zM8 10c-1.104 0-2-0.896-2-2s0.896-2 2-2v4zM8 2c0.552 0 1-0.447 1-1 0-0.552-0.448-1-1-1s-1 0.448-1 1c0 0.553 0.448 1 1 1zM3 4c0.552 0 1-0.447 1-1s-0.448-1-1-1-1 0.447-1 1 0.448 1 1 1zM1 7c-0.552 0-1 0.447-1 1s0.448 1 1 1 1-0.447 1-1-0.448-1-1-1zM3 12c-0.552 0-1 0.447-1 1s0.448 1 1 1 1-0.447 1-1-0.448-1-1-1zM8 14c-0.552 0-1 0.448-1 1s0.448 1 1 1 1-0.447 1-1c0-0.552-0.448-1-1-1zM13 12c-0.552 0-1 0.447-1 1s0.448 1 1 1 1-0.447 1-1-0.448-1-1-1zM15 7c-0.552 0-1 0.447-1 1s0.448 1 1 1 1-0.447 1-1-0.448-1-1-1zM13 4c0.552 0 1-0.447 1-1s-0.448-1-1-1-1 0.447-1 1 0.448 1 1 1z"></path></svg>