<svg xmlns="http://www.w3.org/2000/svg" class="ijs-icon__svg" width="200" height="200" viewBox="0 0 18 16"><path d="M12.5 4c-0.175 0-0.339 0.035-0.51 0.052-1.15-1.828-3.171-3.052-5.49-3.052-3.59 0-6.5 2.91-6.5 6.5v1c0 3.419 2.648 6.241 6 6.5h7c2.8-0.256 5-2.634 5-5.5 0-3.037-2.463-5.5-5.5-5.5zM13 13h-7c-0.56-0.063-1.083-0.273-1.562-0.521-0.010-0.005-0.019-0.011-0.028-0.016-0.224-0.118-0.436-0.251-0.635-0.404-0.029-0.021-0.056-0.046-0.084-0.068-0.176-0.142-0.344-0.291-0.497-0.458-0.049-0.052-0.090-0.11-0.136-0.165-0.124-0.148-0.246-0.299-0.351-0.463-0.062-0.096-0.108-0.199-0.162-0.299-0.075-0.141-0.154-0.276-0.214-0.425-0.063-0.151-0.102-0.313-0.147-0.472-0.032-0.112-0.074-0.219-0.098-0.335-0.056-0.282-0.088-0.574-0.088-0.874v-1c0-2.485 2.015-4.5 4.5-4.5 0.336 0 0.661 0.043 0.977 0.113 0.064 0.015 0.125 0.041 0.188 0.059 0.256 0.068 0.504 0.154 0.739 0.265 0.040 0.020 0.077 0.043 0.117 0.063 0.259 0.131 0.501 0.285 0.729 0.462 0.011 0.009 0.021 0.018 0.033 0.026 0.767 0.609 1.33 1.454 1.572 2.436 0.49-0.266 1.047-0.424 1.645-0.424 1.933 0 3.5 1.567 3.5 3.5 0 1.762-1.306 3.256-3 3.5z"></path></svg>