<svg xmlns="http://www.w3.org/2000/svg" class="ijs-icon__svg" width="200" height="200" viewBox="0 0 16 16"><path d="M12.5 9c-0.539 0-1.044 0.132-1.5 0.35v-2.699c0.456 0.218 0.961 0.35 1.5 0.35 1.933 0 3.5-1.567 3.5-3.5s-1.567-3.5-3.5-3.5-3.5 1.567-3.5 3.5v1.5h-2v-1.5c0-1.933-1.567-3.5-3.5-3.5s-3.5 1.567-3.5 3.5 1.567 3.5 3.5 3.5c0.539 0 1.044-0.132 1.5-0.35v2.699c-0.456-0.218-0.961-0.35-1.5-0.35-1.933 0-3.5 1.567-3.5 3.5s1.567 3.5 3.5 3.5 3.5-1.567 3.5-3.5v-1.5h2v1.5c0 1.933 1.567 3.5 3.5 3.5s3.5-1.567 3.5-3.5-1.567-3.5-3.5-3.5zM12.5 2c0.828 0 1.5 0.671 1.5 1.5s-0.672 1.5-1.5 1.5-1.5-0.671-1.5-1.5 0.672-1.5 1.5-1.5zM3.5 14c-0.828 0-1.5-0.671-1.5-1.5s0.672-1.5 1.5-1.5 1.5 0.671 1.5 1.5-0.672 1.5-1.5 1.5zM3.5 5c-0.828 0-1.5-0.671-1.5-1.5s0.672-1.5 1.5-1.5 1.5 0.671 1.5 1.5-0.672 1.5-1.5 1.5zM9 9h-2v-2h2v2zM12.5 14c-0.828 0-1.5-0.671-1.5-1.5s0.672-1.5 1.5-1.5 1.5 0.671 1.5 1.5-0.672 1.5-1.5 1.5z"></path></svg>