<svg xmlns="http://www.w3.org/2000/svg" class="ijs-icon__svg" width="200" height="200" viewBox="0 0 16 16"><path d="M8 0c-4.418 0-8 3.582-8 8s3.582 8 8 8 8-3.582 8-8-3.582-8-8-8zM8 1.6c1.486 0 2.838 0.528 3.924 1.379-0.505 0.436-1.59 1.262-3.248 2.045-0.611-1.079-1.331-2.173-2.191-3.224 0.488-0.119 0.991-0.2 1.516-0.2zM5.279 2.228c0.484 0.658 1.281 1.824 2.122 3.313-1.796 0.589-3.871 0.608-5.477 0.479 0.552-1.676 1.774-3.045 3.354-3.792zM7.914 6.478c0.225 0.43 0.446 0.893 0.665 1.362-3.354 0.735-4.924 2.937-5.552 4.144-0.88-1.096-1.428-2.469-1.428-3.983 0-0.283 0.025-0.56 0.062-0.832 1.262 0.175 3.495 0.243 6.253-0.69zM9.134 9.131c0.599 1.463 1.124 3.048 1.431 4.727-0.786 0.345-1.651 0.543-2.564 0.543-1.519 0-2.895-0.552-3.992-1.435 1.589-2.209 3.431-3.323 5.126-3.835zM11.71 13.198c-0.081-0.458-0.431-2.17-1.259-4.361 1.938-0.287 3.477 0.092 3.854 0.201-0.282 1.711-1.24 3.191-2.595 4.16zM9.968 7.642c-0.232-0.54-0.482-1.092-0.774-1.66 1.158-0.501 2.389-1.186 3.663-2.105 0.949 1.116 1.544 2.544 1.544 4.124-1.707-0.379-3.168-0.462-4.433-0.358z"></path></svg>