<svg xmlns="http://www.w3.org/2000/svg" class="ijs-icon__svg" width="200" height="200" viewBox="0 0 16 16"><path d="M15.709 6.203l-5.91-5.909c-0.226-0.227-0.528-0.314-0.824-0.289h-1.951c-0.296-0.024-0.598 0.063-0.824 0.289l-1.2 1.2v-1.489h-2.999v4.489l-1.711 1.71c-0.227 0.226-0.313 0.529-0.289 0.824v1.975c0 0.552 0.447 1 1 1h1v4.999c0 0.552 0.447 1 1 1h9.998c0.553 0 1-0.448 1-1v-4.999h1c0.553 0 1-0.448 1-1v-1.975c0.024-0.295-0.062-0.598-0.289-0.824zM13.998 8.002h-1.999v5.998h-1.999v-3.999h-3.999v3.999h-2v-5.998h-2v-0.555l5.444-5.444h1.109l5.444 5.444v0.555z"></path></svg>