<svg xmlns="http://www.w3.org/2000/svg" class="ijs-icon__svg" width="200" height="200" viewBox="0 0 16 16"><path d="M8.5 0h-1c-3.038 0-5.5 2.462-5.5 5.5 0 2.137 1.219 3.99 3 4.9v0.6c0 0.552 0.447 1 1 1h4c0.553 0 1-0.448 1-1v-0.6c1.781-0.91 3-2.763 3-4.9 0-3.038-2.463-5.5-5.5-5.5zM9 8.964v1.036h-2v-1.036c-1.696-0.243-3-1.701-3-3.464 0-1.933 1.567-3.5 3.5-3.5h1c1.933 0 3.5 1.567 3.5 3.5 0 1.763-1.304 3.222-3 3.464zM6.5 13h3c0.276 0 0.5 0.224 0.5 0.5s-0.224 0.5-0.5 0.5h-3c-0.276 0-0.5-0.224-0.5-0.5s0.224-0.5 0.5-0.5zM7.5 15h1c0.276 0 0.5 0.224 0.5 0.5s-0.224 0.5-0.5 0.5h-1c-0.276 0-0.5-0.224-0.5-0.5s0.224-0.5 0.5-0.5z"></path></svg>