<svg xmlns="http://www.w3.org/2000/svg" class="ijs-icon__svg" width="200" height="200" viewBox="0 0 16 16"><path d="M7.995 3.501c0.002 2.485 2.015 4.5 4.5 4.5 1.334 0 2.52-0.592 3.394-1.961 0.147 0.026 0.115 1.353 0.105 1.961-0.071 4.418-3.582 7.999-7.999 7.999s-7.999-3.582-7.999-7.999 3.582-7.941 7.999-7.999c0.527-0.007 1.083 0.010 1.982 0.054-0.56 0.571-1.983 1.957-1.982 3.446zM5.995 5.001c0-1.081 0.351-2.075 0.934-2.892-2.803 0.505-4.933 2.944-4.933 5.892 0 3.313 2.686 6 5.999 6 2.948 0 5.387-2.131 5.892-4.933-0.817 0.583-1.811 0.933-2.892 0.933-2.761 0-5-2.238-5-5z"></path></svg>