<svg xmlns="http://www.w3.org/2000/svg" class="ijs-icon__svg" width="200" height="200" viewBox="0 0 16 16"><path d="M16 7v2h-2.091c-0.149 0.886-0.501 1.699-0.995 2.407l2.097 1.823-1.443 1.783-2.312-2.011c-0.673 0.438-1.432 0.757-2.256 0.896v2.101h-2v-2.091c-0.827-0.14-1.586-0.462-2.26-0.903l-2.308 2.008-1.443-1.783 2.101-1.827c-0.489-0.707-0.839-1.519-0.988-2.403h-2.101v-2h2.091c0.149-0.886 0.501-1.699 0.995-2.407l-2.097-1.823 1.443-1.783 2.312 2.011c0.673-0.438 1.432-0.757 2.256-0.897v-2.101h2v2.101c0.825 0.14 1.583 0.459 2.256 0.897l2.312-2.011 1.443 1.783-2.097 1.823c0.493 0.708 0.845 1.521 0.995 2.407h2.091zM8 5c-1.657 0-3 1.343-3 3s1.343 3 3 3 3-1.343 3-3-1.343-3-3-3z"></path></svg>