<svg xmlns="http://www.w3.org/2000/svg" class="ijs-icon__svg" width="200" height="200" viewBox="0 0 16 16"><path d="M9.999 15.734v-2.104c2.324-0.826 3.998-3.022 3.998-5.63s-1.674-4.804-3.998-5.63v-2.104c3.447 0.89 5.997 4.010 5.997 7.734s-2.55 6.845-5.997 7.734zM8 15.996l-3.998-3.998h-2.998c-0.552 0-0.999-0.447-0.999-0.999v-5.997c0-0.552 0.447-0.999 0.999-0.999h2.998l3.998-3.998c0 0 0.999-0.125 0.999 0.999 0 2.278 0 11.939 0 13.993 0 1.124-0.999 0.999-0.999 0.999zM7.001 4.002l-1.999 1.999h-2.998v3.998h2.998l1.999 1.999v-7.996zM12.997 8c0 1.86-1.277 3.41-2.998 3.856v-2.135c0.595-0.346 0.999-0.984 0.999-1.722s-0.404-1.375-0.999-1.722v-2.135c1.722 0.446 2.998 1.996 2.998 3.856z"></path></svg>