<svg xmlns="http://www.w3.org/2000/svg" class="ijs-icon__svg" width="200" height="200" viewBox="0 0 16 16"><path d="M15 9h-2c-0.553 0-1-0.447-1-1s0.447-1 1-1h2c0.553 0 1 0.447 1 1s-0.447 1-1 1zM12.242 5.172c-0.391 0.391-1.023 0.391-1.414 0s-0.391-1.023 0-1.414l1.414-1.414c0.391-0.391 1.023-0.391 1.414 0s0.391 1.023 0 1.414l-1.414 1.414zM8 16c-0.553 0-1-0.447-1-1v-2c0-0.553 0.447-1 1-1s1 0.447 1 1v2c0 0.553-0.447 1-1 1zM8 4c-0.553 0-1-0.447-1-1v-2c0-0.553 0.447-1 1-1s1 0.447 1 1v2c0 0.553-0.447 1-1 1zM3.758 13.656c-0.391 0.391-1.023 0.391-1.414 0s-0.391-1.023 0-1.414l1.414-1.414c0.391-0.391 1.023-0.391 1.414 0s0.391 1.023 0 1.414l-1.414 1.414zM3.758 5.172l-1.414-1.414c-0.391-0.391-0.391-1.023 0-1.414s1.023-0.391 1.414 0l1.414 1.414c0.391 0.391 0.391 1.023 0 1.414s-1.023 0.391-1.414 0zM4 8c0 0.553-0.447 1-1 1h-2c-0.553 0-1-0.447-1-1s0.447-1 1-1h2c0.553 0 1 0.447 1 1zM12.242 10.828l1.414 1.414c0.391 0.391 0.391 1.024 0 1.414s-1.023 0.391-1.414 0l-1.414-1.414c-0.391-0.391-0.391-1.023 0-1.414s1.023-0.391 1.414 0z"></path></svg>