<svg xmlns="http://www.w3.org/2000/svg" class="ijs-icon__svg" width="200" height="200" viewBox="0 0 16 16"><path d="M15.988 9.491l-1.49 1.491-1.491-1.491-1.491 1.491-1.49-1.491 1.49-1.491-1.49-1.491 1.49-1.491 1.491 1.491 1.491-1.491 1.49 1.491-1.49 1.491 1.49 1.491zM8.008 15.996l-3.998-3.998h-2.998c-0.552 0-0.999-0.447-0.999-0.999v-5.997c0-0.552 0.447-0.999 0.999-0.999h2.998l3.998-3.998c0 0 0.999-0.125 0.999 0.999 0 5.423 0 13.304 0 13.993 0 1.124-0.999 0.999-0.999 0.999zM7.009 4.002l-1.999 1.999h-2.998v3.998h2.998l1.999 1.999v-7.996z"></path></svg>