<svg xmlns="http://www.w3.org/2000/svg" class="ijs-icon__svg" width="200" height="200" viewBox="0 0 16 16"><path d="M11.933 7.669c0.037-0.218 0.067-0.439 0.067-0.669v-3c0-2.209-1.791-4-4-4s-4 1.791-4 4v3c0 0.229 0.030 0.451 0.067 0.669-2.42 0.859-4.067 2.468-4.067 4.331v3c0 0.553 0.447 1 1 1h14c0.553 0 1-0.447 1-1v-3c0-1.863-1.647-3.472-4.067-4.331zM6 4c0-1.104 0.896-2 2-2s2 0.896 2 2v3c0 1.104-0.896 2-2 2s-2-0.896-2-2v-3zM14 14h-12v-2c0-1.080 1.15-2.019 2.862-2.547 0.732 0.936 1.858 1.547 3.138 1.547s2.405-0.611 3.138-1.547c1.712 0.528 2.862 1.467 2.862 2.547v2z"></path></svg>