<svg xmlns="http://www.w3.org/2000/svg" class="ijs-icon__svg" width="200" height="200" viewBox="0 0 16 16"><path d="M15.56 13.435l-2.652-2.652c0.699-1.091 1.116-2.38 1.116-3.771 0-3.873-3.139-7.012-7.012-7.012s-7.012 3.139-7.012 7.012 3.14 7.012 7.012 7.012c1.392 0 2.68-0.417 3.771-1.116l2.652 2.652c0.587 0.587 1.538 0.587 2.125 0s0.587-1.538 0-2.125zM7.012 12.021c-2.766 0-5.009-2.242-5.009-5.009s2.243-5.009 5.009-5.009c2.766 0 5.009 2.243 5.009 5.009s-2.242 5.009-5.009 5.009zM4.007 8.014h6.010v-2.003h-6.010v2.003z"></path></svg>