<svg xmlns="http://www.w3.org/2000/svg" class="ijs-icon__svg" width="200" height="200" viewBox="0 0 16 16"><path d="M15.56 15.56c-0.587 0.587-1.538 0.587-2.125 0l-2.652-2.652c-1.090 0.699-2.379 1.116-3.771 1.116-3.872 0-7.012-3.139-7.012-7.012s3.14-7.012 7.012-7.012c3.873 0 7.012 3.139 7.012 7.012 0 1.392-0.417 2.68-1.116 3.771l2.652 2.652c0.587 0.587 0.587 1.538 0 2.125zM7.012 2.003c-2.766 0-5.009 2.243-5.009 5.009s2.243 5.009 5.009 5.009c2.766 0 5.009-2.242 5.009-5.009s-2.242-5.009-5.009-5.009zM8.014 10.017h-2.003v-2.003h-2.003v-2.003h2.003v-2.003h2.003v2.003h2.003v2.003h-2.003v2.003z"></path></svg>