<svg xmlns="http://www.w3.org/2000/svg" class="ijs-icon__svg" width="200" height="200" viewBox="0 0 32 32"><path d="M4 2v28h23v-28h-23zM6.5 28.541c-0.553 0-1-0.447-1-1 0-0.552 0.447-1 1-1 0.552 0 1 0.448 1 1 0 0.553-0.448 1-1 1zM6.521 5.5c-0.552 0-1-0.448-1-1 0-0.553 0.448-1 1-1 0.553 0 1 0.447 1 1 0 0.552-0.448 1-1 1zM21 26h-11v-20h11v20zM24.458 28.458c-0.552 0-1-0.448-1-1s0.448-1 1-1 1 0.448 1 1-0.448 1-1 1zM24.479 5.5c-0.552 0-1-0.448-1-1 0-0.553 0.448-1 1-1 0.553 0 1 0.447 1 1 0 0.552-0.448 1-1 1zM19 8h-7v10h7v-10zM19 19h-7v5h7v-5z"></path></svg>