<svg xmlns="http://www.w3.org/2000/svg" class="ijs-icon__svg" width="200" height="200" viewBox="0 0 24 24"><path d="M19 17h-7c-1.103 0-2 0.897-2 2s0.897 2 2 2h7c1.103 0 2-0.897 2-2s-0.897-2-2-2z"></path><path d="M19 10h-7c-1.103 0-2 0.897-2 2s0.897 2 2 2h7c1.103 0 2-0.897 2-2s-0.897-2-2-2z"></path><path d="M19 3h-7c-1.103 0-2 0.897-2 2s0.897 2 2 2h7c1.103 0 2-0.897 2-2s-0.897-2-2-2z"></path><path d="M7.5 19c0 1.381-1.119 2.5-2.5 2.5s-2.5-1.119-2.5-2.5c0-1.381 1.119-2.5 2.5-2.5s2.5 1.119 2.5 2.5z"></path><path d="M7.5 12c0 1.381-1.119 2.5-2.5 2.5s-2.5-1.119-2.5-2.5c0-1.381 1.119-2.5 2.5-2.5s2.5 1.119 2.5 2.5z"></path><path d="M7.5 5c0 1.381-1.119 2.5-2.5 2.5s-2.5-1.119-2.5-2.5c0-1.381 1.119-2.5 2.5-2.5s2.5 1.119 2.5 2.5z"></path></svg>