<svg xmlns="http://www.w3.org/2000/svg" class="ijs-icon__svg" width="200" height="200" viewBox="0 0 24 24"><path d="M19 7h-14c-1.104 0-2 0.896-2 2v9c0 1.104 0.896 2 2 2h14c1.104 0 2-0.896 2-2v-9c0-1.104-0.896-2-2-2zM9.316 14.316l1.602 1.4c0.305 0.266 0.691 0.398 1.082 0.398s0.777-0.133 1.082-0.398l1.602-1.4-0.037 0.037 3.646 3.646h-12.586l3.646-3.646-0.037-0.037zM5 17.293v-6.753l3.602 3.151-3.602 3.602zM15.398 13.691l3.602-3.151v6.75l-3.602-3.599zM19 9v0.21l-6.576 5.754c-0.227 0.198-0.621 0.198-0.848 0l-6.576-5.754v-0.21h14z"></path></svg>