<svg xmlns="http://www.w3.org/2000/svg" class="ijs-icon__svg" width="200" height="200" viewBox="0 0 24 24"><path d="M8 3h-2c-0.825 0-1.575 0.337-2.119 0.881s-0.881 1.294-0.881 2.119v2c0 0.825 0.337 1.575 0.881 2.119s1.294 0.881 2.119 0.881h2c0.825 0 1.575-0.337 2.119-0.881s0.881-1.294 0.881-2.119v-2c0-0.825-0.337-1.575-0.881-2.119s-1.294-0.881-2.119-0.881z"></path><path d="M18 3h-2c-0.825 0-1.575 0.337-2.119 0.881s-0.881 1.294-0.881 2.119v2c0 0.825 0.337 1.575 0.881 2.119s1.294 0.881 2.119 0.881h2c0.825 0 1.575-0.337 2.119-0.881s0.881-1.294 0.881-2.119v-2c0-0.825-0.337-1.575-0.881-2.119s-1.294-0.881-2.119-0.881z"></path><path d="M8 13h-2c-0.825 0-1.575 0.337-2.119 0.881s-0.881 1.294-0.881 2.119v2c0 0.825 0.337 1.575 0.881 2.119s1.294 0.881 2.119 0.881h2c0.825 0 1.575-0.337 2.119-0.881s0.881-1.294 0.881-2.119v-2c0-0.825-0.337-1.575-0.881-2.119s-1.294-0.881-2.119-0.881z"></path><path d="M18 13h-2c-0.825 0-1.575 0.337-2.119 0.881s-0.881 1.294-0.881 2.119v2c0 0.825 0.337 1.575 0.881 2.119s1.294 0.881 2.119 0.881h2c0.825 0 1.575-0.337 2.119-0.881s0.881-1.294 0.881-2.119v-2c0-0.825-0.337-1.575-0.881-2.119s-1.294-0.881-2.119-0.881z"></path></svg>