<svg xmlns="http://www.w3.org/2000/svg" class="ijs-icon__svg" width="200" height="200" viewBox="0 0 32 32"><path d="M29.934 30.972l-13.239-30.531c-0.116-0.268-0.381-0.441-0.673-0.441s-0.557 0.173-0.672 0.44l-13.284 30.531c-0.099 0.229-0.076 0.49 0.060 0.697 0.136 0.206 0.366 0.332 0.613 0.332h11.261v-6.668l-3.999-1.333c-0.553 0-1-0.447-1-1s0.447-1 1-1l3.999 1.333v-6.332c0-0.553 0.447-1 1-1h2c0.553 0 1 0.447 1 1v1.5l2.999-1.5c0.553 0 1 0.447 1 1s-0.447 1-1 1l-2.999 1.499v3.5l4.999-3c0.553 0 1 0.447 1 1s-0.447 1-1 1l-4.999 3v6.001h11.261c0.248 0 0.478-0.125 0.613-0.332 0.136-0.206 0.157-0.469 0.060-0.696z"></path></svg>