<svg xmlns="http://www.w3.org/2000/svg" class="ijs-icon__svg" width="200" height="200" viewBox="0 0 32 32"><path d="M29 0h-26c-0.552 0-1 0.448-1 1v30c0 0.553 0.448 1 1 1h26c0.553 0 1-0.447 1-1v-30c0-0.552-0.447-1-1-1zM5 28c-0.552 0-1-0.447-1-1s0.448-1 1-1 1 0.447 1 1-0.448 1-1 1zM5 24c-0.552 0-1-0.447-1-1s0.448-1 1-1 1 0.447 1 1-0.448 1-1 1zM5 20c-0.552 0-1-0.447-1-1s0.448-1 1-1 1 0.447 1 1-0.448 1-1 1zM5 16c-0.552 0-1-0.448-1-1s0.448-1 1-1 1 0.448 1 1-0.448 1-1 1zM5 12c-0.552 0-1-0.448-1-1s0.448-1 1-1 1 0.448 1 1-0.448 1-1 1zM5 8c-0.552 0-1-0.448-1-1s0.448-1 1-1 1 0.448 1 1-0.448 1-1 1zM5 4c-0.552 0-1-0.448-1-1s0.448-1 1-1 1 0.448 1 1-0.448 1-1 1zM24 29c0 0.553-0.447 1-1 1h-14c-0.552 0-1-0.447-1-1v-10c0-0.553 0.448-1 1-1h14c0.553 0 1 0.447 1 1v10zM24 15c0 0.552-0.447 1-1 1h-14c-0.552 0-1-0.448-1-1v-12c0-0.552 0.448-1 1-1h14c0.553 0 1 0.448 1 1v12zM27 28c-0.553 0-1-0.447-1-1s0.447-1 1-1 1 0.447 1 1-0.447 1-1 1zM27 24c-0.553 0-1-0.447-1-1s0.447-1 1-1 1 0.447 1 1-0.447 1-1 1zM27 20c-0.553 0-1-0.447-1-1s0.447-1 1-1 1 0.447 1 1-0.447 1-1 1zM27 16c-0.553 0-1-0.448-1-1s0.447-1 1-1 1 0.448 1 1-0.447 1-1 1zM27 12c-0.553 0-1-0.448-1-1s0.447-1 1-1 1 0.448 1 1-0.447 1-1 1zM27 8c-0.553 0-1-0.448-1-1s0.447-1 1-1 1 0.448 1 1-0.447 1-1 1zM27 4c-0.553 0-1-0.448-1-1s0.447-1 1-1 1 0.448 1 1-0.447 1-1 1z"></path></svg>