<svg xmlns="http://www.w3.org/2000/svg" class="ijs-icon__svg" width="200" height="200" viewBox="0 0 32 32"><path d="M23.998 9.391l5.717-5.717c0.384-0.383 0.384-1.005 0-1.389-0.383-0.383-1.004-0.383-1.388 0l-5.718 5.718h-14.611v-3c0-0.553-0.448-1-1-1h-2c-0.552 0-1 0.447-1 1v3h-3c-0.552 0-1 0.447-1 1v2c0 0.553 0.448 1 1 1h3v15c0 0.553 0.448 1 1 1h15v3c0 0.553 0.447 1 1 1h2c0.553 0 1-0.447 1-1v-3h3c0.553 0 1-0.447 1-1v-2c0-0.553-0.447-1-1-1h-3v-14.612zM18.609 12.002l-10.611 10.612v-10.612h10.611zM9.388 24.002l10.61-10.611v10.611h-10.61z"></path></svg>